<?xml version="1.0" encoding="utf-8"?>
<!-- Generator: Adobe Illustrator 25.2.1, SVG Export Plug-In . SVG Version: 6.00 Build 0)  -->
<svg version="1.1" id="Layer_1" xmlns="http://www.w3.org/2000/svg" xmlns:xlink="http://www.w3.org/1999/xlink" x="0px" y="0px"
	 viewBox="0 0 548.4 711.9" style="enable-background:new 0 0 548.4 711.9;" xml:space="preserve">
<style type="text/css">
	.st0{fill-rule:evenodd;clip-rule:evenodd;fill:#A4CAD3;}
	.st1{clip-path:url(#SVGID_2_);}
	.st2{fill-rule:evenodd;clip-rule:evenodd;fill:#072D4D;}
	.st3{fill-rule:evenodd;clip-rule:evenodd;fill:#6598B9;}
	.st4{fill-rule:evenodd;clip-rule:evenodd;fill:#A2C9D4;}
	.st5{fill-rule:evenodd;clip-rule:evenodd;fill:#D2E5EA;}
	.st6{fill-rule:evenodd;clip-rule:evenodd;fill:#0C3555;}
	.st7{fill-rule:evenodd;clip-rule:evenodd;fill:#FAC47B;}
	.st8{fill-rule:evenodd;clip-rule:evenodd;fill:#FEE7AE;}
	.st9{fill-rule:evenodd;clip-rule:evenodd;fill:#D3E7EB;}
	.st10{fill-rule:evenodd;clip-rule:evenodd;fill:#6998B9;}
	.st11{fill-rule:evenodd;clip-rule:evenodd;fill:#CBE0E5;}
	.st12{fill-rule:evenodd;clip-rule:evenodd;fill:#81ACC1;}
	.st13{fill-rule:evenodd;clip-rule:evenodd;fill:#C92F27;}
	.st14{fill-rule:evenodd;clip-rule:evenodd;fill:#A72723;}
	.st15{fill-rule:evenodd;clip-rule:evenodd;fill:#FFFFFF;}
	.st16{fill-rule:evenodd;clip-rule:evenodd;fill:#DAD9D8;}
	.st17{fill-rule:evenodd;clip-rule:evenodd;fill:#FFF5D1;}
	.st18{fill-rule:evenodd;clip-rule:evenodd;fill:#FCDEAE;}
</style>
<g>
	<g>
		<circle class="st0" cx="274.2" cy="388.3" r="274.2"/>
	</g>
	<g>
		<defs>
			<circle id="SVGID_1_" cx="274.2" cy="388.3" r="274.2"/>
		</defs>
		<clipPath id="SVGID_2_">
			<use xlink:href="#SVGID_1_"  style="overflow:visible;"/>
		</clipPath>
		<g class="st1">
			<g>
				<path class="st2" d="M54.3,516c13.8,1,27.4,11.3,36.5,20.5c8.4,8.4,17.1,16.6,25.9,24.7l5.1,4.7L95,592.6l-4.9-4.5
					c-8.9-8.4-17.8-17-26.2-26c-5.9-6.4-12.1-13.1-17.2-20.2c-3.9-5.4-9.5-14.1-4.3-21.3C45.6,516.7,50.1,515.8,54.3,516z"/>
				<path class="st3" d="M53,523.2c11,1,23.3,9.7,32.5,18.5c9.1,8.9,26.1,24.7,26.1,24.7l-15.9,15.8C86.5,574.1,31.1,521.5,53,523.2
					z"/>
				<path class="st2" d="M38.8,528.6c13.8,0,28.4,9.1,38.3,17.3c6.8,5.7,13.6,11.1,20.3,16.6c3.2,2.5,5,5.9,5.3,10.2
					c0.3,8.1-5.6,14.6-10.1,21c-1.2,1.7-3.1,3-5.1,3.5c-2,0.5-4,0-5.5-1.3c-9.8-7.6-19.6-15.1-28.8-23.2
					c-6.8-5.7-13.5-11.9-19.2-18.3c-4.4-4.9-11.1-12.9-6.4-20.2C30.2,529.9,34.5,528.6,38.8,528.6z"/>
				<path class="st3" d="M37.9,535.8c11.3,0,24.3,7.6,34.1,15.8c5.6,4.7,14.5,11.6,20.6,16.6c7.5,5.9-1.5,15.3-5.6,21.5
					C77.1,582.3,15.9,535.8,37.9,535.8z"/>
				<path class="st2" d="M85.1,571.4c0.1-1-0.6-3.2-1-4.2c-3.9-5.2-7.6-10.8-11.2-16.4c-8.2-12.4-16.2-25-23.1-38.1
					c-5.5-10.4-10.9-21.5-14.6-32.6c-3.9-11.9-8.3-26.4-3.7-39.8c2.5-6.7,6.6-12.4,11.1-17.8c6-6.9,12.4-13.6,18.7-20.5
					c28.1-31.4,98.2-85.5,139.2-87.7l5.4-0.3l1.2,5.2c2.3,9.7-2.4,25.8-5.5,35.6c-5,16.1-11.6,32.4-18.3,47.9
					c-7.1,16.6-14.6,33.1-22.2,49.7c-2.6,5.9-5.5,11.9-8.2,18c-1.4,3-3,6.4-4.1,9.4c-0.7,1.9-1,4.5-1.5,6.4
					c-0.7,3.7-1.4,7.5-1.7,11.1c-1.4,9.9-2.5,19.8-3.6,29.6c-1.9,16.8-3.6,33.9-5,50.6l-0.5,4l-3.5,2.2c-4.7,3-9.3,5.9-14.1,8.6
					c-4.3,2.5-9.6,5.9-13.9,7.6c-9.6,4.2-21.2-3-28.3-7.9c-4.2-2.7-8.6-6.7-6.2-12.6s8.3-5.9,13.3-7.9
					C84.3,571.6,84.9,571.4,85.1,571.4z"/>
				<path class="st4" d="M200,321.2c-37.1,1.9-105.4,53.2-133.5,85c-28.1,31.7-36.7,33.9-24.3,70.7C54.3,513.7,90.8,563,90.8,563
					c9.8,22.9-24.7,12.9-9.1,23.2c5.7,4,15.4,9.9,21.4,7.5c6-2.5,27-15.8,27-15.8s7.5-85.3,12-99.6
					C146.7,463.9,206.2,347.2,200,321.2z"/>
				<path class="st2" d="M109.4,473.2c-2.8-16.8-8.1-26.7-23.8-34.1c-9.4-4.5-17.2-4.7-27.5-5.7l10.2-2.7c9.8-1.3,21.5,2.2,29.3,7
					c14.6,8.6,18.2,18,21.9,33.9c0.2,2.7-1.8,5.4-4.6,6.2C112.3,477.9,109.8,476.2,109.4,473.2z"/>
				<path class="st2" d="M102.5,566.2c3.6,9.4,0.4,20.2-7.5,24.5c-7.9,4.2-17.3,0.3-21-9.1c-3.7-9.4-0.4-20.2,7.5-24.5
					C89.4,552.8,98.8,556.8,102.5,566.2z"/>
				<path class="st4" d="M99,568.1c-2.9-7.2-10-10.2-16.1-7c-6.1,3.2-8.5,11.6-5.8,18.8c2.9,7.2,10,10.2,16.1,7
					C99.3,583.5,102,575.1,99,568.1z"/>
				<path class="st2" d="M97,577.8c-1.8,5.7-7.2,8.6-12.1,6.4c-4.9-2.2-7.5-8.6-5.8-14.3c1.8-5.7,7.2-8.6,12.1-6.4
					C96.4,565.7,98.8,572.1,97,577.8z"/>
				<path class="st4" d="M95.3,577.1c1.5-4.7-0.7-9.7-4.6-11.3c-4-1.7-8.2,0.5-9.8,5.2c-1.5,4.6,0.7,9.7,4.6,11.3
					C89.6,584,93.8,581.8,95.3,577.1z"/>
				<path class="st2" d="M95.3,577.1c0.1-0.5,0.4-1.3,0.5-1.7L82,569.1c-0.3,0.5-0.4,1-0.7,1.5c-0.1,0.5-0.4,1.3-0.5,1.7l13.8,6.2
					C94.9,578,95,577.5,95.3,577.1z"/>
				<path class="st3" d="M151.9,359.8C115.8,376,85.4,412,78.4,421.5c-3.2,4.5-5.2,7.2-6.5,8.9c8.9-0.3,19,3,26,6.9
					c3,1.7,13.4,10.4,15.9,16.8C120.8,424.7,132.5,384.3,151.9,359.8z"/>
				<path class="st3" d="M78.1,525.9c-14.1-21-33.2-60.6-37.6-89c-5.6,9.9-5.2,19.8,1.4,40.1c4.3,12.9,11.5,27.2,18.9,40.3
					c2,3.7,4.4,7.5,6.4,10.8c4.7,7.9,9.6,15.3,13.5,21c1.7,2.5,3.2,4.7,4.5,6.7c1.1-0.3,2.2-0.3,3.5-0.3c5.6,0.5,11.1,4.5,13.6,10.8
					c1,2.5,1.4,5.2,1.5,7.9c0,6.9-3.3,13.6-9,16.6h-0.3c-0.3,0.3-0.5,0.3-0.8,0.5c-0.8,0.3-1.5,0.5-2,0.8c0.5,0.3,1.2,0.5,1.6,0.8
					c3.6,1.5,7.2,1.9,9.8,1c3.1-1.5,11-5.9,17.2-9.9c0.3-0.3,0.5-0.3,0.8-0.5c-0.2-0.3-0.4-0.8-0.6-1c-1.8-3-3.8-6.2-5.6-9.4
					c-10.6-19.1-7.4-30.3-8.7-33.9C91.5,544.4,85.1,536,78.1,525.9z"/>
				<path class="st5" d="M54.8,422.3c19.4-26.4,56.6-56.6,84.9-73.2c6.6-3.7,5-3,11.7-5.4c-30.8,25-65.8,49-88.7,82.3
					c-1.3,2.2-4.1,3.5-6.2,2.5C54.2,427.3,53.5,424.7,54.8,422.3z"/>
				<path class="st5" d="M117.7,436.6c7.2-28,28.5-67.8,49.8-88l9.5-7.6c-19.3,34.6-37.2,57.3-44.3,96.9c-0.7,4.2-4.7,7.2-8.9,6.9
					C119.5,444.6,116.7,440.8,117.7,436.6z"/>
			</g>
			<path class="st6" d="M160.8,623.8l29.1,10c2.5,0.9,4.4,2.8,4.9,5.4l34.5,142.4c0.6,2.3,0.1,4.6-1.5,6.5c-1.5,1.9-3.6,2.9-6,2.9
				h-18.6c-3.4,0-6.4-2.1-7.4-5.4c-15-50.8-30-101.6-45-152.4c-0.9-2.8-0.1-5.6,2-7.6C155.1,623.4,158,622.9,160.8,623.8z"/>
			<path class="st7" d="M158.3,631c45,152.4,45,152.4,45,152.4h18.6L187.4,641L158.3,631z"/>
			<path class="st6" d="M180.3,777.7c0.2-0.8,0.4-1.6,0.7-2.4c6.3-23.6,27.9-31.8,46.3-16.9c10.3,8.3,15.1,21.8,17.5,34.4
				c2.5,13.5,3,30.5,1.4,44.3c-0.5,4.1-4,7.2-8,7.2H41.3c-2.6,0-4.8-1.1-6.5-3.2c-1.5-2-2-4.6-1.4-7.1c1.5-5.8,3.1-11.5,4.6-17.3
				c6.3-23.3,29.6-33.9,51-39.6c12.3-3.3,29.7-2.8,42.4-2.2C145.4,775.4,166.5,775.9,180.3,777.7z"/>
			<path class="st0" d="M188.9,777.4c-2.5,9.3-2.5,9.3-2.5,9.3s-13.1-0.3-22.3-1.3c-20.5-2.1-56.5-5-72.9-0.6
				c-23.7,6.4-40.7,16.5-45.3,33.8C41.2,836,41.2,836,41.2,836H238C245.8,769.7,200.7,733.1,188.9,777.4z"/>
			<path class="st6" d="M128.2,774.9c10.8,3.6,21.9,7.6,30.9,14.7c13.7,10.8,19.2,26.4,21.6,43.3c0.2,1.2,0.2,2.3,0.2,3.5
				c-0.2,4.4-3.8,7.6-8.1,7.6H41.3c-2.6,0-4.8-1.1-6.5-3.2c-1.5-2-2-4.6-1.4-7.1c1.5-5.8,3.1-11.5,4.6-17.3
				c6.3-23.3,29.6-33.9,51-39.6c10.8-2.9,25.5-2.8,36.7-2.4C126.6,774.5,127.4,774.6,128.2,774.9z"/>
			<path class="st8" d="M125.5,782.6c-13.4-0.4-26.2,0-34.4,2.2c-23.7,6.4-40.7,16.5-45.3,33.8C41.2,836,41.2,836,41.2,836h131.4
				c0-0.6,0-1.3-0.1-1.8C167.5,798.7,150.4,790.9,125.5,782.6z"/>
			<path class="st7" d="M114.9,836h57.9c0-0.6,0-1.3-0.1-1.8c-1.3-8.4-3.1-15.2-5.6-20.9c-7.8-1.4-17.9-1.1-27.4,2
				c-9.8,3.2-18.9,9.2-24,19.2C115.4,834.9,115.1,835.4,114.9,836z"/>
			<path class="st6" d="M349.4,837.9c-0.3,0-0.6,0-0.9,0c-4.1-0.4-7.2-3.9-7-7.9c0-0.8,0.2-1.5,0.5-2.3c-0.1-1.8-0.7-4.4-1-5.8
				c-1.5-7.6-3.3-15.2-5.1-22.8c-3.8-15-7.7-29.9-11.9-44.7c-6.9-24.7-14-49.2-21.3-73.8c-0.9-2.8-0.1-5.6,2-7.6
				c2.1-2,4.9-2.7,7.7-1.7l29.1,10c2.6,0.9,4.5,3,5,5.7l28.6,142c0.5,2.3-0.1,4.6-1.5,6.3c-1.5,1.8-3.6,2.8-5.9,2.8L349.4,837.9
				L349.4,837.9z"/>
			<path class="st7" d="M310,678.4c45,152.4,39.1,151.8,39.1,151.8h18.6l-28.6-142L310,678.4z"/>
			<path class="st6" d="M330.4,823.3c-0.9-5-2.1-10-3.2-15c-1.2-5.7-2.3-12.3,1.7-17.1c2.7-3.3,6.7-4.5,10.8-4.5
				c9,0,12.4,12.9,14.4,19.8c0.8,2.6,1.5,5.2,2.1,7.9l3.8-1l-4.1-20.4c-0.3-1.5-0.2-2.9,0.4-4.3c1.1-2.7,3.2-5,5.9-6.1
				c6-2.4,11,1.6,14.2,6.4c4.2,6.2,6,18.4,6.6,27.2c17.8,13.5,35.3,28,51.2,43.6c16.8,16.6,48.2,49.7,40.4,75.8
				c-3.7,12.3-14.7,19.2-26.3,23.1c-17.4,5.9-35,6.9-52-1c-22-10.2-38.8-33.7-55-51.2c-0.4-0.4-0.7-0.8-1-1.3
				c-4.1-6.7-8.9-13.1-13.1-19.7c-5.7-8.9-13.4-22.1-11-33.1C318.5,841.8,323.2,831.3,330.4,823.3z"/>
			<path class="st0" d="M338.6,825.9c-9.3,8.7-13.2,20.5-14.8,28.1c-2.7,13,16,35.2,23.2,47.4c29.7,32.2,49.8,66.7,99,50.3
				c69.3-23.2-41.8-110-70.2-131.3c0,0-0.9-19.9-5.6-26.9c-4.6-7-6.7-1.7-6.7-1.7l5.5,27.5l-18.5,4.8c0,0-5.9-29.4-10.7-29.4
				C328.6,794.2,335.9,806.3,338.6,825.9z"/>
			<path class="st6" d="M433.1,858.6c16.8,11.6,33.6,27.5,41.1,46.9c5.4,13.9,5.7,29.7-3.4,42.3c-5.4,7.5-13.3,12.5-22.1,14.9
				c-16.8,4.7-34.2,2.9-50.1-4c-25.8-11-46-34.2-61.1-57.1c-1.8-2.9-1.6-6.5,0.6-9.1c23-27.4,56.5-44.8,92.7-35.1
				C431.6,857.8,432.3,858.2,433.1,858.6z"/>
			<path class="st7" d="M343.9,897.6c40.1,61.1,79.5,64.4,102.7,57.9c31.7-8.9,37-52.5-17.9-90.5C395.8,856,365.2,872.3,343.9,897.6
				z"/>
			<path class="st6" d="M95.1,837.6c0.9-5.5,2.5-10.4,4.7-14.5c6.2-12.1,16.9-19.3,28.3-22.9c11.1-3.6,23-3.8,32-2
				c4.3,0.9,7.9,2.2,10.7,4l-3.7,7c-2-1.3-4.8-2.3-8.3-3.1c-7.9-1.6-18.6-1.5-28.6,1.8c-9.8,3.2-18.9,9.2-24,19.2
				c-1.8,3.5-3.1,7.5-3.9,12L95.1,837.6z"/>
			<path class="st6" d="M54.1,838.8c0.1-1.3,0.1-2.4,0.3-3.5c1.7-14.3,10.7-27.8,25.7-37.4c14.5-9.3,34.8-14.9,59.6-13.9
				c4.2,0.2,8.3,0.5,12.5,1l-1,8c-4.2-0.5-8.1-0.8-11.9-1c-22.9-0.9-41.6,4.2-54.9,12.7c-12.8,8.1-20.5,19.5-22,31.5
				c-0.1,1.1-0.2,1.9-0.2,2.8L54.1,838.8z"/>
			<path class="st6" d="M411.9,956.7c4.2-12.2,0.8-26.1-5.7-39c-10.5-21-28.5-39-36-43.7l4-6.5c8.2,5,27.8,24.5,38.9,46.8
				c7.3,14.5,11,30.5,6.1,44.8L411.9,956.7z"/>
			<path class="st6" d="M449,955.2c4.8-15,1.1-31.2-6.2-45.7c-11.2-22.5-32.9-43.7-41.8-47.9l5.7-4c9.9,4.7,31,24.4,43,48.5
				c8,16.1,12.1,34.2,6.6,51.4L449,955.2z"/>
			<path class="st6" d="M230.3,801.9c1.4,11.7-7.1,22.2-18.8,23.5s-22.2-7.1-23.5-18.8c-1.4-11.7,7.1-22.2,18.8-23.5
				C218.5,781.9,229,790.2,230.3,801.9z"/>
			<path class="st0" d="M225.3,802.5c-1-8.9-9-15.3-17.9-14.2c-8.9,1-15.3,9-14.2,17.9c1,8.9,9,15.3,17.9,14.2
				C219.9,819.3,226.3,811.4,225.3,802.5z"/>
			<path class="st6" d="M219.2,812.3c-4.4,5.5-12.4,6.4-17.9,2c-5.5-4.4-6.4-12.4-2-17.9s12.4-6.4,17.9-2S223.5,806.7,219.2,812.3z"
				/>
			<path class="st0" d="M217.1,810.6c3.5-4.5,2.8-10.8-1.6-14.3c-4.5-3.5-10.8-2.8-14.3,1.6c-3.5,4.5-2.8,10.8,1.6,14.3
				C207.3,815.7,213.7,815.1,217.1,810.6z"/>
			<path class="st6" d="M217.1,810.6c0.4-0.5,0.8-1.1,1.1-1.6l-15.7-12.5c-0.5,0.4-1,0.9-1.4,1.5s-0.8,1.1-1.1,1.6l15.7,12.5
				C216.3,811.7,216.8,811.2,217.1,810.6z"/>
			<path class="st6" d="M353,849.1c-0.7,12.1-9.1,21.1-18.8,20c-9.7-1.1-16.9-11.8-16.3-23.9s9.1-21.1,18.8-20
				C346.4,826.3,353.7,837,353,849.1z"/>
			<path class="st0" d="M348.8,848.7c0.6-9.3-5-17.4-12.4-18.2c-7.4-0.9-13.8,6-14.3,15.3c-0.6,9.3,5,17.4,12.4,18.2
				C341.9,864.7,348.2,858,348.8,848.7z"/>
			<path class="st6" d="M339.6,857.4c-4.4,4.6-11,4-14.8-1.6c-3.8-5.6-3.3-13.9,1.1-18.6c4.4-4.6,11-4,14.8,1.6
				C344.6,844.3,344.1,852.6,339.6,857.4z"/>
			<path class="st0" d="M338.3,855.3c3.5-3.8,3.9-10.5,0.9-14.9c-3-4.5-8.3-5-11.9-1.4c-3.5,3.8-3.9,10.5-0.9,14.9
				C329.5,858.4,334.8,859.1,338.3,855.3z"/>
			<path class="st6" d="M338.3,855.3c0.4-0.5,0.8-1,1.2-1.5l-10.8-16c-0.5,0.3-1,0.7-1.4,1.2c-0.4,0.5-0.8,1-1.2,1.5l10.8,16
				C337.4,856.2,337.9,855.8,338.3,855.3z"/>
			<path class="st7" d="M73.1,836h22.4c1-4.7,2.4-9.1,4.5-12.9c6.2-12.1,16.9-19.3,28.3-22.9c9.4-3,19.4-3.7,27.6-2.7
				c-0.5-0.5-1-0.9-1.5-1.3c-1.7-0.1-3.4-0.2-5-0.3c-22.9-0.9-41.6,4.2-54.9,12.7C82.9,815.8,75.6,825.5,73.1,836z"/>
			<path class="st8" d="M406.8,944.4c-2.8-19.6-20.6-43.5-44-65c-6.8,5-13,11-18.6,17.6c-0.2,0.2-0.3,0.4-0.5,0.5
				c22.1,33.8,44.1,49.9,63.2,56.5c0-0.1,0-0.3,0-0.5C407.4,950.9,407.3,947.9,406.8,944.4z"/>
			<path class="st8" d="M443.7,936.1c-2-24.2-23.3-55.8-45.1-72.6c-7.2,1.3-14,3.6-20.6,6.8c9.5,7.6,25.5,24.7,35.1,44.1
				c6.7,13.4,10.4,27.9,7.1,41.3c-0.1,0.5-0.3,1-0.4,1.5c8.7,1.3,16.7,0.7,23.3-0.8c0.3-1.3,0.5-2.7,0.7-4.2
				C444.2,947.8,444.3,942.6,443.7,936.1z"/>
			<path class="st8" d="M464,925.6c-1.5-25.1-19.4-41.5-42-62.2c-2.5-0.4-5-0.7-7.6-0.9c10.8,8.4,25.9,24.6,35.2,43.5
				c6.1,12.3,10,25.8,9,39.1c-0.1,1.6-0.3,3.2-0.6,4.8c1.3-1,2.4-1.9,3.6-3.1c0.6-1.7,1.1-3.7,1.5-5.8
				C463.9,936.8,464.4,931.6,464,925.6z"/>
			<path class="st8" d="M340.5,786.7c5.3,0.4,8.6,5.4,10.7,10.7c-3.4-13.7-11.7-47.4-19.5-74.9c-3.4-0.2-5.9,0.4-8.9-0.4
				C329.5,745.2,337,773.2,340.5,786.7z"/>
			<path class="st8" d="M201.5,751.7c-3.8-12.7-9-30.5-16.4-55.5c-0.3,0-0.5,0-0.8,0c-2.4,0-4.7-0.2-7-0.5c8,27.2,13.6,46,17.4,59
				C196.9,753.4,199.1,752.4,201.5,751.7z"/>
			<path class="st9" d="M194.2,779.5c1.5-4,3.2-7.1,5.1-9.4c5.1-6.1,11.8-7.1,18.4-3.7c3.4,1.7,6.8,4.6,9.9,8.5
				c0.5,0.6,0.9,1.2,1.4,1.7c-0.5-1-1.1-1.8-1.5-2.7c-3.3-5.4-7-9.5-10.8-12.2c-6.8-4.8-13.9-5.1-19.7,0.2c-2,1.9-4,4.6-5.5,8.1
				c-1,2.1-1.8,4.6-2.6,7.4c-2.5,9.3-2.5,9.3-2.5,9.3s-13.1-0.3-22.3-1.3c-4-0.4-8.5-0.9-13.5-1.3c2.9,1.6,5.7,3.5,8.3,5.5
				c0.6,0.5,1.2,1,1.7,1.5c2.6,0.3,5,0.5,7.4,0.8c9.1,1,22.3,1.3,22.3,1.3s0,0,2.5-9.3C193.2,782.2,193.7,780.9,194.2,779.5z"/>
			<path class="st9" d="M418.5,855.2c-17-15.5-34-28.6-42.8-35.1c0,0-0.9-19.9-5.6-26.9c-1.1-1.5-1.9-2.5-2.7-3.1
				c-0.6-0.4-1.1-0.6-1.5-0.6c5.8,32.6,5.8,32.6,5.8,32.6l2.6,2.2l35,30.4C412.4,854.8,415.5,855,418.5,855.2z"/>
			<path class="st6" d="M-48.5,837.3h352.2c2.7,0,4.8,2.2,4.8,4.8l0,0c0,2.7-2.2,4.8-4.8,4.8H-48.5c-2.7,0-4.8-2.2-4.8-4.8l0,0
				C-53.3,839.5-51.1,837.3-48.5,837.3z"/>
			<path class="st6" d="M432.4,837.3h61.4c2.7,0,4.8,2.2,4.8,4.8l0,0c0,2.7-2.2,4.8-4.8,4.8h-61.4c-2.7,0-4.8-2.2-4.8-4.8l0,0
				C427.6,839.5,429.7,837.3,432.4,837.3z"/>
			<path class="st6" d="M186.3,650.3c18.8,1.1,33.3,12.4,32.6,25.2c-0.8,12.8-16.6,22.4-35.3,21.2c-18.8-1.1-33.3-12.4-32.6-25.2
				C151.7,658.7,167.5,649.2,186.3,650.3z"/>
			<path class="st6" d="M185.8,657.9c14.5,0.9,26,8.5,25.5,17.1s-12.7,14.9-27.2,14c-14.5-0.9-26-8.5-25.5-17.1
				C159,663.3,171.2,657,185.8,657.9z"/>
			<path class="st6" d="M179.9,527.8c2.2,0.1,4.5,0.4,6.6,0.8c16.9,3.2,31.2,14.2,41.3,27.9c11,15.2,17.2,33.9,18.1,52.6
				c0.7,15.3-2,30.9-9.2,44.5c-6.4,12.1-16.2,22.3-29,27.5c-7,2.9-14.4,4.1-21.9,3.7c-2.2-0.1-4.5-0.4-6.6-0.8
				c-16.9-3.2-31.2-14.2-41.3-27.9c-11-15.2-17.2-33.9-18.1-52.6c-0.7-15.3,2-30.9,9.2-44.5c6.4-12.1,16.2-22.3,29-27.5
				C164.9,528.5,172.4,527.3,179.9,527.8z"/>
			<path class="st10" d="M179.5,535.3c-30.6-1.7-53.8,28.5-52,67.7c1.8,39.1,28.1,72.3,58.7,74.1s53.8-28.5,52-67.7
				C236.3,570.3,210.1,537.2,179.5,535.3z"/>
			<path class="st0" d="M247,319.2c-73.3-4.3-113,58.8-125.3,144.6c20.2,9.8,15.3,10.1,15.3,10.1l30.3-30.6l73.2,10.7
				c0,0,20.7,43.3,34.4,44.1c13.7,0.8,92.2-6.5,117.6-26.6c0.1-0.1,0.2-0.2,0.3-0.3C378.2,388.2,320.3,323.5,247,319.2z"/>
			<path class="st6" d="M354.8,484.2c-3.8-3.2-7.4-6.5-10.8-9.7c-13.7-12.8-26.6-27.6-36.1-43.8c-9.6-16.3,35.7-16.5,37.6-35.6
				c0-0.2,0.4-6.9,0.5-7.1c2.4-12.9-50.9-40.8-38.8-47.3c-9.4-4.1,15.1-7.1,49.7,8.1c51.1,22.6,131.6,110.1,138.6,167.2
				c-0.4,18.8-28.9,31.4-44,37.5c-22.4,8.9-48.9,13.6-72.8,15.4c-13,1-26,1.3-39,0.5c-7.6-0.5-15.7-0.8-23.2,0
				c-0.7,0.1-1.7,0.2-2.9,0.4c0.6,0.5,1.2,0.8,1.5,1.1c3.3,1.9,4.6,5.9,3.2,9.4c-1.5,3.5-5.1,5.4-8.8,4.6c-5-1.2-10.9-4.1-15.1-7.1
				c-10.1-7-16.1-17.1-17-29.3c-0.8-9.8,6.8-18.5,13.5-24.7c8.2-7.6,18.3-14.2,27.9-20c10.5-6.3,21.4-12.1,32.3-17.5
				C352.2,485.4,353.5,484.8,354.8,484.2z"/>
			<path class="st0" d="M306.4,379.3c3.1-17,0.4-28.9,12.3-31.2c17.9-3.6,55,11.6,83.1,41.1c46.8,49.1,84.7,100.9,84.1,130
				c-0.6,29-79.4,48.2-140.7,44.6s-29,15.6-29,15.6s-24.5-5.7-26.3-29.5c-1.8-23.8,84.5-62,84.5-62S301,435.1,306.4,379.3z"/>
			<path class="st11" d="M362,359c13.5,7.1,27.5,17.2,39.9,30.2c40.5,42.4,74.3,87,82.3,117c-7.7,1.3-12.8,1.9-12.8,1.9
				s0,0-19.2-38.3C434.5,434.2,390.1,377.5,362,359z"/>
			<path class="st12" d="M329.6,347.9c8.4,1,18.6,4.2,29.3,9.5c-15.5,16.2-23.1,43-1.7,70.9s-7.8,22-20.9,23.6
				c-7.3-8.6-14.3-18.4-19.8-28.9C317.8,398.5,322.1,364.2,329.6,347.9z"/>
			<path class="st6" d="M152.2,637.7c-8.7-7.6-16.7-15.9-23.7-24.9c3.1,20.2,12.7,38.2,25.7,49.9c1.9,1.7,3.9,3.3,5.9,4.7
				c0.9,0.6,1.7,1.2,2.6,1.7c2.9,1.8,5.8,3.4,8.9,4.6c4.7,1.8,9.6,3,14.6,3.3c0.1,0,0.2,0,0.3,0c-6.2-3-11.9-7.3-17-12.5
				c-1-1-1.8-2-2.8-3c-1.6-1.8-3.2-3.9-4.6-5.9c-1.4-1.9-2.6-3.9-3.9-6C155.8,645.9,153.8,641.8,152.2,637.7z"/>
			<path class="st6" d="M253.9,675.2c-38.2,0.3-66.2-11-92.7-38.9c34.8,21.6,50.2,32.4,92.7,30.3c2.4,0,4.3,1.9,4.3,4.3
				C258.2,673.3,256.3,675.2,253.9,675.2z"/>
			<path class="st6" d="M363.9,710.8c-0.4,3.1-1.4,6.1-3.7,7.6c-9.2,5.5-19.5,8.7-30.1,9.8c-11.4,1.2-26.7,1.6-38.2,0.7
				c-4.4-0.4-9.2-0.9-13.6-1.8l-1.9-0.4l-44.8-60.4l4.1,52.4c-9.5,1.4-23.9,5.1-33.4,3.9l-1.7-3.5c-0.7-1.4-1.2-2.6-1.5-4
				c-0.5,1-0.9,1.9-1.2,2.9l-1,3.6l-3.7,0.5c-17.1,2.1-40.7,1.8-57.2-3.5l-3.2-1l-0.6-3.3c-9.3-53.8-15.8-109.1-25.1-163l-1.8-10.7
				l9.8,4.9c47.3,24.1,101.9,39.3,154.9,29.3c13.8-2.6,27.7-7,40.4-13.4c4.4-2.2,9.9-5.2,13.8-8.3l5.8-4.6l19.5,49l30.9,105.1
				l-1.6,2.1c-1.3,1.5-6.2,4.4-7.6,5.7c-0.7,0.7-1.5,1.2-2.5,1.4C366.8,712.1,365.2,711.6,363.9,710.8z"/>
			<path class="st13" d="M112.7,550.4c9.3,53.8,18.6,107.8,27.9,161.6c13.2,4.3,32,6.5,50.9,4.1c1.6-6.4,7-11.1,8.7-17.5
				c2.9,5.7,1.3,11.8,4.2,17.5c8.2-1.2,17.3-0.9,25.5-2l-5-65l58.3,72.5c0,0,18.5,4.1,46.5,1.2c11.9-1.3,21.1-5,27.8-9.1
				c1.9-1.2,1.1-17.4,2.8-17.9c1.2-0.3,5.8,11.6,7.2,10.5c2.4-2.2,3.7-3.8,3.7-3.8l-26.7-103.3l-16.6-41.7
				C327.6,557.3,249.4,620,112.7,550.4z"/>
			<path class="st14" d="M118.1,581.3l4.8,28.3c42.6,25.6,70.1,25.2,74.7,31.4c4.6,6.4,22.1,31.1,16.3,30.8
				c-5.8-0.3-54.2-18-57.1-18s34.3,22.9,48.1,28.8c13.9,5.8,9.3,12.8,10.2,16.3c0.9,3.5,1.7,15.7,1.7,15.7l0.2,0.6
				c4.4-0.2,8.8-0.5,13-1.1l-5-65l1,1.2l-3.3-9.8l60.3-6.4c0,0,29.6,45.8,49.9,66.1c5.2,5.2,10.9,11.3,16.6,17.5
				c3-1.3,5.7-2.6,8-4.1c1.9-1.2,1.1-17.4,2.8-17.9c1.2-0.3,5.8,11.6,7.2,10.5c2.4-2.2,3.7-3.8,3.7-3.8L344.3,599l-16.6-41.7
				c0,0-64.5,51.6-178.7,9.1C135.3,571,124.6,575.9,118.1,581.3z"/>
			<path class="st6" d="M226,665.7c-5.7-14.1-8.2-39.2-6.7-39.4c1.5-0.3,10.4,36.5,10.7,38.6C235.2,689.8,231.9,680,226,665.7z"/>
			<path class="st6" d="M222.7,654.9c-4.9-4.6-10.5-8.5-15.9-19.1c0.1,0.1,14.2,11.9,18.8,16c1.3,1.3,7.1,5.7,4.2,7.4
				C227.6,661.2,225.3,657.4,222.7,654.9z"/>
			<path class="st6" d="M141.1,372.2c5.5-8.2,10.6-17,15.9-25.5c4.8-7.6,10.2-15.8,16.2-22.6c4.7-5.4,11.8-12.1,19.6-10.8
				c5.9,0.8,6.3,5.2,5.3,9.1c-0.2,0.8-0.4,1.5-0.6,2.3c-0.6,2.3-1.3,4.6-1.8,7c-0.7,2.5-1.3,5-1.8,7.6c-1.9,9.9-4.5,19.3-4.7,29.4
				c-0.8,24.5,12.9,33.5,36.8,34.9c5.9,0.3,11.7-0.4,17.4-1.9c20.3-5.7,38.3-22.4,53-37c9.1-9,18.4-17.9,27.9-26.6l2.8-2.5l27.4,8.3
				c6.9,2.1,7,10.9,0.8,14.1c-12.2,6.3-19.1,25.8-21.8,38.2c-2.6,11.7-4,27.9-0.6,39.5c1,3.4,2.3,6.5,4.1,9.5c1.5,2.7,3.2,5.2,4.4,8
				c1.9,4.5,2.3,8.8,1.7,13.7l-8.6,70.3l27.7,52.5l-5.2,3.2c-1.9,1.3-3.9,2.9-5.7,4.4c-2.6,2.1-5.2,4.4-7.8,6.5
				c-4.6,3.7-10.3,8.1-15.8,10.3c-64.8,24.9-163,23.3-221.9-18c-16.2-11.3-9.2-11.8-4-25.6c0.3-0.9,1-2.5,1.1-3.4
				c1.6-26,1.9-51.9,5.3-77.9c3.7-28.3,7.1-56.8,16.1-84c1.3-3.9,1.8-7.8,2.3-11.9c0.5-4.1,1-8.3,2.5-12.2c1.5-3.8,5.4-5.7,8.9-7.3
				C138.6,373.3,140.2,372.7,141.1,372.2z"/>
			<path class="st13" d="M146.2,376.4c-1.5,2.1-10.3,4.3-11.4,7.2c-2.4,6-1.5,14-4.7,23.6c-8.1,24.5-11.8,50.1-15.6,79.2
				c-3.5,26.8-4.4,58.9-5.8,82.6c-0.2,3.4-2.9,7.6-3,10.8c-0.4,7.1-2.6,6.1,2.6,9.9c56.5,40.4,153,42.4,216.7,17.9
				c8.7-3.4,21.6-16.4,28.3-20.5l-25.8-48.9l8.9-72.3c1.5-12.2-5.5-13.8-9.9-28.6c-7.1-24.1,2.6-73.6,25.7-85.4
				c1.1-0.6,1.4-1.6,0.4-1.9l-23.8-7.3c0,0-14.2,13.1-27.7,26.4c-19.9,19.9-45.1,42.5-75.4,40.8c-57.3-3.3-42.2-51-38.2-72.1
				c1.1-5.4,4.6-18.1,4.6-18.1C179.3,317.7,158.2,358.6,146.2,376.4z"/>
			<path class="st14" d="M183.9,619.5c47.9,8.5,101,3.7,141-11.8c8.7-3.4,21.6-16.4,28.3-20.5l-25.8-48.9l8.9-72.3
				c1.5-12.2-5.5-13.8-9.9-28.6c-1.1-3.8-1.7-8-2.1-12.8c-3.5-1.1-5.4-1.6-5.4-1.6c-16.3,69.6-40.1,85.6-49.6,91.1
				c-9.6,5.5-54.5,7-84.7,0c-30.2-7-60.3-17.7-60.3-17.7s33.4,30.8,65.8,34.3c32.5,3.5,83.6-4.4,82.4,6.1
				c-1.2,10.5-18.6,16.3-36,27.9c-17.4,11.6,24.4,1.2,40.7-7c16.3-8.1-4.1,62.2-49.9,61.5C181.3,618.3,198.5,619,183.9,619.5z"/>
			<path class="st15" d="M225.5,409.9c-28.6-1.6-39.1-14.2-42-29.1c-0.4-1.7-0.6-3.6-0.8-5.3c-1.2-13.7,2.8-28.3,4.6-37.6
				c0.2-1.3,0.6-2.8,1.1-4.6c0.5-1.9,1-4,1.5-5.9c0.1-0.4,0.2-0.8,0.3-1.2c-0.2,0.3-0.4,0.7-0.7,1c-1.8,2.8-3.5,5.7-4.9,8.6
				c-6.7,13.3-9.7,27.8-9.3,42.2c0.1,2.2,0.2,4.5,0.4,6.8c1.9,18.8,18.4,27.4,33.4,30.7c23.8,5.3,51.9-4.4,71.8-20.2
				c9-7.2,18.4-15.3,26.9-23.7c4.1-4.1,8-8,12-11.9c2.6-2.5,5.1-5,7.6-7.5c1.4-1.3,2.7-2.5,4-3.8c1.3-1.2,2.5-2.3,3.8-3.5l-5.8-1.7
				l-0.7-0.2c0,0-2,1.8-5.3,4.9c-0.2,0.2-0.4,0.4-0.6,0.6c-2.1,2-4.8,4.5-7.7,7.3c-1.9,1.8-4.1,3.9-6.2,5.9c-0.7,0.7-1.4,1.3-2,1.9
				c-1.9,1.9-4,3.9-5.9,5.8C280.9,389,255.7,411.7,225.5,409.9z"/>
			<path class="st15" d="M324.2,413.2c0.8-13.8,4.3-29.1,10.3-41.3c1.5-3.1,3.2-5.9,5-8.5c2.9-4.2,6.3-7.6,10-10.1
				c0.8-0.5,1.5-1,2.4-1.5c1.1-0.6,1.4-1.6,0.4-1.9l-7.9-2.4c-1.1,0.9-2.1,1.8-3.2,2.9c-2.3,2.3-4.6,5-6.6,8
				c-1.9,2.7-3.7,5.7-5.4,8.9c-4.6,8.6-8.4,18.6-10.9,29c-1.7,7.2-2.8,14.1-2.9,20.9c0,1.3,0,2.6,0,3.9c0.3,12.8,3.7,24.4,10.5,34.5
				c0.2,0.3,0.5,0.7,0.7,1c3.6,5.1,6.7,9.3,9.4,12.5l0.3-2.1l0.1-1c1.4-11.1-4.4-13.4-8.7-25c-0.4-1.2-0.9-2.3-1.3-3.7
				C324.4,430.7,323.8,422.2,324.2,413.2z"/>
			<g>
				<path class="st6" d="M408.8,142.9c-45.3,62.3-104.3,130.6-114.9,199.5c-4.3,27.6-59.6,17.4-77.9,4.7
					c-37.2-25.6,54.4-129.1,109.6-175.7c15.7-13.3,30.2-20.5,35.8-21.7C382.6,145.3,408,146.4,408.8,142.9z"/>
				<path class="st6" d="M394,152.3c-8,0.7-16,1.3-23.9,2.4c-2.5,0.4-4.9,0.8-7.5,1.4c-3.6,0.8-9.1,3.8-12.2,5.6
					c-7.4,4.2-14.3,9.3-20.8,14.7c-20.3,17.1-39.9,36.6-57.5,56.5c-9.2,10.4-18.1,21-26.4,32.1c-7.4,9.8-14.4,20-20.4,30.8
					c-5.3,9.6-16.1,31.1-9.6,42.1c1,1.6,2.3,3,3.9,4.1c7.9,5.4,21.1,9.1,30.6,10.6c10.2,1.6,35.2,3.5,37.6-11
					c4-25.4,14-49.8,26.1-72.2c13-24.2,28.8-47.2,44.9-69.3C370.1,183.8,382.1,168.1,394,152.3z"/>
				<path class="st0" d="M318,186.3c5.5,1.5,12.5,3.8,19.5,7.1c6.1,2.9,12.3,6.6,17.5,11.1c-1,1.4-2,2.8-3,4.2
					c-4.9-4.4-10.8-7.9-16.8-10.7c-8.2-4-16.4-6.4-21.9-7.6C315,189,316.6,187.7,318,186.3L318,186.3z M296,207.3
					c-1.5,1.5-3,3-4.5,4.5c6.6,0.7,13.6,2.8,20.4,6.1c7.7,3.8,15.5,9.1,22.7,16.1c1-1.5,1.9-2.9,2.8-4.3c-7.4-7-15.3-12.5-23.3-16.4
					C308.1,210.4,302,208.4,296,207.3L296,207.3z M270.4,234.6c-1.3,1.5-2.5,2.9-3.8,4.4c9.6,2.2,18.8,5.2,27.5,9.2
					c8.2,3.7,16,8.2,23.4,13.8c0.9-1.5,1.6-3,2.5-4.5c-7.6-5.6-15.6-10.3-23.9-14C287.9,239.7,279.3,236.8,270.4,234.6L270.4,234.6z
					 M247.4,262.3c-0.7,0.9-1.3,1.6-1.9,2.5c-0.4,0.5-0.8,1-1.1,1.5c4.6,2.6,11.4,5.7,19,8.8c13.7,5.6,29.9,11.3,40,14.6
					c0.7-1.5,1.4-3.1,2.1-4.6c-9.9-3.1-26.3-9-40.2-14.6C258.1,267.5,251.7,264.6,247.4,262.3L247.4,262.3z M228.9,289.4
					c5.6,5.2,16.1,10.3,27.7,14.2c13.7,4.6,28.7,7.6,38.6,7.3c-0.6,1.6-1.1,3.4-1.6,5c-10.7-0.1-25.4-3-38.6-7.5
					c-11.5-3.9-22.1-9-28.6-14.6C227.1,292.3,228,290.8,228.9,289.4z"/>
				<g>
					<path class="st6" d="M220.5,308.4c-1.1,2-0.5,5.9,0.1,8c1.7,2.5,9.3,5.9,11.9,6.9c8.4,3.3,17.8,5,26.8,5.5
						c4.1,0.2,8.2,0.1,12.3-0.3c5.3-0.5,18.6-2.5,21.2-7.9c0.2-0.5,0.4-1,0.5-1.5c0.3-1.5,0.4-2.9,0.5-4.4c0-0.8,0.1-1.5,0.2-2.3
						c0.5-4,3.2-7.2,7.6-7.5c7.2-0.4,13.9,1.8,19.1,6.7c6.1,5.7,8.7,14,7.8,22.2c-1.1,9.4-6.5,17.4-14.1,23
						c-14.8,10.7-35.1,14.8-53.2,15c-15,0.2-31.2-2.1-45.1-7.7c-11.8-4.7-24.2-12.9-27.9-25.6c-1-3.3-1.3-6.7-1-10
						c1.5-16.9,6.8-29.1,25.8-32c3.2-0.5,7.8-0.8,9.5,1.9C223.9,301.3,222.2,305.9,220.5,308.4L220.5,308.4z"/>
					<path class="st0" d="M213.9,304.4c-15,2.2-17.9,11.6-19.2,25.1C191.7,363,273.6,377,309.5,351c19.6-14.1,11.3-39.3-7.6-38.2
						c-0.7,0,0.1,6.8-2,11.1c-5.1,10.7-25.7,13.3-41,12.6c-23.7-1.1-44-10.9-45.8-17.7C210.5,309.1,213.9,304.4,213.9,304.4z"/>
					<path class="st6" d="M206.4,327.6c2.8,0.1,4.9,2.4,4.8,5.1s-2.4,4.8-5.2,4.7s-4.9-2.4-4.8-5.1
						C201.3,329.6,203.6,327.5,206.4,327.6L206.4,327.6z M307.5,332.7c2.8,0.1,4.9,2.4,4.8,5.1s-2.4,4.8-5.2,4.7s-4.9-2.4-4.8-5.1
						C302.4,334.8,304.7,332.6,307.5,332.7L307.5,332.7z M289.6,342.6c2.8,0.1,4.9,2.4,4.8,5.1c-0.1,2.7-2.4,4.8-5.2,4.7
						s-4.9-2.4-4.8-5.1C284.4,344.6,286.8,342.5,289.6,342.6L289.6,342.6z M267.7,346.9c2.8,0.1,4.9,2.4,4.8,5.1s-2.4,4.8-5.2,4.7
						c-2.8-0.1-4.9-2.4-4.8-5.1S264.9,346.8,267.7,346.9L267.7,346.9z M244.2,344.9c2.8,0.1,4.9,2.4,4.8,5.1
						c-0.1,2.7-2.4,4.8-5.2,4.7s-4.9-2.4-4.8-5.1C239,347,241.3,344.9,244.2,344.9L244.2,344.9z M223,338.2c2.8,0.1,4.9,2.4,4.8,5.1
						c-0.1,2.7-2.4,4.8-5.2,4.7s-4.9-2.4-4.8-5.1C217.9,340.2,220.2,338.1,223,338.2z"/>
					<path class="st9" d="M212.7,312.9c-2.9,23.9,63.7,31.7,84.1,17.9l1.9-1.3c-9.7,20.4-97.2,19.6-94.4-18c0.4-2.2,2.6-3.8,4.9-3.4
						C211.5,308.4,213.1,310.6,212.7,312.9z"/>
				</g>
			</g>
			<g>
				<path class="st6" d="M324.2,0.1c52-2.7,96.4,37.2,99.2,89.2c2.7,52-37.2,96.4-89.2,99.2c-52,2.7-96.4-37.2-99.2-89.2
					C232.2,47.4,272.1,2.9,324.2,0.1z"/>
				<path class="st10" d="M324.6,7.8c-47.8,2.5-84.5,43.4-82,91.1c2.5,47.8,43.4,84.5,91.1,82c47.8-2.5,84.5-43.4,82-91.1
					C413.2,42,372.5,5.3,324.6,7.8z"/>
				<path class="st0" d="M324.6,7.8c-41.4,2.2-74.6,33.1-81,72.5c8.3,41.5,46.1,71.7,89.6,69.4c41.4-2.2,74.6-33.1,81-72.5
					C405.9,35.7,368.1,5.5,324.6,7.8z"/>
				<path class="st6" d="M255.6,42c-12.8,16-16.3,45.1-15.6,57.1c0.7,12,3,3.8,3.2,5.6c18-19.8,24.1-14.3,33.2-9.6
					c9.4,4.9,12,22.6,36.9,25c25,2.4,55.7-38,36.9-56.9c-14.8-14.9-54.3-25.9-83.6-23.4C264.9,39.9,257.2,41.8,255.6,42z"/>
				<path class="st0" d="M327.8,73.5c-7.7,0.4-13.7,7-13.3,14.7s7,13.7,14.7,13.3c7.7-0.4,13.7-7,13.3-14.7
					C342.1,79,335.6,73.1,327.8,73.5z"/>
				<path class="st6" d="M330,133.4c2.5,0.6,8.7,0.4,11.3,0.4c7.1,0.1,19.2-0.3,22,7.9c0.7,1.9,0.6,4.1-0.1,6
					c-2.9,8.3-15.7,15.5-23,19.5c-12.4,6.7-25.8,12.3-38.8,17.5c-8.7,3.5-17.5,6.7-26.4,9.8c-21.6,7.6-42.7,14.4-65.9,12.1
					c-6.7-0.7-14.3-2.7-17.1-9.7c-2.5-6.2,0.5-12.5,4.1-17.5c4.3-5.9,10.1-11.5,15.5-16.5c10-9.2,25.1-23.5,30.4-36.4
					c3.1-7.5,7.1-15.5,12.4-21.6c4.6-5.2,10.6-9.7,17.8-9.2c11.8,0.7,18.1,13.3,21.5,22.9C298.1,131.7,319.2,128.3,330,133.4z"/>
				<path class="st7" d="M286.4,121.3c6.4,18.5,30.9,14.3,40.7,19.1c4.7,2.3,31.1-1.2,29,4.8c-3.9,11.2-49.5,30.2-83.6,42.1
					c-20.4,7.1-40.7,13.8-62.6,11.7c-18.3-1.8-12.8-12.4,6.8-30.4c20-18.4,28.5-29.8,32.3-39.1C260.9,100.5,276.4,92.7,286.4,121.3z
					"/>
				<path class="st6" d="M332.3,141.1c-0.7,4.1-4.4,7.5-7.5,10c-5.1,4.2-11.1,7.9-16.8,11.3c-16.8,10.2-35,19.4-52.9,27.2
					c-18.5,8-41.2,16.8-61.2,19.2c-9.4,1.2-27.6,3.2-32.1-8c-3.3-8.4,4.1-17.2,9.4-22.9c7-7.5,14.9-14.4,22.6-21.3
					c1.7-1.5,3.5-3.2,5.2-4.7c8.7-7.9,32.8-29.9,37.2-40.5c2.8-6.9,6.7-14,12-19.3c4.6-4.6,10.5-7.7,17.1-7.5
					c3.4,0.2,6.6,1.2,9.5,2.9c5.3,3.2,10,7,14.6,11.2c3.4,3.1,6.7,6.4,10.4,9.1c4.2,3,8.2,4.7,13.3,5.4c8.3,1.1,17.9-0.6,26-2.5
					c5.3-1.3,12.4-2.2,15.2,4.1c2.4,5.4-1.4,9.8-5.1,13.1c-2.7,2.4-5.7,4.6-8.6,6.8c-2.1,1.5-4.3,3.2-6.3,4.8
					C333.7,140,333,140.5,332.3,141.1z"/>
				<path class="st8" d="M322.6,143c-13.6,13.2-87.4,53.2-129.6,58.3c-47.6,5.8-15.1-19.7,11.1-43.8c20-18.4,35.2-34,39.1-43.2
					c7.7-19,18.5-25.8,27.7-20.1c23.6,14.2,24,35.1,69.8,24.1C359.6,113.6,328,137.6,322.6,143z"/>
				<path class="st6" d="M346.8,108.6c12.4-0.7,23,8.9,23.7,21.3s-8.9,23-21.3,23.7s-23-8.9-23.7-21.3
					C324.8,119.8,334.3,109.3,346.8,108.6z"/>
				<g>
					<path class="st0" d="M347.1,113.9c-9.5,0.5-16.8,8.6-16.3,18c0.5,9.5,8.6,16.8,18,16.3c9.5-0.5,16.8-8.6,16.3-18
						C364.6,120.7,356.5,113.4,347.1,113.9z"/>
					<path class="st6" d="M357,121.1c5.5,5,6,13.6,1,19.1s-13.6,6-19.1,1c-5.5-5-6-13.6-1-19.1C342.9,116.5,351.4,116,357,121.1z"/>
					<path class="st0" d="M355.2,123c-4.5-4-11.3-3.7-15.3,0.8c-4,4.5-3.7,11.3,0.8,15.3c4.5,4,11.3,3.7,15.3-0.8
						C360,133.9,359.7,127.1,355.2,123z"/>
					<path class="st6" d="M355.2,123c-0.6-0.5-1.1-0.9-1.7-1.3l-14.1,15.8c0.4,0.6,0.9,1.1,1.5,1.5s1.1,0.9,1.7,1.3l14.2-15.8
						C356.2,124.1,355.7,123.5,355.2,123z"/>
				</g>
				<path class="st6" d="M333.8,78.1c-3.4,0.2-5.9,3-5.7,6.4c0.2,3.4,3,5.9,6.4,5.7c3.4-0.2,5.9-3,5.7-6.4
					C340,80.5,337.2,77.9,333.8,78.1z"/>
				<path class="st0" d="M256.5,68.7c-3.1-0.8-6.9,3.3-8.4,9.2c-1.5,5.9-0.3,11.3,2.8,12.1c3.1,0.8,6.9-3.3,8.4-9.2
					C260.9,74.9,259.6,69.5,256.5,68.7z"/>
				<path class="st6" d="M257.9,72.9c-1.4-0.4-3,1.5-3.6,4c-0.7,2.5-0.1,4.9,1.3,5.2c1.4,0.4,3-1.5,3.6-4
					C259.8,75.7,259.3,73.3,257.9,72.9z"/>
				<path class="st9" d="M392.7,86.7c-2.1-37.3-25.2-60.2-60.3-70c-20.3-5.7,4.9,2.1-16.2-4.6c11.4-2.4,13.8-2.7,25.7-0.5
					c39,7.3,63,35.6,68,74.4c0.2,4.7-3.5,8.7-8.2,9C397,95.1,393,91.4,392.7,86.7z"/>
				<path class="st15" d="M265.7,108.3c-11.7,25.9-18.7,29-40.4,46.3c-14.7,11.7-29.9,24.7-46.4,33.7c10-16.5,24.8-29.3,38.3-42.8
					c17.4-17.1,23.8-19.9,32.1-43c1.5-4.5,6.5-6.8,10.9-5.2C264.9,98.9,267.3,103.7,265.7,108.3z"/>
			</g>
			<path class="st15" d="M328.9,613.2c22.6,82.6,22.6,82.6,22.6,82.6l-1,9.6l-0.2,1.5c0,0-2.4,1.1-6.9,2.4c-5.2,1.5-13.2,3.5-23,4.4
				c-2.5,0.2-5,0.4-7.7,0.5c-4.2,0.1-8.7,0-13.4-0.3c-10.7-0.9-19.1-2.2-25.4-3.8l9.3,11.6c0,0,12.4,2.7,32.2,2.1
				c2.5-0.1,5.1-0.2,7.8-0.4h0.1c2-0.2,4.2-0.3,6.4-0.6c0.7-0.1,1.4-0.1,1.9-0.2c5.1-0.7,9.8-1.8,13.8-3.3c2.6-0.9,5-1.9,7.2-3
				c1.7-0.9,3.3-1.7,4.8-2.6c1.9-1.2,1.1-17.4,2.8-17.9c1.2-0.3,5.8,11.6,7.2,10.5c2.4-2.2,3.7-3.8,3.7-3.8l-6.9-12.3l-23.8-85.2
				C335.5,608.9,334.6,610.6,328.9,613.2z"/>
			<path class="st16" d="M328.9,613.2c22.6,82.6,22.6,82.6,22.6,82.6l-1,9.6l-0.2,1.5c0,0-2.4,1.1-6.9,2.4c-0.5,0.1-1,0.3-1.5,0.5
				c2.5,2.6,5,5.3,7.5,8.1c1.2-0.5,2.2-1,3.2-1.5c1.7-0.9,3.3-1.7,4.8-2.6c1.9-1.2,1.1-17.4,2.8-17.9c1.2-0.3,5.8,11.6,7.2,10.5
				c2.4-2.2,3.7-3.8,3.7-3.8l-6.9-12.3L340.3,605C335.5,608.9,334.6,610.6,328.9,613.2z"/>
			<path class="st15" d="M199.4,701.9c2.1,5.7,2,8.5,4.9,14.2c0.4-0.1,0.8-0.1,1.2-0.2c2.5-0.3,5.1-0.5,7.6-0.7
				c5.6-0.3,11.3-0.5,16.7-1.3l-1-12.4l-18.6,0.1c-3.5-5.7-5.9-8.4-11.4-15.5c-3.9,4.7-8,14.5-12,16.6c0,0-0.8,0.1-2,0.2
				c-1.7,0.2-9.9-0.5-13.4-0.4c-8.1,0.3-20.4,0.1-33-2.6c0.7,4.1,1.4,8,2.1,12.1c9.5,3.1,21.9,5,35.1,5c2.6,0,5.2-0.1,7.8-0.3
				c2.4-0.2,8.3-0.4,10.8-0.7c0.2,0,0.4,0,0.5-0.1C196.7,709.7,197.8,708.3,199.4,701.9z"/>
			<path class="st16" d="M216.8,715c4.4-0.2,8.8-0.5,13-1.1l-1-12.4l-13.5,0.1c0.7,4.9,1.3,12.8,1.3,12.8L216.8,715z"/>
			<path class="st6" d="M334.9,518.9c-4.6,19-11.2,37.7-16.2,57.1c0,0.1-0.1,0.2-0.1,0.3c-0.1,0.1-0.5,0.8-0.7,0.7
				c-0.2-0.1,0-0.9,0-1l0,0c-1.5-12.2,8.8-44.5,12-58.2c1-4.7,0.8-13.1,4.2-12.8C339.1,504.2,335.3,516.6,334.9,518.9z"/>
			<g>
				<g>
					<path class="st15" d="M187.7,466.6c2.4,6.9,4.9,13.7,7.5,20.4c6.3,2.3,12.6,4.5,18.9,6.6c-4.8,3.8-9.7,7.5-14.5,11.1
						c0.9,6.9,1.8,13.8,2.7,20.7c-5.4-4.5-10.9-9.1-16.4-13.8c-5.7,1.6-11.4,3.2-17.1,4.6c1.5-6.2,2.9-12.5,4.4-18.8
						c-4.5-6.2-8.9-12.5-13.3-18.9c6.3,1.5,12.7,2.8,19,4C181.8,477.3,184.7,472,187.7,466.6z"/>
					<path class="st15" d="M255.8,435.7c7.3,0.1,11.1,4.4,10.8,12.1c0,0.7-0.1,1.5-0.1,2.1c-0.1,2.5-0.7,4.9-1.9,6.9
						c1.2,2.1,1.5,4.9,1.4,7.6c-0.1,2-0.2,4.2-0.3,6.2c0,0.9-0.1,2,0.2,2.8c0.6,1.7,1.3,3.5,1.8,5.2c-22.8-0.8-47.4-2.6-70-7.9
						c-22.9-5.4-43.8-14.3-59.8-22.8c1.4-6.4,2.7-12.9,4.1-19.5c1.4-6.5,2.7-13.1,4.1-19.7c36.2,14.6,41.2,16.3,48.2,18
						C201.4,428.7,210.7,430.5,255.8,435.7z"/>
					<path class="st6" d="M142.1,446.7c1.5,0.9,3.2,1.7,4.7,2.5c0.4-2.1,0.8-4.3,1.2-6.5c1.9,1,3.9,1.8,5.8,2.7v-0.1
						c0.2,2.5,0.4,4.9,0.7,7.5c1.7,0.8,3.4,1.5,5.1,2.1c-0.7-6.2-1.4-12.5-1.9-18.8c-0.7-6.3-1.4-12.5-1.9-18.8
						c-2.3-1.1-4.6-2.1-7-3.3c-1.2,5.4-2.2,10.9-3.4,16.3C144.4,436,143.3,441.4,142.1,446.7L142.1,446.7z M148.9,438.3
						c1-5.4,1.9-10.9,2.9-16.4h0.1c0.5,6.2,1.1,12.3,1.5,18.5C152,439.7,150.4,439.1,148.9,438.3L148.9,438.3z M162.2,456
						c4.6,1.7,9.1,3.4,13.7,4.9c0.1-1.6,0.1-3.3,0.2-5c-2.8-1-5.7-1.9-8.5-2.9c0.2-5,0.4-10.1,0.6-15.1c0.2-5,0.4-10.1,0.6-15.1
						c-1.7-0.7-3.5-1.4-5.1-1.9c-0.2,5.9-0.5,11.7-0.7,17.6C162.7,444.3,162.5,450.2,162.2,456L162.2,456z M178.5,461.7
						c4.6,1.4,9.1,2.7,13.8,3.9c0.1-1.6,0.1-3.4,0.2-5c-2.8-0.8-5.7-1.5-8.5-2.3c0.2-5,0.4-10.1,0.6-15c0.2-5,0.4-10.1,0.6-15
						c-1.7-0.6-3.5-1.1-5.1-1.5c-0.2,5.8-0.5,11.7-0.7,17.5C179,450,178.7,455.9,178.5,461.7L178.5,461.7z M201.5,468.4
						c5.1,1.2,7.9-1.5,8.2-7.4c0.2-4.4-1.1-7.5-5.2-12.4c-3.3-4-4.3-6-4.2-8.6c0.1-2.4,1.1-3.2,2.7-2.8c1.6,0.4,2.6,1.5,2.5,4.1
						c0,0.6-0.1,1.2-0.1,1.8c1.6,0.3,3.3,0.7,4.9,1c0-0.5,0-1,0.1-1.5c0.2-5.6-2.1-9.3-7.3-10.4c-5-1.2-7.8,1.5-8.1,7
						c-0.2,4,1.2,7.3,5.3,12.3c3.3,4,4.3,6,4.2,8.9c-0.1,2.6-1.2,3.3-2.8,2.9c-1.6-0.4-2.7-1.5-2.5-4.1c0-0.8,0.1-1.6,0.1-2.4
						c-1.6-0.4-3.3-0.8-4.9-1.2c0,0.7-0.1,1.4-0.1,2C193.9,463.4,196.3,467.2,201.5,468.4L201.5,468.4z M216.4,470.8
						c1.7,0.3,3.5,0.5,5.2,0.8c0.2-5,0.4-10.1,0.6-15.1s0.4-10.1,0.6-15.1c1.8,0.3,3.7,0.5,5.4,0.8c0.1-1.6,0.1-3.4,0.2-5
						c-5.4-0.8-10.7-1.5-16.2-2.5c-0.1,1.6-0.1,3.4-0.2,5c1.8,0.3,3.6,0.7,5.4,1.1c-0.2,5-0.4,10.1-0.6,15.1
						C216.8,460.8,216.6,465.8,216.4,470.8L216.4,470.8z M226,472.3c1.2-5.7,2.2-11.5,3.4-17.2c1.2-5.8,2.2-11.5,3.4-17.3
						c2.3,0.3,4.7,0.5,7.1,0.8c0.7,6,1.4,11.9,2,17.9c0.7,5.9,1.4,11.9,2,17.8c-1.7-0.1-3.5-0.3-5.2-0.4c-0.2-2.3-0.5-4.7-0.7-7.1
						c0,0.1,0,0.1,0,0.1c-1.9-0.2-4-0.4-5.9-0.6c-0.4,2.2-0.9,4.6-1.3,6.8C229.2,472.7,227.6,472.5,226,472.3L226,472.3z
						 M232.9,461.3c1.5,0.2,3.1,0.3,4.7,0.5c-0.6-5.9-1.1-11.8-1.6-17.6h-0.1C234.9,449.9,233.9,455.6,232.9,461.3L232.9,461.3z
						 M246.5,474.3c1.7,0.1,3.5,0.2,5.2,0.3c0.2-5,0.4-10.1,0.6-15.1c0.6,0,1.2,0.1,1.8,0.1c2.4,0.1,3.3,1.2,3.1,4.5
						c-0.1,2.1-0.2,4.4-0.3,6.5c-0.1,2.9,0,3.4,0.3,4.4c1.7,0,3.6,0.1,5.3,0.1c-0.5-1.4-0.5-2.6-0.4-4.4c0.1-2,0.2-4.2,0.3-6.2
						c0.2-4-0.6-6.6-3.2-7.6v-0.1c2.4-1,3.6-3.3,3.7-6.9c0-0.8,0.1-1.5,0.1-2.1c0.2-5.4-2-8.1-7.5-8.2c-2.6-0.1-5.1-0.3-7.7-0.5
						c-0.2,5.9-0.5,11.8-0.7,17.6C246.9,462.5,246.7,468.4,246.5,474.3L246.5,474.3z M252.5,454.5c0.1-3.4,0.3-6.7,0.4-10.1
						c0.8,0,1.5,0.1,2.4,0.1c1.8,0.1,2.6,1.2,2.5,3.7c0,1-0.1,1.8-0.1,2.7c-0.1,2.8-1.4,3.7-3.3,3.7
						C253.7,454.6,253.1,454.5,252.5,454.5z"/>
				</g>
				<path class="st16" d="M201.2,516.8l1.2,8.6c-4.2-3.4-8.2-6.9-12.4-10.4C193.5,515.8,197.3,516.3,201.2,516.8L201.2,516.8z
					 M180.8,513c-4.1,1.2-8,2.2-12,3.2l1.4-5.9C173.7,511.3,177.2,512.2,180.8,513z"/>
				<path class="st12" d="M199.3,368.8c16.2,11.2,38.5,13.4,63.8,11.7c6.9-0.5,12.9-1.1,18.1-1.9c4.3-3.8,8.3-7.6,12.2-11.4
					c-10.6,3.3-21.9,4.7-32.4,4.9c-15,0.2-31.2-2.1-45.1-7.7c-2.3-1-4.6-2-7-3.2c-1.5-0.8-2.8-1.5-4.2-2.4
					c-4.9-3.1-9.4-6.9-12.7-11.5c-0.9,4.3-1.7,8.5-2.3,12.8c1.7,2,3.6,3.9,5.5,5.5C196.6,366.7,198,367.8,199.3,368.8z"/>
			</g>
			<polygon class="st6" points="425.3,467.1 548.4,493.3 464.2,586.8 477.3,711.9 362.4,660.8 247.4,711.9 260.5,586.8 176.4,493.3 
				299.4,467.1 362.4,358.1 			"/>
			<polygon class="st0" points="362.4,376.8 419.3,475.4 530.7,499 454.5,583.6 466.4,696.9 362.4,650.6 258.4,696.9 270.2,583.6 
				194.1,499 305.4,475.4 			"/>
			<polygon class="st10" points="414.7,481.7 517.1,503.5 447.1,581.2 458,685.4 362.4,642.8 266.7,685.4 277.7,581.2 207.7,503.5 
				310,481.7 362.4,391 			"/>
			<polygon class="st6" points="412.3,485.1 509.8,505.8 443,580 453.5,679.1 362.4,638.6 271.3,679.1 281.6,580 214.9,505.8 
				312.5,485.1 362.4,398.7 			"/>
			<polygon class="st17" points="362.4,406.3 314.9,488.5 222.3,508.2 285.7,578.7 275.7,672.9 362.4,634.4 449,672.9 439.1,578.7 
				502.5,508.2 409.7,488.5 			"/>
			<polygon class="st18" points="362.4,425 320.9,496.8 240,513.9 295.4,575.5 286.8,657.9 362.4,624.2 438,657.9 429.4,575.5 
				484.8,513.9 403.8,496.8 			"/>
			<path class="st15" d="M403.8,496.8l-13.7-23.7l-27.7-48l-19.8,33.9l-0.1,0.2l-5.2,9l-1.8,3.2l-12.8,22.2l-1.8,3.2l-40.2,8.5
				l-40.9,8.7l4,4.4l11.3,12.6l12.4,13.8l10.9,12.1l0.2,0.3l3.8,4.2l7.6,8.4l3.9,4.4l1.3,1.5l-0.1,1.2c2.9-1,5.7-2,8.5-3.1
				c1.5-0.6,3-1.2,4.5-1.7c3.3-1.4,6.6-2.6,9.8-4.1c1.1-0.5,2.1-1,3.2-1.5c2.1-1,4.2-1.8,6.1-2.8c0.8-0.4,1.5-0.8,2.2-1.1
				c1.6-0.8,3.3-1.6,4.9-2.5c1.2-0.6,2.2-1.2,3.3-1.7c1.9-1.1,3.9-2.1,5.7-3.2c29.6-16.9,50.1-36.9,64.6-57.3L403.8,496.8z"/>
		</g>
	</g>
	<g>
		<g>
			<path class="st2" d="M54.3,516c13.8,1,27.4,11.3,36.5,20.5c8.4,8.4,17.1,16.6,25.9,24.7l5.1,4.7L95,592.6l-4.9-4.5
				c-8.9-8.4-17.8-17-26.2-26c-5.9-6.4-12.1-13.1-17.2-20.2c-3.9-5.4-9.5-14.1-4.3-21.3C45.6,516.7,50.1,515.8,54.3,516z"/>
			<path class="st3" d="M53,523.2c11,1,23.3,9.7,32.5,18.5c9.1,8.9,26.1,24.7,26.1,24.7l-15.9,15.8C86.5,574.1,31.1,521.5,53,523.2z
				"/>
			<path class="st2" d="M38.8,528.6c13.8,0,28.4,9.1,38.3,17.3c6.8,5.7,13.6,11.1,20.3,16.6c3.2,2.5,5,5.9,5.3,10.2
				c0.3,8.1-5.6,14.6-10.1,21c-1.2,1.7-3.1,3-5.1,3.5c-2,0.5-4,0-5.5-1.3c-9.8-7.6-19.6-15.1-28.8-23.2
				c-6.8-5.7-13.5-11.9-19.2-18.3c-4.4-4.9-11.1-12.9-6.4-20.2C30.2,529.9,34.5,528.6,38.8,528.6z"/>
			<path class="st3" d="M37.9,535.8c11.3,0,24.3,7.6,34.1,15.8c5.6,4.7,14.5,11.6,20.6,16.6c7.5,5.9-1.5,15.3-5.6,21.5
				C77.1,582.3,15.9,535.8,37.9,535.8z"/>
			<path class="st2" d="M85.1,571.4c0.1-1-0.6-3.2-1-4.2c-3.9-5.2-7.6-10.8-11.2-16.4c-8.2-12.4-16.2-25-23.1-38.1
				c-5.5-10.4-10.9-21.5-14.6-32.6c-3.9-11.9-8.3-26.4-3.7-39.8c2.5-6.7,6.6-12.4,11.1-17.8c6-6.9,12.4-13.6,18.7-20.5
				c28.1-31.4,98.2-85.5,139.2-87.7l5.4-0.3l1.2,5.2c2.3,9.7-2.4,25.8-5.5,35.6c-5,16.1-11.6,32.4-18.3,47.9
				c-7.1,16.6-14.6,33.1-22.2,49.7c-2.6,5.9-5.5,11.9-8.2,18c-1.4,3-3,6.4-4.1,9.4c-0.7,1.9-1,4.5-1.5,6.4
				c-0.7,3.7-1.4,7.5-1.7,11.1c-1.4,9.9-2.5,19.8-3.6,29.6c-1.9,16.8-3.6,33.9-5,50.6l-0.5,4l-3.5,2.2c-4.7,3-9.3,5.9-14.1,8.6
				c-4.3,2.5-9.6,5.9-13.9,7.6c-9.6,4.2-21.2-3-28.3-7.9c-4.2-2.7-8.6-6.7-6.2-12.6s8.3-5.9,13.3-7.9
				C84.3,571.6,84.9,571.4,85.1,571.4z"/>
			<path class="st4" d="M200,321.2c-37.1,1.9-105.4,53.2-133.5,85c-28.1,31.7-36.7,33.9-24.3,70.7C54.3,513.7,90.8,563,90.8,563
				c9.8,22.9-24.7,12.9-9.1,23.2c5.7,4,15.4,9.9,21.4,7.5c6-2.5,27-15.8,27-15.8s7.5-85.3,12-99.6
				C146.7,463.9,206.2,347.2,200,321.2z"/>
			<path class="st2" d="M109.4,473.2c-2.8-16.8-8.1-26.7-23.8-34.1c-9.4-4.5-17.2-4.7-27.5-5.7l10.2-2.7c9.8-1.3,21.5,2.2,29.3,7
				c14.6,8.6,18.2,18,21.9,33.9c0.2,2.7-1.8,5.4-4.6,6.2C112.3,477.9,109.8,476.2,109.4,473.2z"/>
			<path class="st2" d="M102.5,566.2c3.6,9.4,0.4,20.2-7.5,24.5c-7.9,4.2-17.3,0.3-21-9.1c-3.7-9.4-0.4-20.2,7.5-24.5
				C89.4,552.8,98.8,556.8,102.5,566.2z"/>
			<path class="st4" d="M99,568.1c-2.9-7.2-10-10.2-16.1-7c-6.1,3.2-8.5,11.6-5.8,18.8c2.9,7.2,10,10.2,16.1,7
				C99.3,583.5,102,575.1,99,568.1z"/>
			<path class="st2" d="M97,577.8c-1.8,5.7-7.2,8.6-12.1,6.4c-4.9-2.2-7.5-8.6-5.8-14.3c1.8-5.7,7.2-8.6,12.1-6.4
				C96.4,565.7,98.8,572.1,97,577.8z"/>
			<path class="st4" d="M95.3,577.1c1.5-4.7-0.7-9.7-4.6-11.3c-4-1.7-8.2,0.5-9.8,5.2c-1.5,4.6,0.7,9.7,4.6,11.3
				C89.6,584,93.8,581.8,95.3,577.1z"/>
			<path class="st2" d="M95.3,577.1c0.1-0.5,0.4-1.3,0.5-1.7L82,569.1c-0.3,0.5-0.4,1-0.7,1.5c-0.1,0.5-0.4,1.3-0.5,1.7l13.8,6.2
				C94.9,578,95,577.5,95.3,577.1z"/>
			<path class="st3" d="M151.9,359.8C115.8,376,85.4,412,78.4,421.5c-3.2,4.5-5.2,7.2-6.5,8.9c8.9-0.3,19,3,26,6.9
				c3,1.7,13.4,10.4,15.9,16.8C120.8,424.7,132.5,384.3,151.9,359.8z"/>
			<path class="st3" d="M78.1,525.9c-14.1-21-33.2-60.6-37.6-89c-5.6,9.9-5.2,19.8,1.4,40.1c4.3,12.9,11.5,27.2,18.9,40.3
				c2,3.7,4.4,7.5,6.4,10.8c4.7,7.9,9.6,15.3,13.5,21c1.7,2.5,3.2,4.7,4.5,6.7c1.1-0.3,2.2-0.3,3.5-0.3c5.6,0.5,11.1,4.5,13.6,10.8
				c1,2.5,1.4,5.2,1.5,7.9c0,6.9-3.3,13.6-9,16.6h-0.3c-0.3,0.3-0.5,0.3-0.8,0.5c-0.8,0.3-1.5,0.5-2,0.8c0.5,0.3,1.2,0.5,1.6,0.8
				c3.6,1.5,7.2,1.9,9.8,1c3.1-1.5,11-5.9,17.2-9.9c0.3-0.3,0.5-0.3,0.8-0.5c-0.2-0.3-0.4-0.8-0.6-1c-1.8-3-3.8-6.2-5.6-9.4
				c-10.6-19.1-7.4-30.3-8.7-33.9C91.5,544.4,85.1,536,78.1,525.9z"/>
			<path class="st5" d="M54.8,422.3c19.4-26.4,56.6-56.6,84.9-73.2c6.6-3.7,5-3,11.7-5.4c-30.8,25-65.8,49-88.7,82.3
				c-1.3,2.2-4.1,3.5-6.2,2.5C54.2,427.3,53.5,424.7,54.8,422.3z"/>
			<path class="st5" d="M117.7,436.6c7.2-28,28.5-67.8,49.8-88l9.5-7.6c-19.3,34.6-37.2,57.3-44.3,96.9c-0.7,4.2-4.7,7.2-8.9,6.9
				C119.5,444.6,116.7,440.8,117.7,436.6z"/>
		</g>
		<path class="st0" d="M247,319.2c-73.3-4.3-113,58.8-125.3,144.6c20.2,9.8,15.3,10.1,15.3,10.1l30.3-30.6l73.2,10.7
			c0,0,20.7,43.3,34.4,44.1c13.7,0.8,92.2-6.5,117.6-26.6c0.1-0.1,0.2-0.2,0.3-0.3C378.2,388.2,320.3,323.5,247,319.2z"/>
		<path class="st6" d="M354.8,484.2c-3.8-3.2-7.4-6.5-10.8-9.7c-13.7-12.8-26.6-27.6-36.1-43.8c-9.6-16.3,35.7-16.5,37.6-35.6
			c0-0.2,0.4-6.9,0.5-7.1c2.4-12.9-50.9-40.8-38.8-47.3c-9.4-4.1,15.1-7.1,49.7,8.1c51.1,22.6,131.6,110.1,138.6,167.2
			c-0.4,18.8-28.9,31.4-44,37.5c-22.4,8.9-48.9,13.6-72.8,15.4c-13,1-26,1.3-39,0.5c-7.6-0.5-15.7-0.8-23.2,0
			c-0.7,0.1-1.7,0.2-2.9,0.4c0.6,0.5,1.2,0.8,1.5,1.1c3.3,1.9,4.6,5.9,3.2,9.4c-1.5,3.5-5.1,5.4-8.8,4.6c-5-1.2-10.9-4.1-15.1-7.1
			c-10.1-7-16.1-17.1-17-29.3c-0.8-9.8,6.8-18.5,13.5-24.7c8.2-7.6,18.3-14.2,27.9-20c10.5-6.3,21.4-12.1,32.3-17.5
			C352.2,485.4,353.5,484.8,354.8,484.2z"/>
		<path class="st0" d="M306.4,379.3c3.1-17,0.4-28.9,12.3-31.2c17.9-3.6,55,11.6,83.1,41.1c46.8,49.1,84.7,100.9,84.1,130
			c-0.6,29-79.4,48.2-140.7,44.6s-29,15.6-29,15.6s-24.5-5.7-26.3-29.5c-1.8-23.8,84.5-62,84.5-62S301,435.1,306.4,379.3z"/>
		<path class="st11" d="M362,359c13.5,7.1,27.5,17.2,39.9,30.2c40.5,42.4,74.3,87,82.3,117c-7.7,1.3-12.8,1.9-12.8,1.9
			s0,0-19.2-38.3C434.5,434.2,390.1,377.5,362,359z"/>
		<path class="st12" d="M329.6,347.9c8.4,1,18.6,4.2,29.3,9.5c-15.5,16.2-23.1,43-1.7,70.9s-7.8,22-20.9,23.6
			c-7.3-8.6-14.3-18.4-19.8-28.9C317.8,398.5,322.1,364.2,329.6,347.9z"/>
		<path class="st6" d="M141.1,372.2c5.5-8.2,10.6-17,15.9-25.5c4.8-7.6,10.2-15.8,16.2-22.6c4.7-5.4,11.8-12.1,19.6-10.8
			c5.9,0.8,6.3,5.2,5.3,9.1c-0.2,0.8-0.4,1.5-0.6,2.3c-0.6,2.3-1.3,4.6-1.8,7c-0.7,2.5-1.3,5-1.8,7.6c-1.9,9.9-4.5,19.3-4.7,29.4
			c-0.8,24.5,12.9,33.5,36.8,34.9c5.9,0.3,11.7-0.4,17.4-1.9c20.3-5.7,38.3-22.4,53-37c9.1-9,18.4-17.9,27.9-26.6l2.8-2.5l27.4,8.3
			c6.9,2.1,7,10.9,0.8,14.1c-12.2,6.3-19.1,25.8-21.8,38.2c-2.6,11.7-4,27.9-0.6,39.5c1,3.4,2.3,6.5,4.1,9.5c1.5,2.7,3.2,5.2,4.4,8
			c1.9,4.5,2.3,8.8,1.7,13.7l-8.6,70.3l27.7,52.5l-5.2,3.2c-1.9,1.3-3.9,2.9-5.7,4.4c-2.6,2.1-5.2,4.4-7.8,6.5
			c-4.6,3.7-10.3,8.1-15.8,10.3c-64.8,24.9-163,23.3-221.9-18c-16.2-11.3-9.2-11.8-4-25.6c0.3-0.9,1-2.5,1.1-3.4
			c1.6-26,1.9-51.9,5.3-77.9c3.7-28.3,7.1-56.8,16.1-84c1.3-3.9,1.8-7.8,2.3-11.9c0.5-4.1,1-8.3,2.5-12.2c1.5-3.8,5.4-5.7,8.9-7.3
			C138.6,373.3,140.2,372.7,141.1,372.2z"/>
		<path class="st13" d="M146.2,376.4c-1.5,2.1-10.3,4.3-11.4,7.2c-2.4,6-1.5,14-4.7,23.6c-8.1,24.5-11.8,50.1-15.6,79.2
			c-3.5,26.8-4.4,58.9-5.8,82.6c-0.2,3.4-2.9,7.6-3,10.8c-0.4,7.1-2.6,6.1,2.6,9.9c56.5,40.4,153,42.4,216.7,17.9
			c8.7-3.4,21.6-16.4,28.3-20.5l-25.8-48.9l8.9-72.3c1.5-12.2-5.5-13.8-9.9-28.6c-7.1-24.1,2.6-73.6,25.7-85.4
			c1.1-0.6,1.4-1.6,0.4-1.9l-23.8-7.3c0,0-14.2,13.1-27.7,26.4c-19.9,19.9-45.1,42.5-75.4,40.8c-57.3-3.3-42.2-51-38.2-72.1
			c1.1-5.4,4.6-18.1,4.6-18.1C179.3,317.7,158.2,358.6,146.2,376.4z"/>
		<path class="st14" d="M183.9,619.5c47.9,8.5,101,3.7,141-11.8c8.7-3.4,21.6-16.4,28.3-20.5l-25.8-48.9l8.9-72.3
			c1.5-12.2-5.5-13.8-9.9-28.6c-1.1-3.8-1.7-8-2.1-12.8c-3.5-1.1-5.4-1.6-5.4-1.6c-16.3,69.6-40.1,85.6-49.6,91.1
			c-9.6,5.5-54.5,7-84.7,0c-30.2-7-60.3-17.7-60.3-17.7s33.4,30.8,65.8,34.3c32.5,3.5,83.6-4.4,82.4,6.1
			c-1.2,10.5-18.6,16.3-36,27.9c-17.4,11.6,24.4,1.2,40.7-7c16.3-8.1-4.1,62.2-49.9,61.5C181.3,618.3,198.5,619,183.9,619.5z"/>
		<path class="st15" d="M225.5,409.9c-28.6-1.6-39.1-14.2-42-29.1c-0.4-1.7-0.6-3.6-0.8-5.3c-1.2-13.7,2.8-28.3,4.6-37.6
			c0.2-1.3,0.6-2.8,1.1-4.6c0.5-1.9,1-4,1.5-5.9c0.1-0.4,0.2-0.8,0.3-1.2c-0.2,0.3-0.4,0.7-0.7,1c-1.8,2.8-3.5,5.7-4.9,8.6
			c-6.7,13.3-9.7,27.8-9.3,42.2c0.1,2.2,0.2,4.5,0.4,6.8c1.9,18.8,18.4,27.4,33.4,30.7c23.8,5.3,51.9-4.4,71.8-20.2
			c9-7.2,18.4-15.3,26.9-23.7c4.1-4.1,8-8,12-11.9c2.6-2.5,5.1-5,7.6-7.5c1.4-1.3,2.7-2.5,4-3.8c1.3-1.2,2.5-2.3,3.8-3.5l-5.8-1.7
			l-0.7-0.2c0,0-2,1.8-5.3,4.9c-0.2,0.2-0.4,0.4-0.6,0.6c-2.1,2-4.8,4.5-7.7,7.3c-1.9,1.8-4.1,3.9-6.2,5.9c-0.7,0.7-1.4,1.3-2,1.9
			c-1.9,1.9-4,3.9-5.9,5.8C280.9,389,255.7,411.7,225.5,409.9z"/>
		<path class="st15" d="M324.2,413.2c0.8-13.8,4.3-29.1,10.3-41.3c1.5-3.1,3.2-5.9,5-8.5c2.9-4.2,6.3-7.6,10-10.1
			c0.8-0.5,1.5-1,2.4-1.5c1.1-0.6,1.4-1.6,0.4-1.9l-7.9-2.4c-1.1,0.9-2.1,1.8-3.2,2.9c-2.3,2.3-4.6,5-6.6,8
			c-1.9,2.7-3.7,5.7-5.4,8.9c-4.6,8.6-8.4,18.6-10.9,29c-1.7,7.2-2.8,14.1-2.9,20.9c0,1.3,0,2.6,0,3.9c0.3,12.8,3.7,24.4,10.5,34.5
			c0.2,0.3,0.5,0.7,0.7,1c3.6,5.1,6.7,9.3,9.4,12.5l0.3-2.1l0.1-1c1.4-11.1-4.4-13.4-8.7-25c-0.4-1.2-0.9-2.3-1.3-3.7
			C324.4,430.7,323.8,422.2,324.2,413.2z"/>
		<g>
			<path class="st6" d="M408.8,142.9c-45.3,62.3-104.3,130.6-114.9,199.5c-4.3,27.6-59.6,17.4-77.9,4.7
				c-37.2-25.6,54.4-129.1,109.6-175.7c15.7-13.3,30.2-20.5,35.8-21.7C382.6,145.3,408,146.4,408.8,142.9z"/>
			<path class="st6" d="M394,152.3c-8,0.7-16,1.3-23.9,2.4c-2.5,0.4-4.9,0.8-7.5,1.4c-3.6,0.8-9.1,3.8-12.2,5.6
				c-7.4,4.2-14.3,9.3-20.8,14.7c-20.3,17.1-39.9,36.6-57.5,56.5c-9.2,10.4-18.1,21-26.4,32.1c-7.4,9.8-14.4,20-20.4,30.8
				c-5.3,9.6-16.1,31.1-9.6,42.1c1,1.6,2.3,3,3.9,4.1c7.9,5.4,21.1,9.1,30.6,10.6c10.2,1.6,35.2,3.5,37.6-11
				c4-25.4,14-49.8,26.1-72.2c13-24.2,28.8-47.2,44.9-69.3C370.1,183.8,382.1,168.1,394,152.3z"/>
			<path class="st0" d="M318,186.3c5.5,1.5,12.5,3.8,19.5,7.1c6.1,2.9,12.3,6.6,17.5,11.1c-1,1.4-2,2.8-3,4.2
				c-4.9-4.4-10.8-7.9-16.8-10.7c-8.2-4-16.4-6.4-21.9-7.6C315,189,316.6,187.7,318,186.3L318,186.3z M296,207.3
				c-1.5,1.5-3,3-4.5,4.5c6.6,0.7,13.6,2.8,20.4,6.1c7.7,3.8,15.5,9.1,22.7,16.1c1-1.5,1.9-2.9,2.8-4.3c-7.4-7-15.3-12.5-23.3-16.4
				C308.1,210.4,302,208.4,296,207.3L296,207.3z M270.4,234.6c-1.3,1.5-2.5,2.9-3.8,4.4c9.6,2.2,18.8,5.2,27.5,9.2
				c8.2,3.7,16,8.2,23.4,13.8c0.9-1.5,1.6-3,2.5-4.5c-7.6-5.6-15.6-10.3-23.9-14C287.9,239.7,279.3,236.8,270.4,234.6L270.4,234.6z
				 M247.4,262.3c-0.7,0.9-1.3,1.6-1.9,2.5c-0.4,0.5-0.8,1-1.1,1.5c4.6,2.6,11.4,5.7,19,8.8c13.7,5.6,29.9,11.3,40,14.6
				c0.7-1.5,1.4-3.1,2.1-4.6c-9.9-3.1-26.3-9-40.2-14.6C258.1,267.5,251.7,264.6,247.4,262.3L247.4,262.3z M228.9,289.4
				c5.6,5.2,16.1,10.3,27.7,14.2c13.7,4.6,28.7,7.6,38.6,7.3c-0.6,1.6-1.1,3.4-1.6,5c-10.7-0.1-25.4-3-38.6-7.5
				c-11.5-3.9-22.1-9-28.6-14.6C227.1,292.3,228,290.8,228.9,289.4z"/>
			<g>
				<path class="st6" d="M220.5,308.4c-1.1,2-0.5,5.9,0.1,8c1.7,2.5,9.3,5.9,11.9,6.9c8.4,3.3,17.8,5,26.8,5.5
					c4.1,0.2,8.2,0.1,12.3-0.3c5.3-0.5,18.6-2.5,21.2-7.9c0.2-0.5,0.4-1,0.5-1.5c0.3-1.5,0.4-2.9,0.5-4.4c0-0.8,0.1-1.5,0.2-2.3
					c0.5-4,3.2-7.2,7.6-7.5c7.2-0.4,13.9,1.8,19.1,6.7c6.1,5.7,8.7,14,7.8,22.2c-1.1,9.4-6.5,17.4-14.1,23
					c-14.8,10.7-35.1,14.8-53.2,15c-15,0.2-31.2-2.1-45.1-7.7c-11.8-4.7-24.2-12.9-27.9-25.6c-1-3.3-1.3-6.7-1-10
					c1.5-16.9,6.8-29.1,25.8-32c3.2-0.5,7.8-0.8,9.5,1.9C223.9,301.3,222.2,305.9,220.5,308.4L220.5,308.4z"/>
				<path class="st0" d="M213.9,304.4c-15,2.2-17.9,11.6-19.2,25.1C191.7,363,273.6,377,309.5,351c19.6-14.1,11.3-39.3-7.6-38.2
					c-0.7,0,0.1,6.8-2,11.1c-5.1,10.7-25.7,13.3-41,12.6c-23.7-1.1-44-10.9-45.8-17.7C210.5,309.1,213.9,304.4,213.9,304.4z"/>
				<path class="st6" d="M206.4,327.6c2.8,0.1,4.9,2.4,4.8,5.1s-2.4,4.8-5.2,4.7s-4.9-2.4-4.8-5.1
					C201.3,329.6,203.6,327.5,206.4,327.6L206.4,327.6z M307.5,332.7c2.8,0.1,4.9,2.4,4.8,5.1s-2.4,4.8-5.2,4.7s-4.9-2.4-4.8-5.1
					C302.4,334.8,304.7,332.6,307.5,332.7L307.5,332.7z M289.6,342.6c2.8,0.1,4.9,2.4,4.8,5.1c-0.1,2.7-2.4,4.8-5.2,4.7
					s-4.9-2.4-4.8-5.1C284.4,344.6,286.8,342.5,289.6,342.6L289.6,342.6z M267.7,346.9c2.8,0.1,4.9,2.4,4.8,5.1s-2.4,4.8-5.2,4.7
					c-2.8-0.1-4.9-2.4-4.8-5.1S264.9,346.8,267.7,346.9L267.7,346.9z M244.2,344.9c2.8,0.1,4.9,2.4,4.8,5.1
					c-0.1,2.7-2.4,4.8-5.2,4.7s-4.9-2.4-4.8-5.1C239,347,241.3,344.9,244.2,344.9L244.2,344.9z M223,338.2c2.8,0.1,4.9,2.4,4.8,5.1
					c-0.1,2.7-2.4,4.8-5.2,4.7s-4.9-2.4-4.8-5.1C217.9,340.2,220.2,338.1,223,338.2z"/>
				<path class="st9" d="M212.7,312.9c-2.9,23.9,63.7,31.7,84.1,17.9l1.9-1.3c-9.7,20.4-97.2,19.6-94.4-18c0.4-2.2,2.6-3.8,4.9-3.4
					C211.5,308.4,213.1,310.6,212.7,312.9z"/>
			</g>
		</g>
		<g>
			<path class="st6" d="M324.2,0.1c52-2.7,96.4,37.2,99.2,89.2c2.7,52-37.2,96.4-89.2,99.2c-52,2.7-96.4-37.2-99.2-89.2
				C232.2,47.4,272.1,2.9,324.2,0.1z"/>
			<path class="st10" d="M324.6,7.8c-47.8,2.5-84.5,43.4-82,91.1c2.5,47.8,43.4,84.5,91.1,82c47.8-2.5,84.5-43.4,82-91.1
				C413.2,42,372.5,5.3,324.6,7.8z"/>
			<path class="st0" d="M324.6,7.8c-41.4,2.2-74.6,33.1-81,72.5c8.3,41.5,46.1,71.7,89.6,69.4c41.4-2.2,74.6-33.1,81-72.5
				C405.9,35.7,368.1,5.5,324.6,7.8z"/>
			<path class="st6" d="M255.6,42c-12.8,16-16.3,45.1-15.6,57.1c0.7,12,3,3.8,3.2,5.6c18-19.8,24.1-14.3,33.2-9.6
				c9.4,4.9,12,22.6,36.9,25c25,2.4,55.7-38,36.9-56.9c-14.8-14.9-54.3-25.9-83.6-23.4C264.9,39.9,257.2,41.8,255.6,42z"/>
			<path class="st0" d="M327.8,73.5c-7.7,0.4-13.7,7-13.3,14.7s7,13.7,14.7,13.3c7.7-0.4,13.7-7,13.3-14.7
				C342.1,79,335.6,73.1,327.8,73.5z"/>
			<path class="st6" d="M330,133.4c2.5,0.6,8.7,0.4,11.3,0.4c7.1,0.1,19.2-0.3,22,7.9c0.7,1.9,0.6,4.1-0.1,6
				c-2.9,8.3-15.7,15.5-23,19.5c-12.4,6.7-25.8,12.3-38.8,17.5c-8.7,3.5-17.5,6.7-26.4,9.8c-21.6,7.6-42.7,14.4-65.9,12.1
				c-6.7-0.7-14.3-2.7-17.1-9.7c-2.5-6.2,0.5-12.5,4.1-17.5c4.3-5.9,10.1-11.5,15.5-16.5c10-9.2,25.1-23.5,30.4-36.4
				c3.1-7.5,7.1-15.5,12.4-21.6c4.6-5.2,10.6-9.7,17.8-9.2c11.8,0.7,18.1,13.3,21.5,22.9C298.1,131.7,319.2,128.3,330,133.4z"/>
			<path class="st7" d="M286.4,121.3c6.4,18.5,30.9,14.3,40.7,19.1c4.7,2.3,31.1-1.2,29,4.8c-3.9,11.2-49.5,30.2-83.6,42.1
				c-20.4,7.1-40.7,13.8-62.6,11.7c-18.3-1.8-12.8-12.4,6.8-30.4c20-18.4,28.5-29.8,32.3-39.1C260.9,100.5,276.4,92.7,286.4,121.3z"
				/>
			<path class="st6" d="M332.3,141.1c-0.7,4.1-4.4,7.5-7.5,10c-5.1,4.2-11.1,7.9-16.8,11.3c-16.8,10.2-35,19.4-52.9,27.2
				c-18.5,8-41.2,16.8-61.2,19.2c-9.4,1.2-27.6,3.2-32.1-8c-3.3-8.4,4.1-17.2,9.4-22.9c7-7.5,14.9-14.4,22.6-21.3
				c1.7-1.5,3.5-3.2,5.2-4.7c8.7-7.9,32.8-29.9,37.2-40.5c2.8-6.9,6.7-14,12-19.3c4.6-4.6,10.5-7.7,17.1-7.5
				c3.4,0.2,6.6,1.2,9.5,2.9c5.3,3.2,10,7,14.6,11.2c3.4,3.1,6.7,6.4,10.4,9.1c4.2,3,8.2,4.7,13.3,5.4c8.3,1.1,17.9-0.6,26-2.5
				c5.3-1.3,12.4-2.2,15.2,4.1c2.4,5.4-1.4,9.8-5.1,13.1c-2.7,2.4-5.7,4.6-8.6,6.8c-2.1,1.5-4.3,3.2-6.3,4.8
				C333.7,140,333,140.5,332.3,141.1z"/>
			<path class="st8" d="M322.6,143c-13.6,13.2-87.4,53.2-129.6,58.3c-47.6,5.8-15.1-19.7,11.1-43.8c20-18.4,35.2-34,39.1-43.2
				c7.7-19,18.5-25.8,27.7-20.1c23.6,14.2,24,35.1,69.8,24.1C359.6,113.6,328,137.6,322.6,143z"/>
			<path class="st6" d="M346.8,108.6c12.4-0.7,23,8.9,23.7,21.3s-8.9,23-21.3,23.7s-23-8.9-23.7-21.3
				C324.8,119.8,334.3,109.3,346.8,108.6z"/>
			<g>
				<path class="st0" d="M347.1,113.9c-9.5,0.5-16.8,8.6-16.3,18c0.5,9.5,8.6,16.8,18,16.3c9.5-0.5,16.8-8.6,16.3-18
					C364.6,120.7,356.5,113.4,347.1,113.9z"/>
				<path class="st6" d="M357,121.1c5.5,5,6,13.6,1,19.1s-13.6,6-19.1,1c-5.5-5-6-13.6-1-19.1C342.9,116.5,351.4,116,357,121.1z"/>
				<path class="st0" d="M355.2,123c-4.5-4-11.3-3.7-15.3,0.8c-4,4.5-3.7,11.3,0.8,15.3c4.5,4,11.3,3.7,15.3-0.8
					C360,133.9,359.7,127.1,355.2,123z"/>
				<path class="st6" d="M355.2,123c-0.6-0.5-1.1-0.9-1.7-1.3l-14.1,15.8c0.4,0.6,0.9,1.1,1.5,1.5s1.1,0.9,1.7,1.3l14.2-15.8
					C356.2,124.1,355.7,123.5,355.2,123z"/>
			</g>
			<path class="st6" d="M333.8,78.1c-3.4,0.2-5.9,3-5.7,6.4c0.2,3.4,3,5.9,6.4,5.7c3.4-0.2,5.9-3,5.7-6.4
				C340,80.5,337.2,77.9,333.8,78.1z"/>
			<path class="st0" d="M256.5,68.7c-3.1-0.8-6.9,3.3-8.4,9.2c-1.5,5.9-0.3,11.3,2.8,12.1c3.1,0.8,6.9-3.3,8.4-9.2
				C260.9,74.9,259.6,69.5,256.5,68.7z"/>
			<path class="st6" d="M257.9,72.9c-1.4-0.4-3,1.5-3.6,4c-0.7,2.5-0.1,4.9,1.3,5.2c1.4,0.4,3-1.5,3.6-4
				C259.8,75.7,259.3,73.3,257.9,72.9z"/>
			<path class="st9" d="M392.7,86.7c-2.1-37.3-25.2-60.2-60.3-70c-20.3-5.7,4.9,2.1-16.2-4.6c11.4-2.4,13.8-2.7,25.7-0.5
				c39,7.3,63,35.6,68,74.4c0.2,4.7-3.5,8.7-8.2,9C397,95.1,393,91.4,392.7,86.7z"/>
			<path class="st15" d="M265.7,108.3c-11.7,25.9-18.7,29-40.4,46.3c-14.7,11.7-29.9,24.7-46.4,33.7c10-16.5,24.8-29.3,38.3-42.8
				c17.4-17.1,23.8-19.9,32.1-43c1.5-4.5,6.5-6.8,10.9-5.2C264.9,98.9,267.3,103.7,265.7,108.3z"/>
		</g>
		<path class="st6" d="M334.9,518.9c-4.6,19-11.2,37.7-16.2,57.1c0,0.1-0.1,0.2-0.1,0.3c-0.1,0.1-0.5,0.8-0.7,0.7
			c-0.2-0.1,0-0.9,0-1l0,0c-1.5-12.2,8.8-44.5,12-58.2c1-4.7,0.8-13.1,4.2-12.8C339.1,504.2,335.3,516.6,334.9,518.9z"/>
		<g>
			<g>
				<path class="st15" d="M187.7,466.6c2.4,6.9,4.9,13.7,7.5,20.4c6.3,2.3,12.6,4.5,18.9,6.6c-4.8,3.8-9.7,7.5-14.5,11.1
					c0.9,6.9,1.8,13.8,2.7,20.7c-5.4-4.5-10.9-9.1-16.4-13.8c-5.7,1.6-11.4,3.2-17.1,4.6c1.5-6.2,2.9-12.5,4.4-18.8
					c-4.5-6.2-8.9-12.5-13.3-18.9c6.3,1.5,12.7,2.8,19,4C181.8,477.3,184.7,472,187.7,466.6z"/>
				<path class="st15" d="M255.8,435.7c7.3,0.1,11.1,4.4,10.8,12.1c0,0.7-0.1,1.5-0.1,2.1c-0.1,2.5-0.7,4.9-1.9,6.9
					c1.2,2.1,1.5,4.9,1.4,7.6c-0.1,2-0.2,4.2-0.3,6.2c0,0.9-0.1,2,0.2,2.8c0.6,1.7,1.3,3.5,1.8,5.2c-22.8-0.8-47.4-2.6-70-7.9
					c-22.9-5.4-43.8-14.3-59.8-22.8c1.4-6.4,2.7-12.9,4.1-19.5c1.4-6.5,2.7-13.1,4.1-19.7c36.2,14.6,41.2,16.3,48.2,18
					C201.4,428.7,210.7,430.5,255.8,435.7z"/>
				<path class="st6" d="M142.1,446.7c1.5,0.9,3.2,1.7,4.7,2.5c0.4-2.1,0.8-4.3,1.2-6.5c1.9,1,3.9,1.8,5.8,2.7v-0.1
					c0.2,2.5,0.4,4.9,0.7,7.5c1.7,0.8,3.4,1.5,5.1,2.1c-0.7-6.2-1.4-12.5-1.9-18.8c-0.7-6.3-1.4-12.5-1.9-18.8
					c-2.3-1.1-4.6-2.1-7-3.3c-1.2,5.4-2.2,10.9-3.4,16.3C144.4,436,143.3,441.4,142.1,446.7L142.1,446.7z M148.9,438.3
					c1-5.4,1.9-10.9,2.9-16.4h0.1c0.5,6.2,1.1,12.3,1.5,18.5C152,439.7,150.4,439.1,148.9,438.3L148.9,438.3z M162.2,456
					c4.6,1.7,9.1,3.4,13.7,4.9c0.1-1.6,0.1-3.3,0.2-5c-2.8-1-5.7-1.9-8.5-2.9c0.2-5,0.4-10.1,0.6-15.1c0.2-5,0.4-10.1,0.6-15.1
					c-1.7-0.7-3.5-1.4-5.1-1.9c-0.2,5.9-0.5,11.7-0.7,17.6C162.7,444.3,162.5,450.2,162.2,456L162.2,456z M178.5,461.7
					c4.6,1.4,9.1,2.7,13.8,3.9c0.1-1.6,0.1-3.4,0.2-5c-2.8-0.8-5.7-1.5-8.5-2.3c0.2-5,0.4-10.1,0.6-15c0.2-5,0.4-10.1,0.6-15
					c-1.7-0.6-3.5-1.1-5.1-1.5c-0.2,5.8-0.5,11.7-0.7,17.5C179,450,178.7,455.9,178.5,461.7L178.5,461.7z M201.5,468.4
					c5.1,1.2,7.9-1.5,8.2-7.4c0.2-4.4-1.1-7.5-5.2-12.4c-3.3-4-4.3-6-4.2-8.6c0.1-2.4,1.1-3.2,2.7-2.8c1.6,0.4,2.6,1.5,2.5,4.1
					c0,0.6-0.1,1.2-0.1,1.8c1.6,0.3,3.3,0.7,4.9,1c0-0.5,0-1,0.1-1.5c0.2-5.6-2.1-9.3-7.3-10.4c-5-1.2-7.8,1.5-8.1,7
					c-0.2,4,1.2,7.3,5.3,12.3c3.3,4,4.3,6,4.2,8.9c-0.1,2.6-1.2,3.3-2.8,2.9c-1.6-0.4-2.7-1.5-2.5-4.1c0-0.8,0.1-1.6,0.1-2.4
					c-1.6-0.4-3.3-0.8-4.9-1.2c0,0.7-0.1,1.4-0.1,2C193.9,463.4,196.3,467.2,201.5,468.4L201.5,468.4z M216.4,470.8
					c1.7,0.3,3.5,0.5,5.2,0.8c0.2-5,0.4-10.1,0.6-15.1s0.4-10.1,0.6-15.1c1.8,0.3,3.7,0.5,5.4,0.8c0.1-1.6,0.1-3.4,0.2-5
					c-5.4-0.8-10.7-1.5-16.2-2.5c-0.1,1.6-0.1,3.4-0.2,5c1.8,0.3,3.6,0.7,5.4,1.1c-0.2,5-0.4,10.1-0.6,15.1
					C216.8,460.8,216.6,465.8,216.4,470.8L216.4,470.8z M226,472.3c1.2-5.7,2.2-11.5,3.4-17.2c1.2-5.8,2.2-11.5,3.4-17.3
					c2.3,0.3,4.7,0.5,7.1,0.8c0.7,6,1.4,11.9,2,17.9c0.7,5.9,1.4,11.9,2,17.8c-1.7-0.1-3.5-0.3-5.2-0.4c-0.2-2.3-0.5-4.7-0.7-7.1
					c0,0.1,0,0.1,0,0.1c-1.9-0.2-4-0.4-5.9-0.6c-0.4,2.2-0.9,4.6-1.3,6.8C229.2,472.7,227.6,472.5,226,472.3L226,472.3z
					 M232.9,461.3c1.5,0.2,3.1,0.3,4.7,0.5c-0.6-5.9-1.1-11.8-1.6-17.6h-0.1C234.9,449.9,233.9,455.6,232.9,461.3L232.9,461.3z
					 M246.5,474.3c1.7,0.1,3.5,0.2,5.2,0.3c0.2-5,0.4-10.1,0.6-15.1c0.6,0,1.2,0.1,1.8,0.1c2.4,0.1,3.3,1.2,3.1,4.5
					c-0.1,2.1-0.2,4.4-0.3,6.5c-0.1,2.9,0,3.4,0.3,4.4c1.7,0,3.6,0.1,5.3,0.1c-0.5-1.4-0.5-2.6-0.4-4.4c0.1-2,0.2-4.2,0.3-6.2
					c0.2-4-0.6-6.6-3.2-7.6v-0.1c2.4-1,3.6-3.3,3.7-6.9c0-0.8,0.1-1.5,0.1-2.1c0.2-5.4-2-8.1-7.5-8.2c-2.6-0.1-5.1-0.3-7.7-0.5
					c-0.2,5.9-0.5,11.8-0.7,17.6C246.9,462.5,246.7,468.4,246.5,474.3L246.5,474.3z M252.5,454.5c0.1-3.4,0.3-6.7,0.4-10.1
					c0.8,0,1.5,0.1,2.4,0.1c1.8,0.1,2.6,1.2,2.5,3.7c0,1-0.1,1.8-0.1,2.7c-0.1,2.8-1.4,3.7-3.3,3.7
					C253.7,454.6,253.1,454.5,252.5,454.5z"/>
			</g>
			<path class="st16" d="M201.2,516.8l1.2,8.6c-4.2-3.4-8.2-6.9-12.4-10.4C193.5,515.8,197.3,516.3,201.2,516.8L201.2,516.8z
				 M180.8,513c-4.1,1.2-8,2.2-12,3.2l1.4-5.9C173.7,511.3,177.2,512.2,180.8,513z"/>
			<path class="st12" d="M199.3,368.8c16.2,11.2,38.5,13.4,63.8,11.7c6.9-0.5,12.9-1.1,18.1-1.9c4.3-3.8,8.3-7.6,12.2-11.4
				c-10.6,3.3-21.9,4.7-32.4,4.9c-15,0.2-31.2-2.1-45.1-7.7c-2.3-1-4.6-2-7-3.2c-1.5-0.8-2.8-1.5-4.2-2.4
				c-4.9-3.1-9.4-6.9-12.7-11.5c-0.9,4.3-1.7,8.5-2.3,12.8c1.7,2,3.6,3.9,5.5,5.5C196.6,366.7,198,367.8,199.3,368.8z"/>
		</g>
		<polygon class="st6" points="425.3,467.1 548.4,493.3 464.2,586.8 477.3,711.9 362.4,660.8 247.4,711.9 260.5,586.8 176.4,493.3 
			299.4,467.1 362.4,358.1 		"/>
		<polygon class="st0" points="362.4,376.8 419.3,475.4 530.7,499 454.5,583.6 466.4,696.9 362.4,650.6 258.4,696.9 270.2,583.6 
			194.1,499 305.4,475.4 		"/>
		<polygon class="st10" points="414.7,481.7 517.1,503.5 447.1,581.2 458,685.4 362.4,642.8 266.7,685.4 277.7,581.2 207.7,503.5 
			310,481.7 362.4,391 		"/>
		<polygon class="st6" points="412.3,485.1 509.8,505.8 443,580 453.5,679.1 362.4,638.6 271.3,679.1 281.6,580 214.9,505.8 
			312.5,485.1 362.4,398.7 		"/>
		<polygon class="st17" points="362.4,406.3 314.9,488.5 222.3,508.2 285.7,578.7 275.7,672.9 362.4,634.4 449,672.9 439.1,578.7 
			502.5,508.2 409.7,488.5 		"/>
		<polygon class="st18" points="362.4,425 320.9,496.8 240,513.9 295.4,575.5 286.8,657.9 362.4,624.2 438,657.9 429.4,575.5 
			484.8,513.9 403.8,496.8 		"/>
		<path class="st15" d="M403.8,496.8l-13.7-23.7l-27.7-48l-19.8,33.9l-0.1,0.2l-5.2,9l-1.8,3.2l-12.8,22.2l-1.8,3.2l-40.2,8.5
			l-40.9,8.7l4,4.4l11.3,12.6l12.4,13.8l10.9,12.1l0.2,0.3l3.8,4.2l7.6,8.4l3.9,4.4l1.3,1.5l-0.1,1.2c2.9-1,5.7-2,8.5-3.1
			c1.5-0.6,3-1.2,4.5-1.7c3.3-1.4,6.6-2.6,9.8-4.1c1.1-0.5,2.1-1,3.2-1.5c2.1-1,4.2-1.8,6.1-2.8c0.8-0.4,1.5-0.8,2.2-1.1
			c1.6-0.8,3.3-1.6,4.9-2.5c1.2-0.6,2.2-1.2,3.3-1.7c1.9-1.1,3.9-2.1,5.7-3.2c29.6-16.9,50.1-36.9,64.6-57.3L403.8,496.8z"/>
	</g>
</g>
</svg>
