<?xml version="1.0" encoding="utf-8"?>
<!-- Generator: Adobe Illustrator 25.0.0, SVG Export Plug-In . SVG Version: 6.00 Build 0)  -->
<svg version="1.1" id="Layer_1" xmlns="http://www.w3.org/2000/svg" xmlns:xlink="http://www.w3.org/1999/xlink" x="0px" y="0px"
	 viewBox="0 0 510.7 992.7" style="enable-background:new 0 0 510.7 992.7;" xml:space="preserve">
<style type="text/css">
	.st0{fill-rule:evenodd;clip-rule:evenodd;fill:#0C3555;}
	.st1{fill-rule:evenodd;clip-rule:evenodd;fill:#A4CAD3;}
	.st2{fill-rule:evenodd;clip-rule:evenodd;fill:#6998B9;}
	.st3{fill-rule:evenodd;clip-rule:evenodd;fill:#FAC47B;}
	.st4{fill-rule:evenodd;clip-rule:evenodd;fill:#FEE7AE;}
	.st5{fill-rule:evenodd;clip-rule:evenodd;fill:#D3E7EB;}
	.st6{fill-rule:evenodd;clip-rule:evenodd;fill:#FEE9AE;}
	.st7{fill-rule:evenodd;clip-rule:evenodd;fill:#FFF5D1;}
	.st8{fill-rule:evenodd;clip-rule:evenodd;fill:#FFFFFF;}
	.st9{fill-rule:evenodd;clip-rule:evenodd;fill:#C92F27;}
	.st10{fill-rule:evenodd;clip-rule:evenodd;fill:url(#SVGID_1_);}
	.st11{fill-rule:evenodd;clip-rule:evenodd;fill:#AB2423;}
	.st12{fill-rule:evenodd;clip-rule:evenodd;fill:url(#SVGID_2_);}
</style>
<g>
	<path class="st0" d="M195.2,512c-3.7,6-11.9,5.8-18.2,4.9c-8.2-1.3-17-4.3-24.8-7.2c-23.2-8.7-69.6-33-97.1-57.3
		c-19.4-17.1-25-28.3-23.4-54.2c1.9-31.6,16.1-70.3,28.9-73.3c11-2.6,0.4,6,9.3,11.5l1.8,1.1l0.9,2c1.6,3.6,4.1,7.5,6.3,10.8
		c6.8,10.3,14.8,20.1,23.1,29.1c3.9,4.2,4.8,8.4,8.3,12.2c30.9,33.5,55.3,54,103.8,80.4c4.2,2.3,7.5,5.7,8,10.6
		c0.5,4.8-1.9,9.1-5,12.6c-2.7,3-6.1,5.7-9.4,8.1c-2.8,2-5.6,3.9-8.5,5.8C198.3,509.8,196.3,511.1,195.2,512z"/>
	<path class="st1" d="M53.8,440.4c38.3,38.1,132.7,82.5,139.8,68.5c2.1-4.1,38.2-20.7,21.6-29.8C91.9,412.2,66.3,342.5,66.3,342.5
		c-8.6-5.3-22,36.9-26.4,58.7C36.1,419.3,41.1,427.8,53.8,440.4z"/>
	<path class="st2" d="M160.5,504.5c-4.5-1.7-3-15.4-7.7-17.4c-40.6-17.2-92.4-43.9-113.4-82.2c-0.1-0.1-0.1-0.2-0.2-0.4
		c-0.1-0.2-0.2-0.3-0.3-0.5c0,0.7,0,1.3,0.1,2c0,0.7,0.1,1.3,0.1,2c-0.2,4.5,0.5,9.4,0.9,13c2.2,6.7,6.8,12.4,13.8,19.3
		c24.9,24.7,73.4,52.1,106.3,64.5c2.4-3.3,4.9-6.4,7.6-9.4C168,495.1,160.3,504.8,160.5,504.5z"/>
	<path class="st0" d="M299.1,661.9c15.1,0.9,28.3,9.6,37.7,21.2c10.3,12.8,16.3,29.1,17.4,45.4c0.8,12.3-1.1,25-6.7,36.1
		c-4.9,9.8-12.6,18.2-22.8,22.7c-5.9,2.6-12.2,3.7-18.6,3.3c-15.1-0.9-28.3-9.6-37.7-21.2C258,756.6,252,740.3,251,724
		c-0.8-12.3,1.1-25,6.7-36.1c4.9-9.8,12.6-18.2,22.8-22.7C286.4,662.6,292.7,661.5,299.1,661.9z"/>
	<path class="st0" d="M175.3,712.9l23.9,8.1c2.1,0.7,3.5,2.3,4.1,4.4l28.2,116.7c0.5,1.9,0.1,3.8-1.2,5.3c-1.2,1.6-2.9,2.4-4.9,2.4
		h-15.2c-2.8,0-5.2-1.8-6-4.5c-12.3-41.6-24.6-83.2-36.9-124.8c-0.7-2.3-0.1-4.6,1.7-6.3C170.7,712.6,173.1,712.1,175.3,712.9z"/>
	<path class="st3" d="M173.3,718.8c36.9,124.8,36.9,124.8,36.9,124.8h15.2l-28.2-116.7L173.3,718.8z"/>
	<path class="st0" d="M191.4,838.9c0.2-0.7,0.4-1.3,0.5-2c5.2-19.4,22.9-26,37.9-13.9c8.4,6.8,12.4,17.8,14.3,28.1
		c2.1,11.1,2.4,25,1.1,36.2c-0.4,3.4-3.2,5.9-6.6,5.9H77.5c-2.1,0-4-0.9-5.3-2.6c-1.3-1.7-1.7-3.7-1.1-5.8c1.3-4.7,2.5-9.5,3.8-14.2
		c5.1-19.1,24.3-27.7,41.8-32.4c10.1-2.7,24.3-2.3,34.8-1.8C162.7,837,180,837.5,191.4,838.9z"/>
	<path class="st1" d="M198.3,838.7c-2,7.6-2,7.6-2,7.6s-10.7-0.2-18.2-1c-16.8-1.8-46.2-4.1-59.7-0.5c-19.5,5.2-33.3,13.5-37.1,27.7
		c-3.8,14.2-3.8,14.2-3.8,14.2h161.1C245,832.4,208,802.5,198.3,838.7z"/>
	<path class="st0" d="M148.6,836.6c8.9,2.9,17.9,6.2,25.3,12.1c11.2,8.9,15.7,21.7,17.7,35.4c0.1,0.9,0.2,1.9,0.1,2.8
		c-0.2,3.5-3.1,6.3-6.6,6.3H77.5c-2.1,0-4-0.9-5.3-2.6c-1.3-1.7-1.7-3.7-1.1-5.8c1.3-4.7,2.5-9.5,3.8-14.2
		c5.1-19.1,24.3-27.7,41.8-32.4c8.9-2.4,20.9-2.3,30.1-2C147.4,836.3,148,836.4,148.6,836.6z"/>
	<path class="st4" d="M146.5,843c-11-0.3-21.5,0-28.1,1.8c-19.5,5.2-33.3,13.5-37.1,27.7c-3.8,14.2-3.8,14.2-3.8,14.2h107.7
		c0-0.5,0-1-0.1-1.5C180.9,856.1,166.9,849.7,146.5,843z"/>
	<path class="st3" d="M137.7,886.7h47.4c0-0.5,0-1-0.1-1.5c-1-6.9-2.5-12.5-4.6-17.1c-6.4-1.1-14.6-0.9-22.4,1.7
		c-8,2.6-15.5,7.5-19.7,15.7C138.1,885.8,137.9,886.2,137.7,886.7z"/>
	<path class="st0" d="M329.9,888.2c-0.2,0-0.5,0-0.7,0c-3.3-0.3-5.9-3.2-5.7-6.5c0-0.7,0.2-1.3,0.4-1.9c-0.1-1.5-0.5-3.6-0.8-4.8
		c-1.2-6.2-2.7-12.5-4.2-18.6c-3.1-12.3-6.4-24.5-9.8-36.6c-5.6-20.2-11.5-40.3-17.4-60.4c-0.7-2.3-0.1-4.6,1.7-6.3
		c1.7-1.7,4.1-2.2,6.3-1.4l23.9,8.1c2.2,0.7,3.7,2.4,4.1,4.7L351,880.7c0.4,1.9-0.1,3.7-1.3,5.2c-1.2,1.5-2.9,2.3-4.8,2.3H329.9z"/>
	<path class="st3" d="M297.6,757.6C334.5,882.4,329.7,882,329.7,882h15.2l-23.4-116.2L297.6,757.6z"/>
	<path class="st0" d="M314.3,876.3c-0.7-4.1-1.7-8.2-2.6-12.3c-1-4.7-1.9-10.1,1.4-14.1c2.2-2.7,5.5-3.7,8.9-3.7
		c7.4,0,10.2,10.6,11.8,16.2c0.6,2.1,1.2,4.3,1.7,6.5l3.1-0.8l-3.4-16.7c-0.2-1.2-0.1-2.3,0.3-3.5c0.9-2.2,2.6-4.1,4.9-5
		c4.9-2,9.1,1.3,11.7,5.2c3.4,5.1,4.9,15.1,5.4,22.3c14.6,11,28.9,22.9,42,35.7c13.8,13.5,39.5,40.7,33,62.1
		c-3.1,10.1-12.1,15.7-21.6,18.9c-14.3,4.8-28.7,5.6-42.6-0.8c-18-8.4-31.8-27.6-45.1-42c-0.3-0.3-0.5-0.6-0.8-1
		c-3.3-5.5-7.3-10.7-10.7-16.1c-4.7-7.3-10.9-18.1-9.1-27.1C304.6,891.4,308.4,882.9,314.3,876.3z"/>
	<path class="st1" d="M321,878.4c-7.6,7.2-10.8,16.8-12.1,23c-2.2,10.6,13.1,28.9,19,38.7c24.3,26.4,40.8,54.7,81.1,41.1
		c56.8-19.1-34.2-90.1-57.5-107.6c0,0-0.8-16.3-4.6-22.1c-3.8-5.7-5.5-1.4-5.5-1.4l4.5,22.5l-15.1,4c0,0-4.8-24.1-8.8-24.1
		C312.8,852.5,318.8,862.4,321,878.4z"/>
	<path class="st0" d="M398.4,905.3c13.7,9.5,27.5,22.5,33.6,38.4c4.4,11.4,4.7,24.4-2.8,34.7c-4.4,6.1-10.8,10.2-18.1,12.2
		c-13.8,3.9-28,2.4-41-3.2c-21.1-9.1-37.7-28-50-46.8c-1.5-2.3-1.4-5.3,0.4-7.4c18.9-22.5,46.3-36.7,75.9-28.7
		C397.2,904.6,397.8,904.8,398.4,905.3z"/>
	<path class="st3" d="M325.4,937.1c32.8,50.1,65.1,52.7,84.1,47.4c26-7.3,30.3-43-14.7-74.1C367.8,903.1,342.8,916.4,325.4,937.1z"
		/>
	<path class="st0" d="M121.6,888.1c0.7-4.5,2.1-8.5,3.9-11.9c5.1-9.9,13.9-15.8,23.2-18.8c9.1-2.9,18.8-3.1,26.1-1.6
		c3.5,0.7,6.5,1.9,8.7,3.3l-3,5.7c-1.6-1.1-4-1.9-6.8-2.5c-6.5-1.3-15.2-1.2-23.4,1.5c-8,2.6-15.5,7.5-19.7,15.7
		c-1.5,2.8-2.6,6.1-3.2,9.8L121.6,888.1z"/>
	<path class="st0" d="M87.9,889c0-1,0.1-2,0.2-2.9c1.4-11.8,8.8-22.8,21-30.6c11.9-7.6,28.5-12.2,48.7-11.4
		c3.4,0.1,6.8,0.4,10.3,0.8l-0.8,6.6c-3.4-0.4-6.7-0.7-9.7-0.8c-18.8-0.7-34.1,3.4-44.9,10.4c-10.5,6.7-16.8,16-18,25.8
		c-0.1,0.8-0.2,1.6-0.2,2.3L87.9,889z"/>
	<path class="st0" d="M381,985.6c3.4-10,0.6-21.4-4.7-32c-8.5-17.2-23.3-32-29.5-35.8l3.3-5.3c6.7,4.2,22.8,20.1,31.9,38.3
		c5.9,11.9,9,25,5,36.7L381,985.6z"/>
	<path class="st0" d="M411.4,984.3c4-12.3,0.9-25.5-5-37.4c-9.2-18.4-27-35.8-34.3-39.3l4.7-3.2c8.1,3.9,25.4,20,35.2,39.7
		c6.6,13.2,10,28,5.4,42.1L411.4,984.3z"/>
	<path class="st0" d="M232.3,858.7c1.1,9.6-5.8,18.2-15.4,19.3c-9.6,1.1-18.2-5.8-19.3-15.4c-1.1-9.6,5.8-18.2,15.4-19.3
		C222.6,842.3,231.2,849.2,232.3,858.7z"/>
	<path class="st1" d="M228.2,859.2c-0.8-7.3-7.4-12.5-14.7-11.7c-7.3,0.8-12.5,7.4-11.7,14.7c0.8,7.3,7.4,12.5,14.7,11.7
		C223.8,873.1,229,866.5,228.2,859.2z"/>
	<path class="st0" d="M223.2,867.2c-3.6,4.5-10.2,5.3-14.7,1.7c-4.5-3.6-5.3-10.2-1.7-14.7c3.6-4.5,10.2-5.3,14.7-1.7
		C226,856.1,226.8,862.7,223.2,867.2z"/>
	<path class="st1" d="M221.6,865.9c2.9-3.6,2.3-8.9-1.3-11.7c-3.6-2.9-8.9-2.3-11.7,1.3c-2.9,3.6-2.3,8.9,1.3,11.7
		C213.4,870.1,218.7,869.5,221.6,865.9z"/>
	<path class="st0" d="M221.6,865.9c0.3-0.4,0.6-0.9,0.9-1.4l-12.8-10.2c-0.4,0.3-0.8,0.7-1.1,1.2c-0.3,0.4-0.6,0.9-0.9,1.4
		l12.8,10.2C220.8,866.7,221.2,866.3,221.6,865.9z"/>
	<path class="st0" d="M332.8,897.5c-0.6,10-7.5,17.3-15.4,16.4c-7.9-0.9-13.9-9.7-13.3-19.6c0.6-10,7.5-17.3,15.4-16.4
		C327.4,878.7,333.4,887.5,332.8,897.5z"/>
	<path class="st1" d="M329.4,897.1c0.4-7.6-4.1-14.3-10.1-14.9c-6-0.7-11.3,4.9-11.7,12.5c-0.4,7.6,4.1,14.3,10.1,14.9
		C323.7,910.3,328.9,904.7,329.4,897.1z"/>
	<path class="st0" d="M321.9,904.2c-3.6,3.8-9,3.2-12.2-1.4c-3.1-4.6-2.7-11.4,0.9-15.3c3.6-3.8,9-3.2,12.2,1.4
		C325.9,893.5,325.5,900.3,321.9,904.2z"/>
	<path class="st1" d="M320.8,902.5c2.9-3.1,3.2-8.5,0.7-12.2c-2.5-3.7-6.9-4.2-9.7-1.1c-2.9,3.1-3.2,8.5-0.7,12.2
		C313.5,905.1,317.9,905.6,320.8,902.5z"/>
	<path class="st0" d="M320.8,902.5c0.3-0.4,0.7-0.8,0.9-1.2l-8.9-13.1c-0.4,0.3-0.8,0.6-1.1,1c-0.3,0.4-0.7,0.8-0.9,1.2l8.9,13.1
		C320,903.2,320.4,902.9,320.8,902.5z"/>
	<path class="st3" d="M103.5,886.7h18.3c0.8-3.9,2-7.4,3.6-10.5c5.1-9.9,13.9-15.8,23.2-18.8c7.7-2.5,15.8-3,22.6-2.2
		c-0.4-0.4-0.8-0.7-1.2-1c-1.4-0.1-2.8-0.2-4.2-0.2c-18.8-0.7-34.1,3.4-44.9,10.4C111.6,870.1,105.6,878.1,103.5,886.7z"/>
	<path class="st4" d="M376.9,975.5c-2.3-16-16.9-35.6-36-53.2c-5.5,4.1-10.6,9-15.2,14.4c-0.1,0.1-0.2,0.3-0.4,0.4
		c18.1,27.6,36.1,40.8,51.8,46.2c0-0.1,0-0.2,0-0.4C377.4,980.8,377.3,978.4,376.9,975.5z"/>
	<path class="st4" d="M407.1,968.7c-1.7-19.8-19.1-45.7-37-59.5c-5.9,1-11.5,2.9-16.9,5.5c7.7,6.2,20.8,20.2,28.7,36.1
		c5.5,11,8.5,22.9,5.8,33.9c-0.1,0.4-0.2,0.8-0.3,1.2c7.1,1.1,13.6,0.6,19.1-0.6c0.2-1,0.4-2.2,0.5-3.4
		C407.5,978.3,407.6,974,407.1,968.7z"/>
	<path class="st4" d="M423.7,960.1c-1.3-20.5-15.9-34-34.4-50.9c-2.1-0.3-4.1-0.6-6.2-0.7c8.9,6.9,21.2,20.1,28.9,35.6
		c5,10.1,8.2,21.1,7.4,32c-0.1,1.3-0.3,2.6-0.5,3.9c1-0.8,2-1.6,2.9-2.5c0.5-1.4,0.9-3,1.2-4.8C423.6,969.2,424,965,423.7,960.1z"/>
	<path class="st4" d="M322.6,846.3c4.3,0.3,7,4.4,8.8,8.8c-2.7-11.2-9.6-38.9-15.9-61.3c-2.8-0.1-4.8,0.3-7.3-0.3
		C313.5,812.3,319.7,835.3,322.6,846.3z"/>
	<path class="st4" d="M208.7,817.7c-3.1-10.4-7.4-25-13.4-45.4c-0.2,0-0.4,0-0.6,0c-1.9,0-3.9-0.1-5.7-0.4
		c6.6,22.3,11.1,37.7,14.3,48.3C205,819,206.8,818.2,208.7,817.7z"/>
	<path class="st5" d="M202.7,840.4c1.2-3.2,2.6-5.8,4.2-7.7c4.2-5,9.7-5.8,15.1-3c2.8,1.4,5.6,3.8,8.1,7c0.4,0.5,0.7,0.9,1.1,1.4
		c-0.4-0.8-0.8-1.5-1.3-2.2c-2.7-4.4-5.7-7.8-8.9-10c-5.6-3.9-11.4-4.2-16.1,0.2c-1.7,1.6-3.2,3.8-4.6,6.6c-0.8,1.8-1.5,3.8-2.1,6
		c-2,7.6-2,7.6-2,7.6s-10.7-0.2-18.2-1c-3.3-0.3-7-0.7-11-1c2.4,1.3,4.7,2.8,6.9,4.5c0.5,0.4,1,0.8,1.4,1.2c2.1,0.2,4.1,0.4,6,0.6
		c7.5,0.8,18.2,1,18.2,1s0,0,2-7.6C202,842.7,202.3,841.5,202.7,840.4z"/>
	<path class="st5" d="M386.5,902.5c-13.9-12.7-27.8-23.4-35.1-28.8c0,0-0.8-16.3-4.6-22.1c-0.9-1.3-1.6-2.1-2.3-2.5
		c-0.5-0.3-0.9-0.5-1.2-0.5c4.8,26.8,4.8,26.8,4.8,26.8l2.1,1.9l28.6,24.9C381.4,902.1,384,902.2,386.5,902.5z"/>
	<path class="st0" d="M4,887.8h288.5c2.2,0,4,1.8,4,4l0,0c0,2.2-1.8,4-4,4H4c-2.2,0-4-1.8-4-4l0,0C0,889.5,1.8,887.8,4,887.8z"/>
	<path class="st0" d="M397.8,887.8h50.3c2.2,0,4,1.8,4,4l0,0c0,2.2-1.8,4-4,4h-50.3c-2.2,0-4-1.8-4-4l0,0
		C393.9,889.5,395.6,887.8,397.8,887.8z"/>
	<path class="st0" d="M196.2,734.5c15.4,0.9,27.3,10.1,26.7,20.6c-0.6,10.5-13.6,18.3-28.9,17.4c-15.4-0.9-27.3-10.1-26.7-20.6
		C167.9,741.4,180.8,733.7,196.2,734.5z"/>
	<path class="st1" d="M195.8,740.8c11.9,0.7,21.2,7,20.8,14c-0.4,7.1-10.4,12.2-22.3,11.5c-11.9-0.7-21.2-7-20.8-14
		C173.9,745.3,183.9,740.1,195.8,740.8z"/>
	<path class="st0" d="M191,634.2c1.8,0.1,3.6,0.3,5.4,0.7c13.9,2.6,25.6,11.6,33.7,22.9c9.1,12.4,14.1,27.8,14.8,43.1
		c0.6,12.5-1.7,25.3-7.6,36.5c-5.2,9.9-13.3,18.2-23.7,22.5c-5.7,2.3-11.8,3.3-17.9,3c-1.8-0.1-3.6-0.3-5.4-0.7
		c-13.9-2.6-25.6-11.6-33.7-22.9c-9.1-12.4-14.1-27.8-14.8-43.1c-0.6-12.5,1.7-25.3,7.6-36.5c5.2-9.9,13.3-18.2,23.7-22.5
		C178.8,634.8,184.9,633.8,191,634.2z"/>
	<path class="st2" d="M190.7,640.4c-25-1.5-44.1,23.3-42.6,55.4c1.5,32.1,23,59.2,48.1,60.7c25,1.5,44.1-23.3,42.6-55.4
		C237.2,669,215.7,641.9,190.7,640.4z"/>
	<path class="st0" d="M246.3,463.4c-67.5-3.9-119.9,60.1-120.3,142.8c-0.7,172.5,241.1,216.2,242,14.1
		C368.4,537.5,313.9,467.3,246.3,463.4z"/>
	<path class="st0" d="M136.1,635.8c41,38.4,133,34.4,183,19.7c10.3-3,28.7-7.9,38.3-0.6c3.1,2.4,4.9,5.6,5.7,9.4
		c0.2,0.7,0.3,1.5,0.4,2.2c0.8,0.3,1.5,0.7,2.1,1.3c1.8,1.6,2.5,3.9,1.9,6.3c-10.1,38.1-33.2,69.9-72,82.1
		c-14.8,4.7-29.9-11.2-45.1-12.8c-18.3-1.8-36.8,9.5-53,0.9c-32.6-17.3-47.9-43.8-60.8-78.5c-1.3-3.4-2.9-7-4.4-10.3
		c-1.1-2.5-1.8-8.3-2.9-10.8c-0.7-1.7-2-4.2-2-6.1c0-2.6,1.2-5.3,2.8-7.3c3.1-4-2.5-5.6,2.1-2.3C134.8,630.8,135,633.3,136.1,635.8z
		"/>
	<path class="st1" d="M131.9,661.3c39.1,105.3,195.9,138.4,229.6,11.1c-10.7,4.3,10-25.8-40.6-10.9c-49,14.5-145.9,20.4-189.8-21.7
		c-0.9-0.8-1.7-5.1-2.7-5.8c-2.2-1.6-5.9,3-5.9,5.4C122.5,639.8,130.5,657.5,131.9,661.3z"/>
	<path class="st0" d="M159.5,664.3c46.9,19.9,117.5,14.7,159,2.6c10.4-3,29-8.3,38.7-1c3.1,2.4,5,5.6,5.8,9.4
		c0.3,1.2,0.4,2.4,0.6,3.6c0,0.4,0.1,0.9,0.2,1.4c0.8,1.5,1,3.2,0.4,4.9c-17.4,51.4-62,68.2-115.9,65c-26.2-1.5-49-2.4-69.8-18
		c-23.4-17.5-28.5-39.9-38.7-67.4c-1.3-3.4-2.9-7-4.4-10.3c-0.9-2-1.8-4-2.6-6.1c-1-2.3-0.6-4.8,1.1-6.7c1.7-1.9-0.6-6,1.8-5.3
		c0.1,0.6,0.3,1.1,0.5,1.7c1.8,4.8-5.9,9.5,2.7,15.1C145.8,657.8,155.3,662.5,159.5,664.3z"/>
	<path class="st1" d="M131.9,661.3c20.2,54.2,74,90.5,120,93.2c49.7,2.9,89.5-21.3,106.4-71.3c-2.8-4,5.1-23.1-37.9-10.6
		c-48.4,14.1-142.9,20-188.9-18.8c-5.5-4.7-5.4-6.1-1.9,1.9C130.6,658.1,131.5,660.2,131.9,661.3z"/>
	<path class="st1" d="M245.9,463.4c-60-3.5-108.7,47.7-118.8,117.9c16.6,8,28.7,8.7,28.7,8.7l24.8-25.1l60,8.8
		c0,0,16.9,35.4,28.1,36.1c11.2,0.7,75.5-5.3,96.3-21.8c0.1-0.1,0.2-0.1,0.2-0.2C353.4,519.9,306,466.9,245.9,463.4z"/>
	<path class="st1" d="M298.7,668.1c-25-1.5-43.6,23.4-41.5,55.5c2.1,32.1,24.1,59.3,49.2,60.7c25,1.5,43.6-23.4,41.5-55.5
		C345.8,696.8,323.8,669.6,298.7,668.1z"/>
	<path class="st0" d="M334.3,598.5c-3.1-2.6-6.1-5.3-8.9-7.9c-11.2-10.5-21.8-22.6-29.6-35.8c-7.9-13.4,29.2-13.5,30.8-29.2
		c0-0.2,0.3-5.6,0.4-5.8c1.9-10.5-41.7-33.4-31.8-38.7c-10.9-4.7,44.6-6.7,80.8,31.3c21.6,22.6,68.5,80.3,67.8,113.2
		c-0.3,15.4-17.9,24.8-30.3,29.7c-18.3,7.3-40,11.1-59.6,12.6c-10.6,0.8-21.3,1-31.9,0.4c-6.2-0.4-12.9-0.6-19,0
		c-0.5,0.1-1.4,0.2-2.4,0.3c0.5,0.4,1,0.7,1.3,0.9c2.7,1.6,3.8,4.8,2.6,7.7c-1.2,2.9-4.2,4.5-7.2,3.8c-4.2-1-8.9-3.3-12.4-5.8
		c-8.2-5.7-13.2-14-14-24.1c-0.6-8,5.5-15.2,11-20.2c6.8-6.2,15-11.7,22.8-16.4c8.6-5.2,17.5-9.9,26.5-14.4
		C332.1,599.6,333.2,599,334.3,598.5z"/>
	<path class="st1" d="M294.7,512.6c2.6-14,0.3-23.6,10.1-25.6c14.7-2.9,45.1,9.5,68.1,33.6c38.3,40.2,69.4,82.7,68.9,106.5
		c-0.5,23.8-65,39.5-115.2,36.6c-50.2-2.9-23.7,12.8-23.7,12.8s-20.1-4.7-21.6-24.2c-1.5-19.5,69.2-50.8,69.2-50.8
		S290.2,558.3,294.7,512.6z"/>
	<path class="st4" d="M173.9,584.4c-6,14.8-6.1,29.1-4.4,39.6c2.8,16.7,9.3,21,25.2,30.4c16.5-4.4,24-6.6,29.8-21.4
		c3.8-9.7,6.6-24.1,3.4-40.7c-17.4,1.9-26.3-11.1-26.3-11.1S190.4,591.2,173.9,584.4z"/>
	<path class="st6" d="M221.6,599.6c-6.2-0.5-12.2-2.5-17.5-6.1c-1.2-0.8-2.5-1.8-3.8-2.9c-1.4,0.7-2.8,1.3-4.1,1.7
		c-5.9,2-11.9,2.3-17.8,1.1c-2.8,9.5-3.4,19.7-1.8,29.4c0.8,4.6,1.9,9.2,4.8,12.9c3.2,4.2,9.3,7.9,14.3,10.8
		c5.1-1.4,11.5-3.2,15.2-6c3.3-2.6,5.2-6.4,6.7-10.2C221.4,620.7,222.7,609.9,221.6,599.6z"/>
	<path class="st0" d="M219.2,602c-2.6-0.3-5.1-0.9-7.6-1.8c-3.1-1.1-6.1-2.6-9-4.5c-0.7-0.5-1.4-1-2-1.5c-0.2-0.2-0.4-0.3-0.7-0.5
		c-0.2,0.1-0.4,0.2-0.7,0.3c-0.7,0.3-1.5,0.6-2.2,0.8c-3.1,1.1-6.3,1.7-9.4,1.9c-2.4,0.2-4.9,0.1-7.3-0.3c-1,3.9-1.6,7.9-1.8,11.9
		c-0.3,4.8,0,9.5,0.7,14.2c0.4,2.1,0.8,4.3,1.5,6.4c0.7,2,1.6,3.8,2.8,5.4c1.4,1.9,3.6,3.6,5.9,5.3c2.2,1.5,4.5,3,6.7,4.3
		c2.2-0.6,4.6-1.3,6.9-2.1c2.5-0.9,4.8-2,6.4-3.2c1.4-1.1,2.5-2.4,3.4-4c1-1.6,1.8-3.4,2.5-5.2c1.8-4.5,3-9.3,3.6-14.2
		C219.4,610.8,219.5,606.3,219.2,602L219.2,602z M213.3,595.2c2.8,1,5.6,1.6,8.5,1.8l2.2,0.2l0.2,2.2c0.6,5.4,0.5,11-0.2,16.4
		c-0.7,5.3-2,10.5-3.9,15.5c-0.8,2-1.7,4.1-2.9,6c-1.2,2-2.7,3.8-4.6,5.3c-2.1,1.6-4.9,2.9-7.8,4c-2.8,1-5.7,1.8-8.4,2.5l-1,0.3
		l-0.9-0.5c-2.6-1.5-5.4-3.2-8-5.1c-2.7-1.9-5.2-4.1-7-6.4c-1.6-2.1-2.8-4.5-3.6-6.9c-0.8-2.3-1.3-4.8-1.7-7.2
		c-0.8-5-1.1-10.2-0.8-15.4c0.3-5.2,1.2-10.3,2.6-15.2l0.7-2.3l2.3,0.5c2.8,0.6,5.6,0.8,8.4,0.6c2.7-0.2,5.4-0.7,8.1-1.6
		c0.6-0.2,1.2-0.4,1.9-0.7c0.7-0.3,1.3-0.6,1.9-0.9l1.6-0.8l1.3,1.2c0.6,0.5,1.1,1,1.7,1.4c0.6,0.5,1.2,0.9,1.8,1.3
		C208,593,210.6,594.3,213.3,595.2z"/>
	<path class="st0" d="M128.5,572c13.6,6.5,22.7,8.2,25.7,8.6l26.1-25.3l62.1,9.1l0.5,1c0,0,7,11.8,14.4,22.1l-1.4,3.1
		c-6.4-8.9-13.1-20.3-14.8-23.6l-60.4-8.7L155.7,583l-0.9-0.1c0,0-11.1,0.9-28.1-7.3L128.5,572z"/>
	<path class="st1" d="M168.3,724.2c-7.1-6.2-13.6-13-19.5-20.4c2.5,16.6,10.4,31.3,21,40.9c1.6,1.4,3.2,2.7,4.8,3.9
		c0.7,0.5,1.4,1,2.1,1.4c2.3,1.5,4.8,2.7,7.3,3.7c3.9,1.5,7.9,2.5,12,2.7c0.1,0,0.1,0,0.2,0c-5-2.4-9.8-5.9-14-10.2
		c-0.8-0.8-1.5-1.6-2.3-2.5c-1.3-1.5-2.6-3.2-3.8-4.9c-1.1-1.6-2.2-3.2-3.2-4.9C171.3,730.9,169.7,727.7,168.3,724.2z"/>
	<path class="st0" d="M190.1,299.2l-9.4,14.1c-6.4,9.6-14,18.9-21.6,27.6c-9.1,10.5-18.7,20.6-28.6,30.4c-5.1,5-11.3,11.4-16.6,16.2
		c-1.8,1.6-2.9,4.9,1.4,9.2c1.9,1.9-9.8-2.2-11.9-0.5c-2,1.7-20.8,9.7-25.8,9.8c-16,0.2-27.9-12.8-34.7-8.2
		c-9.6,6.5,2.9,39.1-6.4,25c-22.1-33.2,40.6-147.9,57.6-178.3c1.5-4.9,3.6-10.3,6.6-14.5c4.9-6.9,14.2-11.8,22.4-13.6l77.8-27.4
		l5.2,22.5c2.3-2.3,4.7-4.4,7-6.1c15.1-11.5,33.1-14.8,51.6-10.7l13.4,3L268,207c-9.5,8.6-17.8,18.8-25.6,28.9
		c-8,10.5-15.5,21.4-23.4,32c-6.7,9.1-14.2,18.8-22.7,26.4C194.4,296.1,192.3,297.7,190.1,299.2z"/>
	<path class="st1" d="M263.2,201.8c-28.3,25.7-50.4,68.4-71.6,87.2c-1.8,1.6-4,3.3-6.6,5l-10.2,15.2
		c-25.2,37.8-97.5,107.9-124,112.1c-4.4-5.2-8.2-10.7-11.4-16.4c-0.1-0.1-0.1-0.2-0.2-0.4c-0.1-0.2-0.2-0.3-0.3-0.5
		c-0.3-28.8,22.1-85.8,61.7-156.8c1.7-5.4,3.7-10.1,5.8-13.1c5.9-8.3,18.5-10.8,18.5-10.8l70.7-24.9l6.8,29.1
		C202.5,227.6,221.9,192.6,263.2,201.8z"/>
	<path class="st0" d="M229.4,199.7c-0.9,2.7-0.9,5.4-0.1,7.7c0.6,1.9,1.7,3.6,3.2,5c1.5,1.4,3.3,2.6,5.5,3.3
		c3.4,1.2,7.6,1.2,12.2-0.3l1.4,4.1c-5.5,1.8-10.6,1.7-14.9,0.2c-2.8-0.9-5.2-2.4-7.1-4.3c-2-1.9-3.4-4.2-4.2-6.8
		c-1.1-3.2-1.1-6.8,0.1-10.5L229.4,199.7z"/>
	<path class="st0" d="M212.9,0h153.1c5.6,0,10.2,4.6,10.2,10.2v190c0,5.6-4.6,10.2-10.2,10.2H212.9c-5.6,0-10.2-4.6-10.2-10.2v-190
		C202.7,4.6,207.2,0,212.9,0z"/>
	<path class="st7" d="M212.9,7.1h153.1c1.7,0,3.1,1.4,3.1,3.1v190c0,1.7-1.4,3.1-3.1,3.1H212.9c-1.7,0-3.1-1.4-3.1-3.1v-190
		C209.8,8.5,211.2,7.1,212.9,7.1z"/>
	<path class="st3" d="M369,85.6v114.6c0,1.7-1.4,3.1-3.1,3.1H212.9c-1.7,0-3.1-1.4-3.1-3.1v-47.7C284.1,168.5,338.7,141.1,369,85.6z
		"/>
	<path class="st8" d="M217.1,112.2l0,20.9l68.9-117h-66c-1.5,0-2.8,1.3-2.8,2.8V112.2z"/>
	<path class="st0" d="M214.8,184.5l-25.4,43.6l-24.2-39.4l0.3-2.5c1-7.4,10.9-23.7,15.2-29.9c1.4-2,2.9-4.1,4.4-6
		c2.3-3,4.4-6.1,6.7-9.1c2.2-2.9,4.6-5.4,8.2-6.4c6.2-1.7,12.6,2.6,17.7,5.6l51.4,30.8l-8.9,6.3
		C244.8,188.3,230.7,191.8,214.8,184.5z"/>
	<path class="st1" d="M172.5,187.1c0.5-3.9,8.6-20.2,18.1-32.5c11.2-14.4,8.8-16.8,23.3-8.1l42.1,25.2c-15,10.7-27.7,13.4-43.9,3.3
		l-22.9,39.3L172.5,187.1z"/>
	<path class="st0" d="M152.4,184.8c4-4.3,7.9-9,12.3-13.1c4.3-4,9.7-8.1,16-7c9.7,1.6,12.7,13.8,14.1,21.9c0.6,3.7,0.9,7.7,1.2,11.4
		c0.4,5.5,0.7,11,1,16.5c0.3,5.5,0.5,11,0.8,16.6c1,24-9,23.4-25,36.3l-9.7,7.8L150,187.3L152.4,184.8z"/>
	<path class="st1" d="M157.6,189.7c13.6-14.6,24.9-31,30.1-1.8c1.1,6,2.2,29.1,2.8,43.6c0.8,19.5-5,16.5-22.4,30.4L157.6,189.7z"/>
	<path class="st0" d="M150.7,251.7l-26-46.8l2.1-3.5c1.4-2.4,2.9-4.7,4.5-7c3.3-4.7,7.1-9.5,11.5-13.3c4.5-3.8,10-6.8,16.1-5.9
		c9.7,1.4,13.9,11.5,15.9,19.9c2.1,8.9,5.1,17.5,7.4,26.4c2.2,8.4,3.9,17.1,2.9,25.8c-1.5,12.8-8.7,22.6-18.4,30.7l-2.2,1.8
		l-2.9-0.2c-3.1-0.2-6-1.4-8.1-3.7c-4.6-4.8-3.9-12-3.3-18.1C150.3,255.9,150.6,253.7,150.7,251.7z"/>
	<path class="st1" d="M132.9,205c10.1-17.2,28-37.2,35-8.3c7.4,31,21.7,52.8-5.8,75.7c-8.9-0.7-3.8-14.8-4.3-22.6L132.9,205z"/>
	<path class="st0" d="M132.2,252.2c-1.5-3.1-3.1-6.3-4.6-9.4c-1.1,0.9-5.9-15.4-7.1-14.7c-5.5,3.6-8.8,1.7-13,5.1
		c-2.6,2.1-6.3,12.3-8.9,8.9l-2.3-3.1l1.3-3.6c3-8.3,5.5-17,9-25c3-6.9,7.6-15.4,15.7-16.9c11-2,27.8-0.3,32.3,11.8
		c3.8,10.2,7.5,20.5,11.4,30.7c1.6,4.3,3.9,9,3.8,13.6c-0.1,5-2.8,9.4-5.4,13.5l-15.8,25.2l-4.4-0.5c-2.6-0.3-5.6-1.4-7.8-2.8
		c-5.2-3.4-8-8.8-8.4-14.9C127.8,264.2,129.2,257.6,132.2,252.2z"/>
	<path class="st1" d="M104.4,237.8c6.2-17.4,11-35.8,19.4-37.4c8.4-1.5,21.4-0.5,24.4,7.3c2.4,6.4,6.3,17.3,11.4,30.7
		c4.1,10.6,5.2,11-1,20.8l-13.4,21.4c0,0-9.2-1-9.8-11.1c-0.7-10.1,5.1-16.7,5.1-16.7c-3.6-7.4-7.2-14.8-10.8-22.3
		C129.6,230.6,114.2,250.9,104.4,237.8z"/>
	<path class="st0" d="M275.7,43.7h-13.8c-4.1,9.9-17.3,15.3-33.2,16.4v13.8h27.2v100.3h19.8V43.7L275.7,43.7z M318.2,41.8
		c-19.8,0-31.9,12.5-31.9,33V143c0,20.5,12.1,33,31.9,33c19.8,0,31.9-12.5,31.9-33V74.8C350.1,54.3,338,41.8,318.2,41.8L318.2,41.8z
		 M318.2,60.1c7.8,0,12.1,5.2,12.1,14.9v67.8c0,9.7-4.3,14.9-12.1,14.9c-7.8,0-12.1-5.2-12.1-14.9V75
		C306.1,65.3,310.4,60.1,318.2,60.1z"/>
	<path class="st0" d="M104.9,235.5c-4.8,15-7.9,30.4-12.6,44.7c0.1-9.2-0.1-20.8,1.8-30.1c1.3-6.2,4.6-10.2,6.1-16.1
		c0.4-1.3,1.8-2,3.1-1.6C104.5,232.8,105.3,234.2,104.9,235.5z"/>
	<path class="st0" d="M220.8,265.3c-4,8.3-12.3,15.1-17.8,20c-14.2,12.6-29.6,15.4-51,16.6c14.9-5.2,27.7-7.7,40.4-18
		c5.5-4.4,17.5-10.9,21.9-21.4c0.8-1.8,2.8-2.6,4.6-1.9C220.7,261.4,221.6,263.5,220.8,265.3z"/>
	<path class="st0" d="M110.2,388.3c-1.7,18.8-14.1,44.1-13.8,43l-0.1,0c2.7-14.5,6.6-28.2,6.8-43c0-1.9,1.6-3.5,3.5-3.5
		C108.6,384.8,110.2,386.4,110.2,388.3z"/>
	<path class="st0" d="M125.1,263.2c0.4-10.3-6.1-19.3-14.6-20c-8.4-0.7-15.5,7.1-15.9,17.4c-0.4,10.3,6.1,19.3,14.6,20
		C117.7,281.3,124.8,273.5,125.1,263.2z"/>
	<path class="st1" d="M121.5,262.9c-0.3,7.9-5.7,13.8-12.1,13.3c-6.4-0.5-11.4-7.3-11.1-15.2c0.3-7.9,5.7-13.8,12.1-13.3
		C116.8,248.2,121.8,255,121.5,262.9z"/>
	<path class="st0" d="M116.7,254.6c-3.4-4.7-9.2-5.1-12.9-1.1c-3.7,4.1-4,11.2-0.6,15.8c3.4,4.7,9.2,5.1,12.9,1.1
		C119.8,266.3,120.1,259.2,116.7,254.6z"/>
	<path class="st1" d="M115.3,256c2.7,3.7,2.5,9.4-0.4,12.7c-3,3.3-7.6,2.9-10.3-0.9c-2.7-3.7-2.5-9.4,0.5-12.7
		C108,251.9,112.6,252.3,115.3,256z"/>
	<path class="st0" d="M115.3,256c0.3,0.5,0.6,0.9,0.9,1.4l-10.6,11.6c-0.4-0.4-0.7-0.8-1.1-1.2c-0.3-0.5-0.6-0.9-0.9-1.4l10.6-11.6
		C114.6,255.2,115,255.6,115.3,256z"/>
	<path class="st0" d="M224.5,187c-12.9-7.3-21.4-8.7-21.2-26l0.3-2.9c3.3,5.1,4.2,11.5,7.9,15.4c2.2,2.3,14,6.3,16.9,7.6
		c1.6,1.1,2.1,3.2,1.1,4.9C228.3,187.6,226.1,188,224.5,187z"/>
	<path class="st0" d="M210.3,182.4c-1.1-0.5-15.1-6.9-12.6-9.8c2.9,0.1,11.3,2.4,14.5,3c1.9,0.5,3,2.5,2.4,4.4
		C214.1,181.8,212.2,182.9,210.3,182.4z"/>
	<path class="st5" d="M87.7,285.1C74.9,305.7,42.5,370.9,43.8,395l1.5,9.8c9.1-31.2,32.9-84.5,53-112c2.1-2.9,1.4-7-1.5-9.1
		C93.9,281.5,89.8,282.2,87.7,285.1z"/>
	<path class="st0" d="M136.7,245.8c1.9,4.8,4.8,7.8,8,9.5c2.6,1.4,5.5,1.9,8.1,1.7c2.7-0.2,5.1-1,7-2.2c1.6-1.1,2.8-2.4,3.1-3.8
		l4.2,0.9c-0.6,2.6-2.4,4.9-5,6.5c-2.5,1.6-5.7,2.7-9.1,2.9c-3.4,0.2-7-0.4-10.4-2.2c-4-2.1-7.7-5.9-10-11.8L136.7,245.8z"/>
	<path class="st0" d="M131.3,230.6c2.3,3.7,6.1,5.6,10,6.1c2.5,0.3,5,0.1,7.2-0.6c2.2-0.7,4.1-1.8,5.4-3.2c1.4-1.6,2.2-3.6,1.9-6
		l4.3-0.6c0.5,3.8-0.7,7-3,9.5c-1.9,2-4.4,3.5-7.3,4.4c-2.8,0.9-6,1.1-9,0.7c-5.1-0.7-10-3.3-13.1-8.1L131.3,230.6z"/>
	<path class="st0" d="M159.8,223.7c1.9,0.3,3.8,0.4,5.6,0.1c2.2-0.3,4.1-1,5.6-2.2c1.4-1.1,2.4-2.6,2.7-4.6c0.2-1,0.2-2.1,0-3.3
		l4.3-0.6c0.2,1.7,0.2,3.2,0,4.6c-0.5,3.1-2.1,5.5-4.3,7.3c-2.1,1.7-4.8,2.7-7.7,3.1c-2.2,0.3-4.5,0.3-6.8-0.1L159.8,223.7z"/>
	<path class="st0" d="M166.2,251.6c1.1,0,2.2,0,3.2-0.1c2.3-0.3,4.4-1.1,6-2.5c1.5-1.4,2.9-3.8,3.3-10.3l3.3,2.1
		c0.1,1,0.2,2,0.1,2.9c-0.2,3.6-1.6,6.4-3.9,8.4c-2.2,1.9-5.1,3.1-8.2,3.5c-1.3,0.2-2.6,0.2-4,0.2L166.2,251.6z"/>
	<path class="st0" d="M177.9,211.6c1,0,2,0,2.9-0.2c2.4-0.3,4.5-1.2,6-2.5c1.4-1.3,2.3-3.1,2.4-5.5c0-0.6,0-1.3-0.1-2l4.3-0.6
		c0.1,0.9,0.2,1.9,0.2,2.7c-0.1,3.7-1.6,6.5-3.8,8.6c-2.2,2-5.1,3.1-8.3,3.6c-1.2,0.2-2.4,0.2-3.6,0.2L177.9,211.6z"/>
	<path class="st0" d="M182.8,236.7c0.2,0,0.4,0,0.6-0.1c2.6-0.4,4.9-1.3,6.4-2.9c1.5-1.5,2.3-3.7,2-6.6c0-0.2,0-0.3-0.1-0.5l4.3-0.6
		c0,0.2,0.1,0.4,0.1,0.7c0.4,4.3-0.8,7.6-3.2,10.1c-2.2,2.3-5.4,3.7-8.9,4.2c-0.2,0-0.5,0.1-0.8,0.1L182.8,236.7z"/>
	<path class="st0" d="M122.4,238.8c3.6-5.4,4.9-13.8,10.6-17.1c-2,3.6-4.1,24.9-10.7,24C120.3,245.5,121.7,240.6,122.4,238.8z"/>
	<path class="st0" d="M211.7,214.2c0.1,3.2,0.6,6.6,1.6,9.7c1.3,3.9,3.3,7.4,6,9.9c2.6,2.4,5.7,3.9,9.5,3.8c1.5,0,3.2-0.3,4.9-0.9
		l1.4,4.1c-2.2,0.7-4.2,1.1-6.2,1.1c-5,0.1-9.2-1.8-12.5-5c-3.2-3-5.6-7.2-7.1-11.7c-1.2-3.5-1.8-7.3-1.8-11L211.7,214.2z"/>
	<path class="st2" d="M183,296.9c-17.4,4.7-32.9,5-42.4,5.9c0,0-22.6,47.3-40,74.7c-2,3.1-3.9,6-5.7,8.5c-2.5,3.5-4.9,6.4-6.9,8.2
		c-6.7,6.3-9.7,10.5-8.3,11.4c0.1,0.1,0.2,0.1,0.3,0.1c0.1-0.1,0.3-0.2,0.4-0.3c5.9-4.3,12.1-9.3,18.6-14.8
		c26.8-22.9,56.8-52.8,75.9-81.4L183,296.9z"/>
	<path class="st0" d="M147.7,515.5c9-11.1,6.1-15.9,3.7-30.3c8.6,14.6,11.1,20.3,1.8,34.7c-1.2,1.5-3.4,1.8-5,0.5
		C146.7,519.2,146.5,517,147.7,515.5z"/>
	<path class="st0" d="M347.7,493.9c-2.2,4.9-8.9-5.2-14.8,2.4c-9,7.6-13.1,23.1-14.9,32.8c-2.8,14.9-1,34.2,3.6,48.9
		c1,3.2,3.6,9.5,6.2,11.9c1.1,1.1,1.7,2.5,1.6,4l-5.1,63.9l19.5,100.5c0.8,3.9,0.2,12.5-0.7,16.5c-0.8,3.8-2.5,7.2-5.1,10
		c-11.4,12.6-35.5,9.6-50.1,4.7c-4.9-1.6-14.2-10.9-18-14.6c-4.4-4.3-14.9-15.1-19.1-19.5l-24.5-0.3l-6.5,14.9
		c-5,5.6-16.5,7.3-23.6,7.3c-7.4-0.1-15.8-2-21-7.7c-25.1-27.8-42.2-76.5-49.4-113.1c-0.1-0.5-3.2-3.8-3.6-4.3
		c-3.6-4.1-4.8-9.2-4.5-14.5c0.1-2.1,0.8-4.1,1.6-6c0.3-0.7,0.9-2.1,0.9-2.9c0.6-9.1,1.7-18.4,3.1-27.4c1.7-11.5,3.8-23.1,6.4-34.4
		c2.5-11.1,5.4-22.2,9.2-33c3.1-8.8,7.1-18.3,12.5-25.9c1.6-2.2,4.3-3.2,6.8-4.1c0.6-0.2,0.3-1.2,1-1.5c7.7-13.7,21.6-37.3,29-43.9
		c1.2-1.1,1.3-1.7,2.8-1.4l13.4-0.2c3.5,0.6,4.6,3.8,3.9,6.9c-0.2,0.8-0.4,1.6-0.7,2.4c-0.6,2.1-2.7,4-3.4,6.2
		c-0.7,2.3-1.7,5-2.1,7.3c-1.5,7.7-2.4,16.1-1.4,24c2.2,17.8,13.1,24.6,30.6,24.4c26.4-0.4,58.9-21.9,78.2-42.3
		c2.7-2.9,5.7-12.9,6.1-12.7C320.6,475.1,343.3,485.6,347.7,493.9z"/>
	<path class="st9" d="M191.3,462.1c-11.8,13.4-16.4,28.3-27.2,44.4c-1.2,1.8-7.4,2.3-8.9,4.4c-17.9,25-28.5,90.8-30.2,118.2
		c-0.2,2.8-2.3,6.2-2.5,8.9c-0.1,2.7,0.2,4.9,0.8,6.7c45.7,35.7,125.2,45.2,178.8,24.6c7.1-2.7,12-5.3,17.5-8.7l-0.5-2.5l5.2-64.6
		c0.8-10-9.8-21.2-13.4-33.4c-3.4-11.5,0.2-24,2.7-35.7c3.3-15.7,13.4-30.5,19.3-33.6c0.9-0.5,1.1-1.2,0.3-1.6l-14.1-6.6
		c0,0-46.5,51.1-88,50.3c-41.3-0.8-37.4-37.1-34.1-54.3c0.9-4.4,5.5-15.7,4.9-15.8L191.3,462.1L191.3,462.1z M131.2,658.4
		c47.1,28.3,116.5,34.2,166.2,15.5c8.6-3.2,15.8-6.7,22.5-12l18.9,97.3c0.6,3.3-0.1,11.8-0.6,14.5c-3.7,17.4-29.3,17.5-48.7,11
		c-4.6-1.6-20.5-17.7-27.7-25.1c0,0,0-0.1,0-0.1c0-1.9-7.5-10-9.5-10c-29.6,0.7-31.5-0.3-58.8-12.1c10.5,8.9,17.9,14.5,27.9,16.6
		l-5.4,12.7c-3,7.2-28.6,9.1-37.2-0.5C156,741,139,696,131.2,658.4z"/>
	<linearGradient id="SVGID_1_" gradientUnits="userSpaceOnUse" x1="177.4857" y1="739.9741" x2="56.1002" y2="555.9937">
		<stop  offset="0" style="stop-color:#C92F27"/>
		<stop  offset="1" style="stop-color:#FFFFFF"/>
	</linearGradient>
	<path class="st10" d="M146.6,666.5c-0.1,13.6,6.6,44.2,23.5,77.6c5.5,10.9,10.3,19.4,14.4,26.1c-2.2-1-4.2-2.3-5.7-3.9
		C156,741,139,696,131.2,658.4C136.1,661.3,141.2,664,146.6,666.5z"/>
	<path class="st11" d="M253.4,679.5c17.4-1.2,34.1-4.6,48.8-10.3c1.8-0.7,3.5-1.4,5.1-2.1c-21-18.7-44.1-33.7-50.4-15.2
		C253.9,660.8,253,670.3,253.4,679.5L253.4,679.5z M191.3,772.1c4.5-6.7,2.9-26.5,1.6-34.1c10.4,6.9,20.4,9.6,30.4,12.7l-7.3,16
		C213.8,771.5,201.7,774,191.3,772.1L191.3,772.1z M193,738.1c-0.2-1-0.4-0.7-0.6-1.1c-1.8-5,16.5,5.9,41.2,5.5
		c5.7-0.1,10.2-0.4,13.7-0.9c23.2-3.1-3.3-44.2-8.8-57c1.1-0.1,17.3-1.1,18.4-1.3c14.3-1.6,28-4.8,40.4-9.4
		c4.2-1.6,8.1-3.2,11.8-5.1c5.2,4.8,10.3,9.7,14.9,14.3l14.8,76.1c0.6,3.3-0.1,11.8-0.6,14.5c-3.7,17.4-29.3,17.5-48.7,11
		c-4.6-1.6-20.5-17.7-27.7-25.1c0,0,0-0.1,0-0.1c0-1.9-7.5-10-9.5-10C223.2,750.2,219.1,749.3,193,738.1z"/>
	<g>
		<path class="st0" d="M381.2,318.9c-37.2,51-85.4,107-94.2,163.4c-3.5,22.6-48.8,14.3-63.9,3.9c-30.5-21,44.6-105.8,89.8-143.8
			c12.9-10.9,24.8-16.8,29.3-17.8C359.7,320.9,380.6,321.9,381.2,318.9z"/>
		<path class="st0" d="M369,326.7c-6.6,0.5-13.1,1-19.6,2c-2,0.3-4.1,0.7-6.1,1.1c-2.9,0.6-7.5,3.1-10,4.6c-6,3.4-11.7,7.6-17,12.1
			c-16.7,14-32.6,30-47.1,46.3c-7.5,8.5-14.8,17.2-21.6,26.2c-6,8-11.8,16.4-16.7,25.2c-4.4,7.9-13.2,25.5-7.9,34.5
			c0.8,1.4,1.9,2.5,3.2,3.4c6.5,4.5,17.3,7.4,25,8.6c8.3,1.3,28.9,2.9,30.7-9.1c3.2-20.8,11.5-40.8,21.4-59.2
			c10.6-19.8,23.5-38.6,36.8-56.8C349.5,352.5,359.4,339.6,369,326.7z"/>
		<path class="st1" d="M306.9,354.5c4.5,1.2,10.2,3.1,15.9,5.8c5,2.4,10.1,5.4,14.4,9.1c-0.8,1.1-1.6,2.3-2.4,3.4
			c-4.1-3.6-8.9-6.5-13.7-8.8c-6.8-3.2-13.4-5.2-17.9-6.2C304.4,356.8,305.6,355.7,306.9,354.5L306.9,354.5z M288.8,371.8
			c-1.2,1.2-2.4,2.4-3.6,3.7c5.4,0.6,11.1,2.3,16.8,5c6.4,3.1,12.7,7.5,18.6,13.1c0.8-1.2,1.6-2.3,2.3-3.5
			c-6.1-5.7-12.6-10.2-19.1-13.4C298.7,374.3,293.7,372.6,288.8,371.8L288.8,371.8z M267.9,394.1c-1,1.2-2.1,2.4-3.1,3.5
			c7.9,1.8,15.4,4.3,22.5,7.5c6.7,3,13.1,6.8,19.2,11.3c0.7-1.2,1.4-2.4,2.1-3.6c-6.2-4.6-12.8-8.4-19.6-11.5
			C282.2,398.3,275.2,395.9,267.9,394.1L267.9,394.1z M249.1,416.8c-0.5,0.7-1,1.4-1.6,2.1c-0.3,0.4-0.6,0.8-0.9,1.2
			c3.8,2.2,9.4,4.7,15.6,7.2c11.2,4.6,24.5,9.3,32.7,11.9c0.6-1.3,1.1-2.5,1.7-3.8c-8.1-2.6-21.6-7.4-32.9-12
			C257.8,421,252.5,418.7,249.1,416.8L249.1,416.8z M233.8,438.9c4.6,4.3,13.2,8.4,22.7,11.6c11.2,3.8,23.5,6.2,31.7,5.9
			c-0.5,1.4-0.9,2.7-1.3,4.1c-8.8-0.1-20.8-2.4-31.7-6.1c-9.4-3.2-18.1-7.4-23.4-12C232.4,441.3,233.1,440.1,233.8,438.9z"/>
		<g>
			<path class="st0" d="M227,454.6c-0.9,1.6-0.4,4.8,0,6.6c1.4,2,7.6,4.8,9.7,5.6c6.9,2.7,14.6,4.2,22,4.5c3.4,0.2,6.8,0.1,10.1-0.2
				c4.4-0.4,15.2-2,17.4-6.5c0.2-0.4,0.3-0.8,0.4-1.2c0.2-1.2,0.3-2.4,0.4-3.5c0-0.6,0.1-1.3,0.1-1.9c0.4-3.2,2.6-5.9,6.2-6.1
				c5.9-0.4,11.4,1.5,15.7,5.5c5,4.7,7.1,11.5,6.4,18.2c-0.8,7.7-5.3,14.3-11.6,18.8c-12.1,8.8-28.7,12.1-43.6,12.3
				c-12.3,0.2-25.6-1.8-36.9-6.3c-9.7-3.9-19.8-10.6-22.9-20.9c-0.8-2.7-1-5.4-0.8-8.2c1.3-13.8,5.5-23.8,21.1-26.2
				c2.6-0.4,6.4-0.6,7.8,1.6C229.7,448.7,228.3,452.5,227,454.6L227,454.6z M226.8,454.8"/>
			<path class="st1" d="M221.6,451.2c-12.3,1.9-14.7,9.6-15.7,20.6c-2.5,27.5,64.6,38.9,94,17.6c16-11.6,9.2-32.2-6.2-31.3
				c-0.5,0,0.1,5.6-1.7,9.2c-4.2,8.7-21,10.9-33.6,10.3c-19.4-0.9-36-9-37.5-14.5C218.7,455.1,221.6,451.2,221.6,451.2z"/>
			<path class="st0" d="M215.4,470.3c2.3,0.1,4,2,4,4.2c-0.1,2.2-2,4-4.3,3.9c-2.3-0.1-4-2-4-4.2
				C211.2,471.9,213.1,470.2,215.4,470.3L215.4,470.3z M298.2,474.5c2.3,0.1,4,2,4,4.2c-0.1,2.2-2,4-4.3,3.9c-2.3-0.1-4-2-4-4.2
				C294,476.1,296,474.4,298.2,474.5L298.2,474.5z M283.5,482.6c2.3,0.1,4,2,4,4.2c-0.1,2.2-2,4-4.3,3.9c-2.3-0.1-4-2-4-4.2
				C279.3,484.2,281.3,482.5,283.5,482.6L283.5,482.6z M265.6,486.1c2.3,0.1,4,2,4,4.2c-0.1,2.2-2,4-4.3,3.9c-2.3-0.1-4-2-4-4.2
				C261.4,487.7,263.3,486,265.6,486.1L265.6,486.1z M246.3,484.5c2.3,0.1,4,2,4,4.2c-0.1,2.2-2,4-4.3,3.9c-2.3-0.1-4-2-4-4.2
				C242.1,486.1,244,484.4,246.3,484.5L246.3,484.5z M229.1,478.9c2.3,0.1,4,2,4,4.2c-0.1,2.2-2,4-4.3,3.9c-2.3-0.1-4-2-4-4.2
				C224.9,480.6,226.8,478.8,229.1,478.9z"/>
			<path class="st5" d="M220.6,458.2c-2.4,19.6,52.2,26,68.9,14.7l1.6-1.1c-7.9,16.7-79.7,16-77.3-14.8c0.3-1.8,2.1-3.1,4-2.8
				C219.7,454.6,220.9,456.3,220.6,458.2z"/>
		</g>
	</g>
	<g>
		<path class="st0" d="M311.9,202.1c42.6-2.3,79,30.5,81.2,73.1c2.3,42.6-30.5,79-73.1,81.2c-42.6,2.3-79-30.5-81.2-73.1
			C236.6,240.7,269.3,204.3,311.9,202.1z"/>
		<ellipse transform="matrix(0.9682 -0.2501 0.2501 0.9682 -59.7902 87.8988)" class="st2" cx="316" cy="279.2" rx="71" ry="71"/>
		<path class="st1" d="M312.2,208.3c-34,1.8-61.1,27.2-66.3,59.4c6.8,34,37.7,58.7,73.4,56.8c34-1.8,61.1-27.2,66.3-59.4
			C378.8,231.2,347.9,206.4,312.2,208.3z"/>
		<path class="st0" d="M255.7,236.3c-10.5,13.1-13.3,36.9-12.8,46.8c0.5,9.8,2.4,3.1,2.6,4.6c14.7-16.2,19.7-11.8,27.2-7.9
			c7.7,4,9.8,18.5,30.2,20.5c20.4,2,45.6-31.1,30.2-46.7c-12.1-12.2-44.5-21.2-68.4-19.2C263.3,234.6,257.1,236.1,255.7,236.3z"/>
		<path class="st1" d="M314.9,262.2c-6.3,0.3-11.2,5.7-10.8,12.1c0.3,6.3,5.7,11.2,12.1,10.8c6.3-0.3,11.2-5.7,10.8-12.1
			C326.6,266.7,321.2,261.8,314.9,262.2z"/>
		<path class="st0" d="M316.7,311.2c2.1,0.5,7.1,0.3,9.2,0.3c5.8,0.1,15.7-0.3,18,6.5c0.5,1.6,0.5,3.3,0,4.9
			c-2.4,6.9-12.8,12.7-18.9,16c-10.1,5.5-21.1,10.1-31.8,14.3c-7.2,2.8-14.4,5.5-21.6,8c-17.7,6.2-35,11.8-54,9.9
			c-5.5-0.5-11.8-2.2-14.1-7.9c-2.1-5.1,0.4-10.2,3.4-14.3c3.5-4.8,8.3-9.4,12.7-13.5c8.2-7.5,20.6-19.3,24.9-29.8
			c2.5-6.1,5.8-12.7,10.1-17.7c3.7-4.3,8.6-7.9,14.6-7.6c9.7,0.6,14.9,10.8,17.6,18.8C290.5,309.9,307.8,307.1,316.7,311.2z"/>
		<path class="st3" d="M280.9,301.3c5.3,15.1,25.3,11.8,33.3,15.7c3.9,1.9,25.4-0.9,23.8,4c-3.1,9.2-40.5,24.8-68.4,34.5
			c-16.7,5.8-33.3,11.4-51.3,9.6c-15-1.5-10.5-10.2,5.6-24.9c16.4-15.1,23.3-24.4,26.5-32C260,284.3,272.8,277.9,280.9,301.3z"/>
		<path class="st0" d="M318.5,317.5c-0.6,3.3-3.6,6.1-6.1,8.2c-4.2,3.4-9.1,6.5-13.7,9.3c-13.7,8.3-28.6,15.8-43.3,22.3
			c-15.1,6.6-33.7,13.7-50.1,15.7c-7.7,0.9-22.6,2.6-26.3-6.5c-2.7-6.9,3.3-14.1,7.7-18.8c5.7-6.1,12.2-11.8,18.5-17.4
			c1.4-1.3,2.9-2.6,4.3-3.9c7.1-6.5,26.9-24.5,30.5-33.2c2.3-5.6,5.5-11.5,9.9-15.8c3.8-3.7,8.6-6.4,14-6.1c2.8,0.1,5.4,1,7.8,2.4
			c4.4,2.6,8.2,5.7,11.9,9.2c2.7,2.5,5.5,5.3,8.5,7.5c3.4,2.5,6.7,3.9,10.9,4.4c6.8,0.9,14.7-0.5,21.3-2.1
			c4.4-1.1,10.1-1.8,12.5,3.3c2,4.4-1.1,8-4.2,10.7c-2.2,2-4.7,3.8-7.1,5.6c-1.7,1.3-3.5,2.6-5.2,4
			C319.7,316.6,319.1,317,318.5,317.5z"/>
		<path class="st4" d="M310.6,319c-11.1,10.8-71.6,43.6-106.1,47.7c-39.1,4.7-12.3-16.1,9.1-35.8c16.4-15.1,28.9-27.8,32-35.4
			c6.4-15.5,15.1-21.1,22.7-16.5c19.4,11.7,19.6,28.7,57.2,19.7C340.9,295,315,314.7,310.6,319z"/>
		<path class="st0" d="M330.4,290.9c10.2-0.5,18.9,7.3,19.4,17.5c0.5,10.2-7.3,18.9-17.5,19.4c-10.2,0.5-18.9-7.3-19.4-17.5
			C312.4,300.1,320.2,291.4,330.4,290.9z"/>
		<g>
			<path class="st1" d="M330.6,295.3c-7.8,0.4-13.7,7-13.3,14.8c0.4,7.8,7,13.7,14.8,13.3c7.8-0.4,13.7-7,13.3-14.8
				C345,300.8,338.4,294.9,330.6,295.3z"/>
			<path class="st0" d="M338.8,301.1c4.5,4.1,4.9,11.1,0.8,15.6c-4.1,4.5-11.1,4.9-15.6,0.8c-4.5-4.1-4.9-11.1-0.8-15.6
				C327.2,297.4,334.2,297,338.8,301.1z"/>
			<path class="st1" d="M337.3,302.7c-3.6-3.3-9.2-3-12.5,0.7c-3.3,3.6-3,9.2,0.7,12.5c3.6,3.3,9.2,3,12.5-0.7
				C341.2,311.6,340.9,306,337.3,302.7z"/>
			<path class="st0" d="M337.3,302.7c-0.4-0.4-0.9-0.7-1.4-1l-11.6,12.9c0.3,0.5,0.7,0.9,1.2,1.3c0.4,0.4,0.9,0.7,1.4,1l11.6-12.9
				C338.1,303.5,337.7,303.1,337.3,302.7z"/>
		</g>
		<path class="st0" d="M319.8,265.9c-2.7,0.1-4.8,2.5-4.7,5.2c0.1,2.7,2.5,4.8,5.2,4.7c2.7-0.1,4.8-2.5,4.7-5.2
			C324.9,267.8,322.5,265.7,319.8,265.9z"/>
		<path class="st1" d="M256.5,258.2c-2.5-0.7-5.6,2.7-6.9,7.6c-1.3,4.8-0.2,9.3,2.3,9.9c2.5,0.7,5.6-2.7,6.9-7.6
			C260.1,263.3,259.1,258.8,256.5,258.2z"/>
		<path class="st0" d="M257.6,261.7c-1.1-0.3-2.4,1.2-3,3.3c-0.5,2.1-0.1,4,1,4.3c1.1,0.3,2.4-1.2,3-3.3
			C259.2,263.9,258.7,262,257.6,261.7z"/>
		<path class="st5" d="M368,272.9c-1.7-30.5-20.6-49.3-49.4-57.4c-16.7-4.7,4.1,1.7-13.3-3.7c9.4-2,11.3-2.2,21-0.4
			c32,5.9,51.7,29.1,55.7,60.9c0.2,3.9-2.8,7.2-6.7,7.3C371.5,279.8,368.2,276.8,368,272.9z"/>
		<path class="st8" d="M264,290.6c-9.6,21.2-15.3,23.8-33.1,37.9c-12.1,9.6-24.5,20.2-38,27.6c8.1-13.5,20.3-24.1,31.4-35.1
			c14.2-14,19.5-16.3,26.3-35.2c1.3-3.7,5.3-5.6,9-4.3C263.4,282.9,265.3,286.9,264,290.6z"/>
	</g>
	<g>
		<path class="st0" d="M493.9,506.7c9.1,29.1,14.5,59.6,16.2,90.1c0.9,15.8,0.7,31.7-0.4,47.5c-1.2,15.7-3.4,31.3-6.7,46.7
			c-15.7,73.4-47.8,90.6-110.6,122.7c-2.2,1.1-4.7,1.2-7,0.3c-67.8-28-100.1-42.8-121.5-117.6c-8.5-29.6-12.9-60.3-13.6-91.1
			c-0.6-29.9,2.3-59.9,8.8-89.1c0.5-2.2,1.8-4,3.7-5.2c1.9-1.2,4.1-1.6,6.3-1c25.7,6.1,51,3,73.7-10.8c7-4.2,13.5-9.3,19.2-15.1
			c2.2-2.2,4.5-4.6,6.4-7.2c1.5-2.1,3.8-3.3,6.4-3.4c2.6-0.1,5,0.9,6.7,2.9c2.1,2.4,4.5,4.6,6.9,6.6c6.2,5.3,13.1,9.8,20.4,13.5
			c23.8,11.9,49.2,12.9,74.3,4.7c2.2-0.7,4.4-0.5,6.4,0.5C491.8,502.9,493.3,504.5,493.9,506.7z"/>
		<path class="st0" d="M491.9,507.4c18.2,58.4,21.9,123.3,9,183.2c-15.5,72.6-47.1,89.4-109.5,121.3c-1.7,0.9-3.5,0.9-5.2,0.2
			c-67.4-27.8-99.1-42.3-120.3-116.2c-16.5-57.6-17.8-120.7-4.7-179.1c0.4-1.7,1.3-3,2.8-3.9c1.5-0.9,3.1-1.2,4.8-0.8
			c26.3,6.3,52.1,3.1,75.3-11c7.1-4.3,13.8-9.5,19.6-15.4c2.2-2.2,4.7-4.9,6.6-7.4c1.2-1.6,2.8-2.5,4.8-2.6c2-0.1,3.7,0.7,5,2.2
			c2.1,2.4,4.8,4.8,7.2,6.9c6.3,5.4,13.4,10,20.8,13.7c24.3,12.1,50.2,13.2,75.9,4.8c1.7-0.5,3.3-0.4,4.8,0.4
			C490.4,504.5,491.4,505.7,491.9,507.4z"/>
		<path class="st1" d="M267.4,518.1c-15.5,69-8.1,131.8,4.6,176c20.2,70.5,48.7,84.1,116.6,112.1c63-32.3,91.4-48,106.2-117.1
			c9.7-45.3,12.8-110.4-8.9-180C418,531.4,375.4,482,375.4,482S336.9,534.7,267.4,518.1z"/>
		<path class="st2" d="M280.7,528c24.8,2.8,49.1-2.3,70.5-15.3c6.9-4.2,13.5-9.2,19.5-14.7c3-2.8,7.6-3,10.8-0.4
			c6.4,5,13.3,9.4,20.6,13.1c22.3,11.2,47,14.3,71.5,9.5c4.3-0.9,8.6,1.8,9.7,6c11.5,43.6,14.7,89.5,9.1,134.2
			c-2.2,17.9-5.8,35.7-11.4,52.9c-14.9,46-49.5,61.9-89,83c-2.3,1.2-4.9,1.3-7.3,0.3c-41.2-17.9-76.9-30.8-95.5-75.5
			c-6.9-16.7-12-34.1-15.7-51.8c-9.2-44.1-9.8-90.2-1.9-134.5C272.3,530.5,276.3,527.5,280.7,528z"/>
		<path class="st0" d="M280.2,532.1c25.8,3,50.9-2.4,73.1-15.8c7.1-4.3,14-9.5,20.1-15.2c1.5-1.4,3.8-1.5,5.4-0.2
			c6.6,5.1,13.9,9.8,21.3,13.5c23.3,11.6,48.7,14.9,74.2,9.8c2.2-0.4,4.3,0.9,4.8,3c11.4,43,14.5,88.5,9,132.6
			c-2.2,17.6-5.8,35.2-11.2,52.1c-14.4,44.7-48.6,60-87,80.6c-1.2,0.6-2.4,0.7-3.6,0.1c-40-17.4-75.3-29.9-93.3-73.3
			c-6.8-16.4-11.8-33.7-15.4-51c-9.1-43.6-9.7-89.1-1.9-132.9C276,533.4,278,531.9,280.2,532.1z"/>
		<path class="st4" d="M475.1,528.3c-26.1,5.2-52.3,2.1-76.8-10.2c-7.1-3.5-14.9-8.4-22-13.9c-6.6,6.1-14,11.6-20.8,15.7
			c-23.4,14.2-49.3,19.4-75.7,16.4c-7.7,43.3-7.1,88.3,1.9,131.3c3.6,17,8.5,34.2,15.2,50.3c17.3,41.6,50.8,53.5,91.1,71
			c38.8-20.8,71.2-35.4,85-78.2c5.3-16.6,8.9-34.1,11-51.4C489.4,615.7,486.4,570.8,475.1,528.3z"/>
		<path class="st7" d="M475.1,528.3c-26.1,5.2-52.3,2.1-76.8-10.2c-7.1-3.5-14.9-8.4-22-13.9c-6.6,6.1-14,11.6-20.8,15.7
			c-23.4,14.2-49.3,19.4-75.7,16.4c-5,28.1-6.5,56.9-4.5,85.4c43.8,27.8,110.2,44,183.9,41c8.3-0.3,16.6-0.9,24.7-1.7
			c0.1-0.5,0.1-1.1,0.2-1.6C489.4,615.7,486.4,570.8,475.1,528.3z"/>
		<path class="st3" d="M352.3,742c-17.3-6.9-33.1-18.1-45.3-33.4c-1.9-2.3-3.6-4.8-5.3-7.3c-3.1-4.6-5.9-9.6-8.3-14.9
			c-0.5-1.2-1-2.3-1.5-3.5c-0.3-0.6-0.5-1.2-0.8-1.8c-0.7-1.7-1.3-3.3-2-5c-0.8-2-1.5-4-2.2-6c-4.3-12.2-7.7-24.9-10.3-37.4
			c-0.3-1.5-0.6-3-0.9-4.5c1.2,13.3,3.1,26.5,5.9,39.6c0.2,1,0.4,1.9,0.6,2.9c0.4,2,0.9,4.1,1.4,6.1c0.4,1.7,0.8,3.5,1.3,5.2
			c0.5,1.8,1,3.7,1.5,5.5c2.9,10.4,6.3,20.7,10.4,30.6c1.6,3.8,3.3,7.3,5.1,10.6c3.5,6.3,7.5,11.9,11.8,16.8c2.9,3.3,6,6.3,9.2,9
			c0.1,0.1,0.1,0.1,0.2,0.2c0.1,0.1,0.2,0.2,0.3,0.3c1.9,1.6,3.9,3.1,5.9,4.6c0.1,0.1,0.2,0.2,0.4,0.3c4.8,3.5,9.9,6.6,15.2,9.5
			c1.1,0.6,2.3,1.3,3.5,1.9c0.7,0.4,1.4,0.8,2.2,1.1c1.9,1,3.8,1.9,5.8,2.8c4,1.9,8.2,3.8,12.5,5.7c2.8,1.2,5.7,2.5,8.7,3.8
			c0.9,0.4,1.8,0.8,2.7,1.2c1.3,0.6,2.6,1.1,3.9,1.7c1.1,0.5,2.2,0.9,3.3,1.4c0.2,0.1,0.4,0.2,0.7,0.3c2-1.1,4-2.2,6-3.2
			c34.2-18.2,62.8-32.9,76.9-69C454,737,429.7,747.9,404,749.9c-2.2,0.2-4.3,0.3-6.5,0.3c-12.3,0.2-24.7-1.5-36.6-5.2
			c-0.1,0-0.2-0.1-0.3-0.1c-2.4-0.8-4.8-1.6-7.2-2.5c-0.1,0-0.2-0.1-0.3-0.1C352.9,742.2,352.6,742.1,352.3,742z"/>
		<path class="st8" d="M284.8,543.5c-4.5,40.4-5.6,78.8,1,99.7c6.6,20.9,6.6,20.9,6.6,20.9L377.5,511
			C377.5,511,345.9,547.6,284.8,543.5z"/>
	</g>
	<path class="st11" d="M243.7,632.3c0.9,16.7,2.2,43-18.7,47.3c3.2,0.2,6.5,0.3,9.7,0.4c2.2,0,4.4,0,6.6,0c6.1-0.1,12.2-0.4,18.2-1
		c-0.2-0.7-0.3-1.4-0.5-2.2c-0.4-1.7-0.8-3.4-1.1-5.1c-0.4-2-0.8-4.1-1.2-6.2c-3.8-19.8-5.8-40-6.2-60.2c0-1,0-2-0.1-3
		c0-3.7,0-7.3,0-11c0-2.9,0.1-5.8,0.2-8.7c0.1-1.6,0.1-3.2,0.2-4.8c0.9-16.8,2.9-33.6,6-50.2C240.5,534.2,243.1,621.1,243.7,632.3z"
		/>
	<path class="st2" d="M293.5,500.1c-21.1,9.2-50.4,8.2-70.3,0.2c-2.5-1-5-2.2-7.4-3.6c-1.1-0.6-2.2-1.3-3.2-2
		c-4.7-3.2-8.8-7.3-11.1-12.4c-0.6,3.5-1,7.1-1.2,10.7c1.8,2.3,3.9,4.4,6.3,6.2c1.1,0.8,2.2,1.6,3.4,2.4c2.9,1.8,6,3.3,9.1,4.5
		c12,4.8,27.3,7.1,42.2,6.1c0.5-0.5,1-1,1.7-1.4c1.9-1.2,4.1-1.6,6.3-1c1.3,0.3,2.7,0.6,4,0.9c2.8-0.5,5.5-1.2,8.1-2
		C285.7,506.2,289.7,503.2,293.5,500.1z"/>
	<linearGradient id="SVGID_2_" gradientUnits="userSpaceOnUse" x1="127.9126" y1="687.0777" x2="198.9792" y2="349.9854">
		<stop  offset="0" style="stop-color:#C92F27"/>
		<stop  offset="1" style="stop-color:#FFFFFF"/>
	</linearGradient>
	<path class="st12" d="M131.5,635c0.1-1.8,0.2-3.9,0.4-6.3c0.9-10.8,2.8-26.8,5.5-43.1c0.3-1.8,0.6-3.5,0.9-5.3
		c0.2-1.3,0.4-2.6,0.7-3.9c3.3-18.6,7.1-35.7,11.8-46.1c4.7-10.4,8.2-17.1,11.4-18.9c0.3-0.2,4.7-0.8,5-1.5
		c6-12.6,16.6-37.9,27-47.6l-2.7-0.2c-0.6,0.7-1.3,1.5-1.8,2.2c-6.1,7.5-10.3,15.5-14.7,23.9c0,0.1-0.1,0.1-0.1,0.2
		c-3.1,5.8-6.3,11.8-10.4,17.9c0,0-0.1,0.1-0.1,0.1c-0.7,1.1-3.4,1.7-5.6,2.5c-1.4,0.5-2.6,1-3.2,1.8c0,0,0,0.1-0.1,0.1
		c-2.1,2.9-4,6.3-5.9,10.2c-6.8,14-12.3,33.7-16.3,53c-0.3,1.4-0.6,2.7-0.8,4.1c-0.3,1.7-0.7,3.4-1,5c-2.2,11.7-3.8,22.9-4.9,32.3
		c-0.6,5.1-1,9.7-1.2,13.6c-0.2,2.8-2.3,6.2-2.5,8.9c-0.1,2.7,0.2,4.9,0.8,6.7c0.7,0.5,1.4,1.1,2.1,1.6c1.7,1.3,3.4,2.5,5.2,3.7
		c0.3,0.2,0.7,0.5,1,0.7c0.9,0.6,1.8,1.2,2.7,1.7c1.9,1.2,3.9,2.4,5.9,3.5c-2.7-2-4.7-3.1-6.1-4c-1.4-0.8-2.3-1.4-2.8-2.3
		c-0.3-0.5-0.4-1.1-0.5-1.9c-0.1-1.6,0-4,0.2-8C131.3,638.4,131.4,636.8,131.5,635z"/>
	<path class="st0" d="M251.6,755c-31.2,0.2-54.2-9.1-75.9-31.9c28.5,17.7,41,26.5,75.9,24.8c1.9,0,3.5,1.6,3.5,3.5
		S253.6,755,251.6,755z"/>
	<path class="st2" d="M232.5,212.5c0.6,0.5,1.2,1,1.8,1.5c1.2-1.2,2.4-2.4,3.6-3.6h-7.2C231.3,211.1,231.8,211.8,232.5,212.5z"/>
	<path class="st2" d="M229.5,215.6c-1.5-1.5-2.8-3.3-3.6-5.2h-7.3c-2.6,1.8-4.8,3.8-6.7,5.7c0.2,2.6,0.7,5.3,1.6,7.8
		c1,2.9,2.3,5.6,4.1,7.8c0.2-0.2,0.4-0.4,0.6-0.7c2.2-2.7,7.5-8.1,13.3-13.9C230.6,216.6,230,216.1,229.5,215.6z"/>
	<path class="st2" d="M214.6,235.1c-2.4-2.8-4.2-6.2-5.4-9.9c-0.5-1.6-1-3.4-1.3-5.1c-3.7,4.2-5.4,7.5-5.4,7.5l-3.7-15.8l-1.9,3.3
		c0.3,5.3,0.5,10.7,0.8,16c0.9,19.8-5.8,22.9-17.2,30.6c-3.3,6.1-8.1,11.4-13.8,16.1l-2.2,1.8l-2.9-0.2c-2.2-0.2-4.2-0.8-6-2
		l-6.1,9.7c0,0,0.1,0,0.2,0c15.5-4.3,39.6-18.5,48-29.3C204.5,249.2,209.6,241.6,214.6,235.1z"/>
	<path class="st2" d="M211.5,173.5c2.2,2.3,14,6.3,16.9,7.6c0,0,0,0,0,0c9.3,1,18-2.5,27.6-9.4v0l-2.6-1.6c-2.1,1.2-6,2.4-13.2,2.8
		c-10.7,0.6-23.4-5.4-30.3-9.3c-2.3-1.3-4-2.4-4.7-2.8c1.7,3.6,2.8,7.5,4.7,10.5C210.3,172.1,210.8,172.8,211.5,173.5z"/>
	<path class="st2" d="M206.1,174.2c-1.6-2.6-2.5-5.8-2.8-10.2l-0.7,1.8l-2.7,7.1c0.8,0.1,1.7,0.3,2.7,0.5
		C203.8,173.7,205,173.9,206.1,174.2z"/>
	<path class="st2" d="M202.7,178.4c-1.5-0.9-3-1.9-3.9-2.9c-0.7,1.2-2,3.7-4.6,8.4c0.2,0.9,0.4,1.9,0.5,2.7c0.3,1.4,0.4,2.9,0.6,4.5
		c0.2,2.3,0.4,4.7,0.6,7c0,0.5,0.1,0.9,0.1,1.4c0.1,0.9,0.1,1.8,0.2,2.8l0.3-0.6l5.2-9l1-1.7l5.6-9.6
		C206.8,180.7,204.6,179.6,202.7,178.4z"/>
</g>
</svg>
