<svg version="1.1" viewBox="0.0 0.0 563.0 275.0" fill="none" stroke="none" stroke-linecap="square" stroke-miterlimit="10" preserveAspectRatio="none" width="563" height="275" xmlns:xlink="http://www.w3.org/1999/xlink" xmlns="http://www.w3.org/2000/svg"><clipPath id="id_0"><path d="M0 0L563.0 0L563.0 275.0L0 275.0L0 0Z" clip-rule="nonzero"/></clipPath><path fill="#000000" fill-opacity="0.0" clip-path="url(#id_0)" d="M-39.89017 -103.90181L591.88556 -103.90181L591.88556 372.15283L-39.89017 372.15283Z" fill-rule="evenodd"/><path fill="#000000" fill-opacity="0.0" clip-path="url(#id_0)" d="M110.415665 22.730255L562.6701 22.730255L562.6701 274.66855L110.415665 274.66855Z" fill-rule="evenodd"/><path stroke="#000000" stroke-width="0.6596415648464823" stroke-linejoin="round" stroke-linecap="butt" clip-path="url(#id_0)" d="M110.415665 22.730255L562.6701 22.730255L562.6701 274.66855L110.415665 274.66855Z" fill-rule="evenodd"/><path fill="#000000" fill-opacity="0.0" clip-path="url(#id_0)" d="M75.13564 148.6994L142.85255 148.6994" fill-rule="evenodd"/><path stroke="#000000" stroke-width="0.6596415648464823" stroke-linejoin="round" stroke-linecap="butt" clip-path="url(#id_0)" d="M75.13564 148.6994L138.90395 148.6994" fill-rule="evenodd"/><path fill="#000000" stroke="#000000" stroke-width="0.6596415648464823" stroke-linecap="butt" clip-path="url(#id_0)" d="M138.90395 149.7915L141.89047 148.6994L138.90395 147.6073Z" fill-rule="evenodd"/><path fill="#cfe2f3" clip-path="url(#id_0)" d="M230.50246 33.92358L289.1407 33.92358L289.1407 81.32079L230.50246 81.32079Z" fill-rule="evenodd"/><path stroke="#000000" stroke-width="0.6596415648464823" stroke-linejoin="round" stroke-linecap="butt" clip-path="url(#id_0)" d="M230.50246 33.92358L289.1407 33.92358L289.1407 81.32079L230.50246 81.32079Z" fill-rule="evenodd"/><path fill="#000000" clip-path="url(#id_0)" d="M239.92226 62.1976L239.92226 53.364555L241.67033 53.364555L243.74745 59.61484Q244.03537 60.49298 244.16905 60.926884Q244.32329 60.441322 244.63177 59.511528L246.73975 53.364555L248.30273 53.364555L248.30273 62.1976L247.18192 62.1976L247.18192 54.8109L244.63177 62.1976L243.58293 62.1976L241.04308 54.6766L241.04308 62.1976L239.92226 62.1976ZM254.20108 61.41244Q253.59439 61.918663 253.03912 62.135616Q252.49413 62.342236 251.8566 62.342236Q250.80775 62.342236 250.24219 61.825684Q249.67664 61.30913 249.67664 60.51364Q249.67664 60.038414 249.89258 59.656166Q250.10852 59.263584 250.44785 59.0363Q250.79747 58.798687 251.22934 58.674713Q251.53783 58.592068 252.18564 58.50942Q253.49156 58.354454 254.10854 58.1375Q254.1188 57.910217 254.1188 57.858562Q254.1188 57.197376 253.81033 56.918438Q253.39902 56.55685 252.57639 56.55685Q251.81546 56.55685 251.45557 56.82546Q251.09567 57.094067 250.92085 57.765583L249.86172 57.62095Q250.00569 56.94943 250.33473 56.53619Q250.66379 56.112614 251.29105 55.885334Q251.91829 55.65805 252.73064 55.65805Q253.55325 55.65805 254.05711 55.85434Q254.57126 56.0403 254.80775 56.339897Q255.05455 56.62917 255.1471 57.073402Q255.1985 57.35234 255.1985 58.075516L255.1985 59.521862Q255.1985 61.030193 255.2705 61.433105Q255.34247 61.825684 255.53784 62.1976L254.417 62.1976Q254.2422 61.856678 254.20108 61.41244ZM254.10854 58.984646Q253.52242 59.23259 252.35017 59.39789Q251.6818 59.490868 251.40414 59.61484Q251.12651 59.73881 250.97227 59.966095Q250.82831 60.19338 250.82831 60.482647Q250.82831 60.916553 251.15736 61.205822Q251.48642 61.49509 252.11366 61.49509Q252.73064 61.49509 253.21393 61.226482Q253.7075 60.947544 253.93372 60.472317Q254.10854 60.1004 254.10854 59.387558L254.10854 58.984646ZM256.8751 64.64606L256.8751 55.802685L257.85193 55.802685L257.85193 56.62917Q258.20157 56.14361 258.63342 55.905994Q259.0756 55.65805 259.70285 55.65805Q260.5152 55.65805 261.13217 56.081623Q261.7594 56.494865 262.0782 57.26969Q262.39694 58.03419 262.39694 58.95365Q262.39694 59.935104 262.04733 60.72026Q261.69772 61.50542 261.02933 61.928993Q260.36096 62.342236 259.62057 62.342236Q259.08588 62.342236 258.654 62.114952Q258.22214 61.887672 257.95477 61.536415L257.95477 64.64606L256.8751 64.64606ZM257.85193 59.0363Q257.85193 60.265697 258.34552 60.8649Q258.84937 61.453766 259.5486 61.453766Q260.2684 61.453766 260.78253 60.844234Q261.2967 60.224373 261.2967 58.94332Q261.2967 57.72426 260.79282 57.114727Q260.29926 56.505196 259.6 56.505196Q258.91107 56.505196 258.37637 57.15605Q257.85193 57.796577 257.85193 59.0363ZM263.70334 64.64606L263.70334 55.802685L264.6802 55.802685L264.6802 56.62917Q265.02982 56.14361 265.4617 55.905994Q265.90387 55.65805 266.5311 55.65805Q267.34344 55.65805 267.96042 56.081623Q268.58768 56.494865 268.90643 57.26969Q269.2252 58.03419 269.2252 58.95365Q269.2252 59.935104 268.87558 60.72026Q268.52597 61.50542 267.85757 61.928993Q267.1892 62.342236 266.44885 62.342236Q265.91412 62.342236 265.48227 62.114952Q265.05038 61.887672 264.78302 61.536415L264.78302 64.64606L263.70334 64.64606ZM264.6802 59.0363Q264.6802 60.265697 265.17377 60.8649Q265.67764 61.453766 266.37686 61.453766Q267.09665 61.453766 267.6108 60.844234Q268.12494 60.224373 268.12494 58.94332Q268.12494 57.72426 267.6211 57.114727Q267.1275 56.505196 266.42828 56.505196Q265.73932 56.505196 265.20462 57.15605Q264.6802 57.796577 264.6802 59.0363ZM274.8915 60.141724L276.00204 60.276028Q275.73468 61.257477 275.02518 61.805023Q274.31567 62.342236 273.2051 62.342236Q271.80667 62.342236 270.98404 61.48476Q270.1717 60.61695 270.1717 59.056965Q270.1717 57.43499 270.99432 56.54652Q271.8272 55.65805 273.14343 55.65805Q274.4185 55.65805 275.22055 56.53619Q276.0329 57.403996 276.0329 58.984646Q276.0329 59.087955 276.0329 59.273914L271.28223 59.273914Q271.34393 60.327682 271.87863 60.89589Q272.41333 61.453766 273.2051 61.453766Q273.8015 61.453766 274.2231 61.143837Q274.6447 60.823574 274.8915 60.141724ZM271.34393 58.385445L274.9018 58.385445Q274.8298 57.579624 274.49048 57.176712Q273.97632 56.54652 273.15372 56.54652Q272.41333 56.54652 271.8992 57.052742Q271.39536 57.54863 271.34393 58.385445ZM277.34955 62.1976L277.34955 55.802685L278.31613 55.802685L278.31613 56.773804Q278.68634 56.091953 278.9948 55.875Q279.31357 55.65805 279.69403 55.65805Q280.23904 55.65805 280.8046 56.009304L280.43442 57.011417Q280.0334 56.773804 279.64264 56.773804Q279.2827 56.773804 279.0051 56.990753Q278.72745 57.207706 278.60406 57.579624Q278.41898 58.15816 278.41898 58.85034L278.41898 62.1976L277.34955 62.1976Z" fill-rule="nonzero"/><path fill="#cfe2f3" clip-path="url(#id_0)" d="M230.50246 125.000786L289.1407 125.000786L289.1407 172.39801L230.50246 172.39801Z" fill-rule="evenodd"/><path stroke="#000000" stroke-width="0.6596415648464823" stroke-linejoin="round" stroke-linecap="butt" clip-path="url(#id_0)" d="M230.50246 125.000786L289.1407 125.000786L289.1407 172.39801L230.50246 172.39801Z" fill-rule="evenodd"/><path fill="#000000" clip-path="url(#id_0)" d="M239.92226 153.27481L239.92226 144.44177L241.67033 144.44177L243.74745 150.69205Q244.03537 151.57019 244.16905 152.00409Q244.32329 151.51854 244.63177 150.58875L246.73975 144.44177L248.30273 144.44177L248.30273 153.27481L247.18192 153.27481L247.18192 145.8881L244.63177 153.27481L243.58293 153.27481L241.04308 145.75381L241.04308 153.27481L239.92226 153.27481ZM254.20108 152.48965Q253.59439 152.99588 253.03912 153.21283Q252.49413 153.41945 251.8566 153.41945Q250.80775 153.41945 250.24219 152.9029Q249.67664 152.38634 249.67664 151.59085Q249.67664 151.11562 249.89258 150.73337Q250.10852 150.34079 250.44785 150.11351Q250.79747 149.8759 251.22934 149.75192Q251.53783 149.66928 252.18564 149.58662Q253.49156 149.43166 254.10854 149.2147Q254.1188 148.98743 254.1188 148.93578Q254.1188 148.27458 253.81033 147.99565Q253.39902 147.63406 252.57639 147.63406Q251.81546 147.63406 251.45557 147.90266Q251.09567 148.17128 250.92085 148.84279L249.86172 148.69815Q250.00569 148.02664 250.33473 147.6134Q250.66379 147.18982 251.29105 146.96254Q251.91829 146.73526 252.73064 146.73526Q253.55325 146.73526 254.05711 146.93155Q254.57126 147.11751 254.80775 147.41711Q255.05455 147.70638 255.1471 148.15062Q255.1985 148.42955 255.1985 149.15273L255.1985 150.59908Q255.1985 152.1074 255.2705 152.51031Q255.34247 152.9029 255.53784 153.27481L254.417 153.27481Q254.2422 152.93388 254.20108 152.48965ZM254.10854 150.06186Q253.52242 150.3098 252.35017 150.4751Q251.6818 150.56808 251.40414 150.69205Q251.12651 150.81602 250.97227 151.0433Q250.82831 151.27058 250.82831 151.55986Q250.82831 151.99376 251.15736 152.28304Q251.48642 152.5723 252.11366 152.5723Q252.73064 152.5723 253.21393 152.3037Q253.7075 152.02475 253.93372 151.54953Q254.10854 151.17761 254.10854 150.46477L254.10854 150.06186ZM256.8751 155.72327L256.8751 146.8799L257.85193 146.8799L257.85193 147.70638Q258.20157 147.22083 258.63342 146.9832Q259.0756 146.73526 259.70285 146.73526Q260.5152 146.73526 261.13217 147.15883Q261.7594 147.57207 262.0782 148.34691Q262.39694 149.1114 262.39694 150.03087Q262.39694 151.01231 262.04733 151.79747Q261.69772 152.58263 261.02933 153.00621Q260.36096 153.41945 259.62057 153.41945Q259.08588 153.41945 258.654 153.19217Q258.22214 152.96487 257.95477 152.61362L257.95477 155.72327L256.8751 155.72327ZM257.85193 150.11351Q257.85193 151.34291 258.34552 151.94211Q258.84937 152.53098 259.5486 152.53098Q260.2684 152.53098 260.78253 151.92145Q261.2967 151.30157 261.2967 150.02054Q261.2967 148.80147 260.79282 148.19194Q260.29926 147.5824 259.6 147.5824Q258.91107 147.5824 258.37637 148.23326Q257.85193 148.87378 257.85193 150.11351ZM263.70334 155.72327L263.70334 146.8799L264.6802 146.8799L264.6802 147.70638Q265.02982 147.22083 265.4617 146.9832Q265.90387 146.73526 266.5311 146.73526Q267.34344 146.73526 267.96042 147.15883Q268.58768 147.57207 268.90643 148.34691Q269.2252 149.1114 269.2252 150.03087Q269.2252 151.01231 268.87558 151.79747Q268.52597 152.58263 267.85757 153.00621Q267.1892 153.41945 266.44885 153.41945Q265.91412 153.41945 265.48227 153.19217Q265.05038 152.96487 264.78302 152.61362L264.78302 155.72327L263.70334 155.72327ZM264.6802 150.11351Q264.6802 151.34291 265.17377 151.94211Q265.67764 152.53098 266.37686 152.53098Q267.09665 152.53098 267.6108 151.92145Q268.12494 151.30157 268.12494 150.02054Q268.12494 148.80147 267.6211 148.19194Q267.1275 147.5824 266.42828 147.5824Q265.73932 147.5824 265.20462 148.23326Q264.6802 148.87378 264.6802 150.11351ZM274.8915 151.21893L276.00204 151.35324Q275.73468 152.33469 275.02518 152.88223Q274.31567 153.41945 273.2051 153.41945Q271.80667 153.41945 270.98404 152.56197Q270.1717 151.69417 270.1717 150.13417Q270.1717 148.51219 270.99432 147.62373Q271.8272 146.73526 273.14343 146.73526Q274.4185 146.73526 275.22055 147.6134Q276.0329 148.4812 276.0329 150.06186Q276.0329 150.16516 276.0329 150.35112L271.28223 150.35112Q271.34393 151.40489 271.87863 151.9731Q272.41333 152.53098 273.2051 152.53098Q273.8015 152.53098 274.2231 152.22104Q274.6447 151.90079 274.8915 151.21893ZM271.34393 149.46266L274.9018 149.46266Q274.8298 148.65683 274.49048 148.25392Q273.97632 147.62373 273.15372 147.62373Q272.41333 147.62373 271.8992 148.12994Q271.39536 148.62584 271.34393 149.46266ZM277.34955 153.27481L277.34955 146.8799L278.31613 146.8799L278.31613 147.85101Q278.68634 147.16916 278.9948 146.95221Q279.31357 146.73526 279.69403 146.73526Q280.23904 146.73526 280.8046 147.08652L280.43442 148.08862Q280.0334 147.85101 279.64264 147.85101Q279.2827 147.85101 279.0051 148.06796Q278.72745 148.28491 278.60406 148.65683Q278.41898 149.23537 278.41898 149.92755L278.41898 153.27481L277.34955 153.27481Z" fill-rule="nonzero"/><path fill="#cfe2f3" clip-path="url(#id_0)" d="M230.50246 216.078L289.1407 216.078L289.1407 263.47522L230.50246 263.47522Z" fill-rule="evenodd"/><path stroke="#000000" stroke-width="0.6596415648464823" stroke-linejoin="round" stroke-linecap="butt" clip-path="url(#id_0)" d="M230.50246 216.078L289.1407 216.078L289.1407 263.47522L230.50246 263.47522Z" fill-rule="evenodd"/><path fill="#000000" clip-path="url(#id_0)" d="M239.92226 244.35202L239.92226 235.51898L241.67033 235.51898L243.74745 241.76926Q244.03537 242.6474 244.16905 243.0813Q244.32329 242.59575 244.63177 241.66595L246.73975 235.51898L248.30273 235.51898L248.30273 244.35202L247.18192 244.35202L247.18192 236.96532L244.63177 244.35202L243.58293 244.35202L241.04308 236.83102L241.04308 244.35202L239.92226 244.35202ZM254.20108 243.56686Q253.59439 244.07309 253.03912 244.29004Q252.49413 244.49666 251.8566 244.49666Q250.80775 244.49666 250.24219 243.9801Q249.67664 243.46355 249.67664 242.66806Q249.67664 242.19283 249.89258 241.81058Q250.10852 241.418 250.44785 241.19072Q250.79747 240.95311 251.22934 240.82913Q251.53783 240.74649 252.18564 240.66383Q253.49156 240.50887 254.10854 240.29192Q254.1188 240.06464 254.1188 240.01299Q254.1188 239.35179 253.81033 239.07286Q253.39902 238.71127 252.57639 238.71127Q251.81546 238.71127 251.45557 238.97987Q251.09567 239.24849 250.92085 239.92L249.86172 239.77536Q250.00569 239.10385 250.33473 238.69061Q250.66379 238.26703 251.29105 238.03975Q251.91829 237.81247 252.73064 237.81247Q253.55325 237.81247 254.05711 238.00876Q254.57126 238.19472 254.80775 238.49432Q255.05455 238.78358 255.1471 239.22783Q255.1985 239.50676 255.1985 240.22993L255.1985 241.67628Q255.1985 243.18462 255.2705 243.58752Q255.34247 243.9801 255.53784 244.35202L254.417 244.35202Q254.2422 244.0111 254.20108 243.56686ZM254.10854 241.13907Q253.52242 241.38701 252.35017 241.5523Q251.6818 241.6453 251.40414 241.76926Q251.12651 241.89323 250.97227 242.12051Q250.82831 242.3478 250.82831 242.63707Q250.82831 243.07097 251.15736 243.36024Q251.48642 243.6495 252.11366 243.6495Q252.73064 243.6495 253.21393 243.3809Q253.7075 243.10196 253.93372 242.62674Q254.10854 242.25482 254.10854 241.54198L254.10854 241.13907ZM256.8751 246.80048L256.8751 237.9571L257.85193 237.9571L257.85193 238.78358Q258.20157 238.29803 258.63342 238.06041Q259.0756 237.81247 259.70285 237.81247Q260.5152 237.81247 261.13217 238.23604Q261.7594 238.64928 262.0782 239.42412Q262.39694 240.18861 262.39694 241.10808Q262.39694 242.08952 262.04733 242.87468Q261.69772 243.65984 261.02933 244.08342Q260.36096 244.49666 259.62057 244.49666Q259.08588 244.49666 258.654 244.26938Q258.22214 244.04208 257.95477 243.69083L257.95477 246.80048L256.8751 246.80048ZM257.85193 241.19072Q257.85193 242.42012 258.34552 243.01932Q258.84937 243.60818 259.5486 243.60818Q260.2684 243.60818 260.78253 242.99866Q261.2967 242.37878 261.2967 241.09775Q261.2967 239.87868 260.79282 239.26915Q260.29926 238.6596 259.6 238.6596Q258.91107 238.6596 258.37637 239.31047Q257.85193 239.95099 257.85193 241.19072ZM263.70334 246.80048L263.70334 237.9571L264.6802 237.9571L264.6802 238.78358Q265.02982 238.29803 265.4617 238.06041Q265.90387 237.81247 266.5311 237.81247Q267.34344 237.81247 267.96042 238.23604Q268.58768 238.64928 268.90643 239.42412Q269.2252 240.18861 269.2252 241.10808Q269.2252 242.08952 268.87558 242.87468Q268.52597 243.65984 267.85757 244.08342Q267.1892 244.49666 266.44885 244.49666Q265.91412 244.49666 265.48227 244.26938Q265.05038 244.04208 264.78302 243.69083L264.78302 246.80048L263.70334 246.80048ZM264.6802 241.19072Q264.6802 242.42012 265.17377 243.01932Q265.67764 243.60818 266.37686 243.60818Q267.09665 243.60818 267.6108 242.99866Q268.12494 242.37878 268.12494 241.09775Q268.12494 239.87868 267.6211 239.26915Q267.1275 238.6596 266.42828 238.6596Q265.73932 238.6596 265.20462 239.31047Q264.6802 239.95099 264.6802 241.19072ZM274.8915 242.29614L276.00204 242.43045Q275.73468 243.4119 275.02518 243.95944Q274.31567 244.49666 273.2051 244.49666Q271.80667 244.49666 270.98404 243.63918Q270.1717 242.77138 270.1717 241.21138Q270.1717 239.5894 270.99432 238.70094Q271.8272 237.81247 273.14343 237.81247Q274.4185 237.81247 275.22055 238.69061Q276.0329 239.55841 276.0329 241.13907Q276.0329 241.24237 276.0329 241.42833L271.28223 241.42833Q271.34393 242.4821 271.87863 243.05031Q272.41333 243.60818 273.2051 243.60818Q273.8015 243.60818 274.2231 243.29825Q274.6447 242.978 274.8915 242.29614ZM271.34393 240.53987L274.9018 240.53987Q274.8298 239.73404 274.49048 239.33113Q273.97632 238.70094 273.15372 238.70094Q272.41333 238.70094 271.8992 239.20715Q271.39536 239.70305 271.34393 240.53987ZM277.34955 244.35202L277.34955 237.9571L278.31613 237.9571L278.31613 238.92822Q278.68634 238.24637 278.9948 238.02942Q279.31357 237.81247 279.69403 237.81247Q280.23904 237.81247 280.8046 238.16373L280.43442 239.16583Q280.0334 238.92822 279.64264 238.92822Q279.2827 238.92822 279.0051 239.14517Q278.72745 239.36212 278.60406 239.73404Q278.41898 240.31258 278.41898 241.00476L278.41898 244.35202L277.34955 244.35202Z" fill-rule="nonzero"/><path fill="#cfe2f3" clip-path="url(#id_0)" d="M454.83673 128.07591L454.83673 128.07591C454.83673 122.3809 475.58228 117.764175 501.17316 117.764175C526.7641 117.764175 547.5096 122.3809 547.5096 128.07591L547.5096 169.32288C547.5096 175.0179 526.7641 179.63461 501.17316 179.63461C475.58228 179.63461 454.83673 175.0179 454.83673 169.32288Z" fill-rule="evenodd"/><path fill="#000000" fill-opacity="0.0" clip-path="url(#id_0)" d="M547.5096 128.07591L547.5096 128.07591C547.5096 133.77094 526.7641 138.38765 501.17316 138.38765C475.58228 138.38765 454.83673 133.77094 454.83673 128.07591" fill-rule="evenodd"/><path fill="#000000" fill-opacity="0.0" clip-path="url(#id_0)" d="M454.83673 128.07591L454.83673 128.07591C454.83673 122.3809 475.58228 117.764175 501.17316 117.764175C526.7641 117.764175 547.5096 122.3809 547.5096 128.07591L547.5096 169.32288C547.5096 175.0179 526.7641 179.63461 501.17316 179.63461C475.58228 179.63461 454.83673 175.0179 454.83673 169.32288Z" fill-rule="evenodd"/><path stroke="#000000" stroke-width="0.6596415648464823" stroke-linejoin="round" stroke-linecap="butt" clip-path="url(#id_0)" d="M547.5096 128.07591L547.5096 128.07591C547.5096 133.77094 526.7641 138.38765 501.17316 138.38765C475.58228 138.38765 454.83673 133.77094 454.83673 128.07591" fill-rule="evenodd"/><path stroke="#000000" stroke-width="0.6596415648464823" stroke-linejoin="round" stroke-linecap="butt" clip-path="url(#id_0)" d="M454.83673 128.07591L454.83673 128.07591C454.83673 122.3809 475.58228 117.764175 501.17316 117.764175C526.7641 117.764175 547.5096 122.3809 547.5096 128.07591L547.5096 169.32288C547.5096 175.0179 526.7641 179.63461 501.17316 179.63461C475.58228 179.63461 454.83673 175.0179 454.83673 169.32288Z" fill-rule="evenodd"/><path fill="#000000" clip-path="url(#id_0)" d="M479.94983 158.43068L479.94983 149.59764L482.98328 149.59764Q484.00125 149.59764 484.54626 149.73193Q485.2969 149.89723 485.8316 150.36214Q486.53082 150.951 486.87018 151.87047Q487.2198 152.78993 487.2198 153.96767Q487.2198 154.96977 486.98328 155.75494Q486.74677 156.52977 486.3766 157.036Q486.0167 157.5422 485.5848 157.84181Q485.15292 158.13107 484.53598 158.28604Q483.919 158.43068 483.12723 158.43068L479.94983 158.43068ZM481.1118 157.38724L482.99356 157.38724Q483.8573 157.38724 484.3509 157.23228Q484.84445 157.06699 485.14267 156.76738Q485.55396 156.35414 485.78018 155.65163Q486.0167 154.94911 486.0167 153.947Q486.0167 152.56265 485.56424 151.81882Q485.11182 151.07498 484.464 150.82703Q484.00125 150.64107 482.9627 150.64107L481.1118 150.64107L481.1118 157.38724ZM488.6827 150.84769L488.6827 149.59764L489.7624 149.59764L489.7624 150.84769L488.6827 150.84769ZM488.6827 158.43068L488.6827 152.03577L489.7624 152.03577L489.7624 158.43068L488.6827 158.43068ZM490.97855 156.51944L492.04794 156.35414Q492.13022 156.99466 492.5415 157.34592Q492.95282 157.68684 493.6932 157.68684Q494.43356 157.68684 494.79346 157.38724Q495.15335 157.07732 495.15335 156.66408Q495.15335 156.30249 494.8346 156.08553Q494.61865 155.9409 493.7343 155.72394Q492.5415 155.41402 492.0788 155.19707Q491.62634 154.9801 491.38983 154.59785Q491.15335 154.20528 491.15335 153.73006Q491.15335 153.30649 491.34872 152.9449Q491.5441 152.57298 491.88342 152.33536Q492.13022 152.1494 492.56207 152.02544Q493.00424 151.89113 493.49783 151.89113Q494.24847 151.89113 494.81403 152.10808Q495.37958 152.32503 495.6469 152.69695Q495.92456 153.06886 496.0274 153.68874L494.96826 153.83336Q494.89627 153.33748 494.54666 153.05853Q494.20734 152.7796 493.58008 152.7796Q492.82944 152.7796 492.51068 153.02754Q492.20218 153.27548 492.20218 153.60608Q492.20218 153.8127 492.3256 153.98833Q492.45926 154.16396 492.74716 154.2776Q492.90143 154.33958 493.6932 154.55653Q494.84488 154.85614 495.2973 155.05243Q495.74976 155.24872 496.00684 155.62064Q496.2639 155.99255 496.2639 156.55043Q496.2639 157.09798 495.94513 157.5732Q495.63666 158.04843 495.04025 158.31703Q494.44385 158.57532 493.6932 158.57532Q492.45926 158.57532 491.80115 158.05876Q491.15335 157.5422 490.97855 156.51944ZM497.54926 158.43068L497.54926 149.59764L498.62894 149.59764L498.62894 154.63919L501.18936 152.03577L502.57755 152.03577L500.1508 154.4119L502.82434 158.43068L501.49783 158.43068L499.38986 155.15573L498.62894 155.89957L498.62894 158.43068L497.54926 158.43068ZM502.87573 158.58565L505.42587 149.453L506.28964 149.453L503.7498 158.58565L502.87573 158.58565ZM507.23288 158.43068L507.23288 149.59764L510.26633 149.59764Q511.28433 149.59764 511.8293 149.73193Q512.57996 149.89723 513.1147 150.36214Q513.8139 150.951 514.1532 151.87047Q514.5028 152.78993 514.5028 153.96767Q514.5028 154.96977 514.26636 155.75494Q514.02985 156.52977 513.65967 157.036Q513.29974 157.5422 512.86786 157.84181Q512.436 158.13107 511.81903 158.28604Q511.20206 158.43068 510.41028 158.43068L507.23288 158.43068ZM508.39484 157.38724L510.2766 157.38724Q511.14035 157.38724 511.63394 157.23228Q512.1275 157.06699 512.4257 156.76738Q512.83704 156.35414 513.06323 155.65163Q513.29974 154.94911 513.29974 153.947Q513.29974 152.56265 512.8473 151.81882Q512.39484 151.07498 511.74704 150.82703Q511.28433 150.64107 510.24576 150.64107L508.39484 150.64107L508.39484 157.38724ZM516.04803 158.43068L516.04803 149.59764L519.3488 149.59764Q520.3565 149.59764 520.9632 149.86624Q521.5699 150.13484 521.90924 150.69272Q522.25885 151.2506 522.25885 151.86014Q522.25885 152.42834 521.9504 152.93457Q521.65216 153.43045 521.03516 153.73006Q521.82697 153.96767 522.25885 154.53587Q522.69073 155.10408 522.69073 155.86858Q522.69073 156.48845 522.42334 157.02565Q522.1663 157.55254 521.7756 157.84181Q521.3951 158.13107 520.8192 158.28604Q520.2434 158.43068 519.4002 158.43068L516.04803 158.43068ZM517.2203 153.30649L519.1123 153.30649Q519.8938 153.30649 520.22284 153.2135Q520.665 153.0792 520.89124 152.76927Q521.11743 152.45934 521.11743 151.99443Q521.11743 151.56053 520.9015 151.22993Q520.69586 150.88902 520.3051 150.76505Q519.91437 150.64107 518.9683 150.64107L517.2203 150.64107L517.2203 153.30649ZM517.2203 157.38724L519.4002 157.38724Q519.96576 157.38724 520.192 157.34592Q520.593 157.2736 520.86035 157.1083Q521.138 156.93268 521.3128 156.61241Q521.4876 156.29216 521.4876 155.86858Q521.4876 155.3727 521.2305 155.01111Q520.98376 154.64952 520.5313 154.50488Q520.0892 154.34991 519.246 154.34991L517.2203 154.34991L517.2203 157.38724Z" fill-rule="nonzero"/><path fill="#000000" fill-opacity="0.0" clip-path="url(#id_0)" d="M305.3479 0L367.73782 0L367.73782 27.780268L305.3479 27.780268Z" fill-rule="evenodd"/><path fill="#000000" clip-path="url(#id_0)" d="M320.55792 14.699839L321.71988 14.999439Q321.3497 16.435455 320.4037 17.199953Q319.45767 17.954119 318.07977 17.954119Q316.66074 17.954119 315.76614 17.37558Q314.8818 16.78671 314.4088 15.69162Q313.94608 14.586198 313.94608 13.315478Q313.94608 11.941449 314.4705 10.918675Q314.99493 9.8855715 315.96152 9.358687Q316.9384 8.821473 318.10034 8.821473Q319.41653 8.821473 320.31113 9.492991Q321.21603 10.16451 321.56564 11.393904L320.42426 11.662511Q320.11575 10.701724 319.52963 10.267819Q318.9538 9.823585 318.07977 9.823585Q317.06177 9.823585 316.3831 10.309144Q315.70444 10.7947035 315.4268 11.621187Q315.14917 12.43734 315.14917 13.315478Q315.14917 14.441563 315.4782 15.278378Q315.80725 16.115192 316.49622 16.538765Q317.18515 16.952007 317.9872 16.952007Q318.96408 16.952007 319.64276 16.3838Q320.3214 15.815592 320.55792 14.699839ZM323.008 17.799152L323.008 11.404235L323.97458 11.404235L323.97458 12.375354Q324.34476 11.693504 324.65323 11.476552Q324.97202 11.259601 325.35248 11.259601Q325.89746 11.259601 326.463 11.610856L326.09283 12.6129675Q325.6918 12.375354 325.30106 12.375354Q324.94116 12.375354 324.6635 12.592305Q324.3859 12.8092575 324.26248 13.181175Q324.0774 13.759714 324.0774 14.451894L324.0774 17.799152L323.008 17.799152ZM326.7058 14.596529Q326.7058 12.819589 327.68268 11.972443Q328.5053 11.259601 329.6878 11.259601Q331.00403 11.259601 331.8369 12.127408Q332.66983 12.984885 332.66983 14.51388Q332.66983 15.743275 332.29965 16.456118Q331.92947 17.158628 331.21997 17.551208Q330.52072 17.943789 329.6878 17.943789Q328.35104 17.943789 327.52844 17.086311Q326.7058 16.218502 326.7058 14.596529ZM327.81635 14.596529Q327.81635 15.825923 328.34076 16.445786Q328.8755 17.055317 329.6878 17.055317Q330.48987 17.055317 331.0246 16.445786Q331.5593 15.825923 331.5593 14.565536Q331.5593 13.377465 331.0246 12.767933Q330.48987 12.1584015 329.6878 12.1584015Q328.8755 12.1584015 328.34076 12.767933Q327.81635 13.367134 327.81635 14.596529ZM333.9351 17.799152L333.9351 11.404235L334.90167 11.404235L334.90167 12.313367Q335.60092 11.259601 336.9274 11.259601Q337.50323 11.259601 337.9865 11.466221Q338.46982 11.672842 338.70633 12.013767Q338.9531 12.34436 339.04565 12.8092575Q339.10733 13.108858 339.10733 13.863025L339.10733 17.799152L338.02765 17.799152L338.02765 13.904348Q338.02765 13.243161 337.89398 12.922899Q337.77057 12.592305 337.4518 12.396015Q337.13306 12.199726 336.70117 12.199726Q336.0122 12.199726 335.50836 12.643961Q335.0148 13.077865 335.0148 14.30726L335.0148 17.799152L333.9351 17.799152ZM344.16418 10.226496L344.16418 8.966108L345.2439 8.966108L345.2439 10.226496L344.16418 10.226496ZM342.79657 20.278605L343.00223 19.35914Q343.3313 19.44179 343.5164 19.44179Q343.84543 19.44179 343.99966 19.224838Q344.16418 19.007885 344.16418 18.119415L344.16418 11.404235L345.2439 11.404235L345.2439 18.15041Q345.2439 19.328148 344.9354 19.793045Q344.54465 20.392246 343.63977 20.392246Q343.2079 20.392246 342.79657 20.278605ZM346.50116 14.596529Q346.50116 12.819589 347.47803 11.972443Q348.30066 11.259601 349.4832 11.259601Q350.79938 11.259601 351.63226 12.127408Q352.46518 12.984885 352.46518 14.51388Q352.46518 15.743275 352.095 16.456118Q351.72482 17.158628 351.01532 17.551208Q350.31607 17.943789 349.4832 17.943789Q348.1464 17.943789 347.3238 17.086311Q346.50116 16.218502 346.50116 14.596529ZM347.6117 14.596529Q347.6117 15.825923 348.1361 16.445786Q348.67084 17.055317 349.4832 17.055317Q350.28522 17.055317 350.81995 16.445786Q351.35464 15.825923 351.35464 14.565536Q351.35464 13.377465 350.81995 12.767933Q350.28522 12.1584015 349.4832 12.1584015Q348.67084 12.1584015 348.1361 12.767933Q347.6117 13.367134 347.6117 14.596529ZM354.7176 17.799152L353.72015 17.799152L353.72015 8.966108L354.79987 8.966108L354.79987 12.117077Q355.4888 11.259601 356.54794 11.259601Q357.13406 11.259601 357.65848 11.497214Q358.1829 11.734829 358.52222 12.168733Q358.86157 12.592305 359.04666 13.201838Q359.24203 13.811369 359.24203 14.50355Q359.24203 16.146185 358.4297 17.044987Q357.62762 17.943789 356.48624 17.943789Q355.36542 17.943789 354.7176 16.993332L354.7176 17.799152ZM354.7073 14.555204Q354.7073 15.701951 355.02606 16.218502Q355.52994 17.055317 356.40396 17.055317Q357.1135 17.055317 357.62762 16.435455Q358.14175 15.815592 358.14175 14.596529Q358.14175 13.346472 357.6482 12.747272Q357.1546 12.14807 356.4451 12.14807Q355.74588 12.14807 355.22144 12.767933Q354.7073 13.387796 354.7073 14.555204Z" fill-rule="nonzero"/><path fill="#cfe2f3" clip-path="url(#id_0)" d="M0.32991353 112.891174L75.13564 112.891174L75.13564 172.5713L63.255066 184.50761L0.32991353 184.50761Z" fill-rule="evenodd"/><path fill="#a5b4c2" clip-path="url(#id_0)" d="M63.255066 184.50761L65.63118 174.95857L75.13564 172.5713Z" fill-rule="evenodd"/><path fill="#000000" fill-opacity="0.0" clip-path="url(#id_0)" d="M63.255066 184.50761L65.63118 174.95857L75.13564 172.5713L63.255066 184.50761L0.32991353 184.50761L0.32991353 112.891174L75.13564 112.891174L75.13564 172.5713" fill-rule="evenodd"/><path stroke="#000000" stroke-width="0.6596415648464823" stroke-linejoin="round" stroke-linecap="butt" clip-path="url(#id_0)" d="M63.255066 184.50761L65.63118 174.95857L75.13564 172.5713L63.255066 184.50761L0.32991353 184.50761L0.32991353 112.891174L75.13564 112.891174L75.13564 172.5713" fill-rule="evenodd"/><clipPath id="id_1"><path d="M0 -1.4210855E-14L563.0 -1.4210855E-14L563.0 275.0L0 275.0L0 -1.4210855E-14Z" clip-rule="nonzero"/></clipPath><path fill="#000000" clip-path="url(#id_1)" d="M7.065153 142.48206L7.065153 133.63867L8.04202 133.63867L8.04202 134.46516Q8.391635 133.9796 8.823513 133.74199Q9.265674 133.49405 9.892925 133.49405Q10.705267 133.49405 11.322235 133.91762Q11.949487 134.33086 12.268254 135.10568Q12.587021 135.87018 12.587021 136.78964Q12.587021 137.7711 12.237406 138.55626Q11.88779 139.34142 11.219407 139.76498Q10.551025 140.17824 9.810662 140.17824Q9.275957 140.17824 8.844079 139.95094Q8.412201 139.72366 8.144848 139.3724L8.144848 142.48206L7.065153 142.48206ZM8.04202 136.8723Q8.04202 138.10168 8.535595 138.7009Q9.039453 139.28976 9.738683 139.28976Q10.45848 139.28976 10.97262 138.68024Q11.48676 138.06036 11.48676 136.77931Q11.48676 135.56026 10.982903 134.95073Q10.489328 134.34119 9.790097 134.34119Q9.101149 134.34119 8.5664425 134.99205Q8.04202 135.63257 8.04202 136.8723ZM13.883127 140.0336L13.883127 133.63867L14.84971 133.63867L14.84971 134.6098Q15.219892 133.92795 15.528376 133.711Q15.847143 133.49405 16.227608 133.49405Q16.772596 133.49405 17.33815 133.8453L16.96797 134.84741Q16.56694 134.6098 16.176193 134.6098Q15.816295 134.6098 15.538659 134.82675Q15.2610235 135.0437 15.1376295 135.41562Q14.9525385 135.99416 14.9525385 136.68634L14.9525385 140.0336L13.883127 140.0336ZM17.58094 136.83098Q17.58094 135.05403 18.557808 134.2069Q19.380432 133.49405 20.562956 133.49405Q21.879154 133.49405 22.712063 134.36185Q23.54497 135.21933 23.54497 136.74832Q23.54497 137.97772 23.17479 138.69057Q22.804607 139.39307 22.095095 139.78564Q21.395863 140.17824 20.562956 140.17824Q19.22619 140.17824 18.403566 139.32076Q17.58094 138.45294 17.58094 136.83098ZM18.691484 136.83098Q18.691484 138.06036 19.215908 138.68024Q19.750614 139.28976 20.562956 139.28976Q21.365015 139.28976 21.899721 138.68024Q22.434427 138.06036 22.434427 136.79997Q22.434427 135.61191 21.899721 135.00238Q21.365015 134.39285 20.562956 134.39285Q19.750614 134.39285 19.215908 135.00238Q18.691484 135.60158 18.691484 136.83098ZM24.799944 132.46094L24.799944 131.20055L25.879639 131.20055L25.879639 132.46094L24.799944 132.46094ZM23.432331 142.51305L23.637987 141.59358Q23.967037 141.67624 24.152128 141.67624Q24.481178 141.67624 24.63542 141.45927Q24.799944 141.24232 24.799944 140.35387L24.799944 133.63867L25.879639 133.63867L25.879639 140.38486Q25.879639 141.56259 25.571156 142.0275Q25.180408 142.6267 24.27552 142.6267Q23.843643 142.6267 23.432331 142.51305ZM31.897844 137.97772L33.00839 138.11203Q32.741035 139.09348 32.03152 139.64102Q31.322006 140.17824 30.211464 140.17824Q28.813002 140.17824 27.990377 139.32076Q27.178034 138.45294 27.178034 136.89296Q27.178034 135.27098 28.00066 134.3825Q28.833567 133.49405 30.149767 133.49405Q31.424835 133.49405 32.226894 134.37218Q33.039234 135.23999 33.039234 136.82065Q33.039234 136.92395 33.039234 137.10991L28.288578 137.10991Q28.350275 138.16368 28.884981 138.73189Q29.419687 139.28976 30.211464 139.28976Q30.807865 139.28976 31.229462 138.97983Q31.651056 138.65956 31.897844 137.97772ZM28.350275 136.22144L31.908127 136.22144Q31.836147 135.41562 31.496815 135.01271Q30.982674 134.3825 30.16005 134.3825Q29.419687 134.3825 28.905546 134.88873Q28.40169 135.38463 28.350275 136.22144ZM38.520443 137.68845L39.579575 137.83308Q39.404766 138.92818 38.68497 139.55836Q37.975456 140.17824 36.92661 140.17824Q35.620693 140.17824 34.828915 139.32076Q34.03714 138.46327 34.03714 136.86197Q34.03714 135.81853 34.376472 135.0437Q34.715805 134.26888 35.415035 133.88663Q36.114265 133.49405 36.936893 133.49405Q37.975456 133.49405 38.633556 134.02094Q39.291656 134.5478 39.476746 135.51894L38.4279 135.67389Q38.273655 135.03337 37.893192 134.7131Q37.51273 134.3825 36.978024 134.3825Q36.16568 134.3825 35.65154 134.97139Q35.1374 135.56026 35.1374 136.83098Q35.1374 138.12236 35.630974 138.71123Q36.12455 139.28976 36.916325 139.28976Q37.55386 139.28976 37.975456 138.89719Q38.407333 138.50461 38.520443 137.68845ZM42.85979 139.06248L43.01403 140.02327Q42.56159 140.11624 42.20169 140.11624Q41.61557 140.11624 41.28652 139.93028Q40.967754 139.74432 40.834076 139.44473Q40.7004 139.1348 40.7004 138.16368L40.7004 134.4755L39.908623 134.4755L39.908623 133.63867L40.7004 133.63867L40.7004 132.05803L41.76981 131.40717L41.76981 133.63867L42.85979 133.63867L42.85979 134.4755L41.76981 134.4755L41.76981 138.22566Q41.76981 138.68024 41.821224 138.81453Q41.882923 138.94884 42.006317 139.03148Q42.13999 139.1038 42.38678 139.1038Q42.56159 139.1038 42.85979 139.06248ZM43.48428 138.12236L44.55369 137.95706Q44.635952 138.59758 45.047264 138.94884Q45.45858 139.28976 46.19894 139.28976Q46.939304 139.28976 47.299202 138.99016Q47.6591 138.68024 47.6591 138.26698Q47.6591 137.9054 47.340332 137.68845Q47.124393 137.54381 46.24007 137.32686Q45.047264 137.01694 44.58454 136.79997Q44.132095 136.58302 43.89559 136.20078Q43.65909 135.8082 43.65909 135.33298Q43.65909 134.9094 43.85446 134.5478Q44.049835 134.17589 44.389168 133.93828Q44.635952 133.75232 45.067833 133.62834Q45.50999 133.49405 46.003567 133.49405Q46.75421 133.49405 47.319767 133.711Q47.885323 133.92795 48.152676 134.29987Q48.43031 134.67178 48.53314 135.29164L47.47401 135.43628Q47.402027 134.94038 47.052414 134.66145Q46.71308 134.3825 46.08583 134.3825Q45.335186 134.3825 45.01642 134.63046Q44.70793 134.8784 44.70793 135.209Q44.70793 135.41562 44.831326 135.59125Q44.965004 135.76688 45.252922 135.88052Q45.407166 135.9425 46.19894 136.15945Q47.350616 136.45906 47.80306 136.65535Q48.2555 136.85164 48.512573 137.22356Q48.76964 137.59547 48.76964 138.15335Q48.76964 138.7009 48.450874 139.17612Q48.14239 139.65135 47.54599 139.91995Q46.949585 140.17824 46.19894 140.17824Q44.965004 140.17824 44.306904 139.66168Q43.65909 139.14513 43.48428 138.12236ZM50.353195 140.0336L50.353195 138.79387L51.58713 138.79387L51.58713 140.0336L50.353195 140.0336ZM55.82089 139.06248L55.97513 140.02327Q55.522686 140.11624 55.16279 140.11624Q54.576668 140.11624 54.24762 139.93028Q53.928852 139.74432 53.795174 139.44473Q53.6615 139.1348 53.6615 138.16368L53.6615 134.4755L52.86972 134.4755L52.86972 133.63867L53.6615 133.63867L53.6615 132.05803L54.73091 131.40717L54.73091 133.63867L55.82089 133.63867L55.82089 134.4755L54.73091 134.4755L54.73091 138.22566Q54.73091 138.68024 54.782326 138.81453Q54.84402 138.94884 54.967415 139.03148Q55.10109 139.1038 55.347878 139.1038Q55.522686 139.1038 55.82089 139.06248ZM56.15746 140.0336L58.481373 136.707L56.332268 133.63867L57.679314 133.63867L58.65618 135.13669Q58.933815 135.56026 59.098343 135.84952Q59.365696 135.45694 59.581635 135.14702L60.661327 133.63867L61.94668 133.63867L59.74616 136.64502L62.111206 140.0336L60.78472 140.0336L59.478806 138.05003L59.139473 137.51282L57.463375 140.0336L56.15746 140.0336ZM65.37086 139.06248L65.5251 140.02327Q65.072655 140.11624 64.71275 140.11624Q64.12663 140.11624 63.797585 139.93028Q63.478817 139.74432 63.345142 139.44473Q63.211464 139.1348 63.211464 138.16368L63.211464 134.4755L62.41969 134.4755L62.41969 133.63867L63.211464 133.63867L63.211464 132.05803L64.280876 131.40717L64.280876 133.63867L65.37086 133.63867L65.37086 134.4755L64.280876 134.4755L64.280876 138.22566Q64.280876 138.68024 64.33229 138.81453Q64.39399 138.94884 64.51738 139.03148Q64.65106 139.1038 64.89784 139.1038Q65.072655 139.1038 65.37086 139.06248Z" fill-rule="nonzero"/><path fill="#cfe2f3" clip-path="url(#id_0)" d="M142.84909 125.000786L201.48734 125.000786L201.48734 172.39801L142.84909 172.39801Z" fill-rule="evenodd"/><path stroke="#000000" stroke-width="0.6596415648464823" stroke-linejoin="round" stroke-linecap="butt" clip-path="url(#id_0)" d="M142.84909 125.000786L201.48734 125.000786L201.48734 172.39801L142.84909 172.39801Z" fill-rule="evenodd"/><path fill="#000000" clip-path="url(#id_0)" d="M150.88387 150.43378L151.97383 150.34079Q152.05609 151.00198 152.33374 151.42555Q152.62166 151.84912 153.21806 152.11774Q153.82474 152.376 154.5754 152.376Q155.23349 152.376 155.74762 152.17972Q156.26176 151.98343 156.50856 151.6425Q156.75534 151.29124 156.75534 150.878Q156.75534 150.46477 156.50856 150.15483Q156.27205 149.84491 155.72707 149.62794Q155.36716 149.49365 154.1538 149.20438Q152.9507 148.90479 152.4674 148.6465Q151.82988 148.3159 151.5214 147.83035Q151.2129 147.33446 151.2129 146.72493Q151.2129 146.06374 151.59337 145.4852Q151.97383 144.89633 152.69363 144.59673Q153.4237 144.29713 154.30803 144.29713Q155.2849 144.29713 156.02527 144.6174Q156.77591 144.92732 157.17694 145.5472Q157.57797 146.15672 157.60881 146.93155L156.49828 147.01419Q156.40573 146.17738 155.8813 145.75381Q155.36716 145.3199 154.35945 145.3199Q153.30032 145.3199 152.81703 145.71248Q152.33374 146.10507 152.33374 146.6526Q152.33374 147.12784 152.68335 147.42744Q153.0124 147.73737 154.43143 148.06796Q155.85045 148.38823 156.37488 148.62584Q157.14609 148.9771 157.50598 149.52464Q157.87617 150.07219 157.87617 150.78503Q157.87617 151.48753 157.47514 152.11774Q157.07411 152.7376 156.32347 153.08885Q155.57281 153.42978 154.6268 153.42978Q153.43399 153.42978 152.62166 153.07852Q151.8196 152.72726 151.35687 152.02475Q150.90442 151.32225 150.88387 150.43378ZM159.33005 153.27481L159.33005 144.44177L160.40973 144.44177L160.40973 147.6134Q161.16039 146.73526 162.31206 146.73526Q163.02158 146.73526 163.5357 147.01419Q164.06013 147.29314 164.28636 147.78903Q164.51257 148.28491 164.51257 149.22504L164.51257 153.27481L163.43288 153.27481L163.43288 149.22504Q163.43288 148.40889 163.08327 148.03697Q162.73364 147.66505 162.08583 147.66505Q161.61282 147.66505 161.19122 147.92332Q160.76964 148.17128 160.58455 148.59485Q160.40973 149.01842 160.40973 149.77258L160.40973 153.27481L159.33005 153.27481ZM170.31255 152.48965Q169.70587 152.99588 169.15059 153.21283Q168.6056 153.41945 167.96808 153.41945Q166.91922 153.41945 166.35367 152.9029Q165.78812 152.38634 165.78812 151.59085Q165.78812 151.11562 166.00406 150.73337Q166.22 150.34079 166.55933 150.11351Q166.90894 149.8759 167.34082 149.75192Q167.6493 149.66928 168.29712 149.58662Q169.60304 149.43166 170.22 149.2147Q170.23029 148.98743 170.23029 148.93578Q170.23029 148.27458 169.9218 147.99565Q169.5105 147.63406 168.68787 147.63406Q167.92694 147.63406 167.56705 147.90266Q167.20714 148.17128 167.03233 148.84279L165.9732 148.69815Q166.11717 148.02664 166.44621 147.6134Q166.77527 147.18982 167.40251 146.96254Q168.02977 146.73526 168.84212 146.73526Q169.66473 146.73526 170.1686 146.93155Q170.68274 147.11751 170.91924 147.41711Q171.16603 147.70638 171.25858 148.15062Q171.30998 148.42955 171.30998 149.15273L171.30998 150.59908Q171.30998 152.1074 171.38196 152.51031Q171.45395 152.9029 171.64932 153.27481L170.52849 153.27481Q170.35368 152.93388 170.31255 152.48965ZM170.22 150.06186Q169.63388 150.3098 168.46164 150.4751Q167.79326 150.56808 167.51562 150.69205Q167.23799 150.81602 167.08376 151.0433Q166.93979 151.27058 166.93979 151.55986Q166.93979 151.99376 167.26884 152.28304Q167.59789 152.5723 168.22514 152.5723Q168.84212 152.5723 169.32541 152.3037Q169.81897 152.02475 170.0452 151.54953Q170.22 151.17761 170.22 150.46477L170.22 150.06186ZM172.97627 153.27481L172.97627 146.8799L173.94286 146.8799L173.94286 147.85101Q174.31303 147.16916 174.62152 146.95221Q174.94029 146.73526 175.32076 146.73526Q175.86574 146.73526 176.43129 147.08652L176.06111 148.08862Q175.66008 147.85101 175.26933 147.85101Q174.90944 147.85101 174.6318 148.06796Q174.35417 148.28491 174.23077 148.65683Q174.04568 149.23537 174.04568 149.92755L174.04568 153.27481L172.97627 153.27481ZM181.19852 153.27481L181.19852 152.469Q180.60211 153.41945 179.4196 153.41945Q178.65866 153.41945 178.02113 152.99588Q177.3836 152.5723 177.03398 151.81813Q176.68437 151.06396 176.68437 150.08252Q176.68437 149.12173 177.00313 148.34691Q177.3219 147.56174 177.94916 147.1485Q178.58669 146.73526 179.37846 146.73526Q179.9543 146.73526 180.39647 146.9832Q180.8489 147.22083 181.12654 147.6134L181.12654 144.44177L182.20624 144.44177L182.20624 153.27481L181.19852 153.27481ZM177.7949 150.08252Q177.7949 151.31192 178.30905 151.92145Q178.8232 152.53098 179.52243 152.53098Q180.23193 152.53098 180.72551 151.95244Q181.21909 151.36357 181.21909 150.17549Q181.21909 148.86345 180.71523 148.25392Q180.21136 147.63406 179.47101 147.63406Q178.76149 147.63406 178.2782 148.22293Q177.7949 148.8118 177.7949 150.08252ZM188.26328 151.21893L189.37383 151.35324Q189.10648 152.33469 188.39696 152.88223Q187.68744 153.41945 186.5769 153.41945Q185.17844 153.41945 184.35582 152.56197Q183.54347 151.69417 183.54347 150.13417Q183.54347 148.51219 184.3661 147.62373Q185.199 146.73526 186.5152 146.73526Q187.79027 146.73526 188.59233 147.6134Q189.40468 148.4812 189.40468 150.06186Q189.40468 150.16516 189.40468 150.35112L184.65402 150.35112Q184.71571 151.40489 185.25041 151.9731Q185.78513 152.53098 186.5769 152.53098Q187.17331 152.53098 187.5949 152.22104Q188.0165 151.90079 188.26328 151.21893ZM184.71571 149.46266L188.27356 149.46266Q188.20158 148.65683 187.86224 148.25392Q187.34811 147.62373 186.52548 147.62373Q185.78513 147.62373 185.27098 148.12994Q184.76712 148.62584 184.71571 149.46266ZM190.72134 153.27481L190.72134 146.8799L191.68793 146.8799L191.68793 147.85101Q192.0581 147.16916 192.3666 146.95221Q192.68536 146.73526 193.06583 146.73526Q193.61081 146.73526 194.17636 147.08652L193.80618 148.08862Q193.40515 147.85101 193.0144 147.85101Q192.65451 147.85101 192.37688 148.06796Q192.09924 148.28491 191.97585 148.65683Q191.79076 149.23537 191.79076 149.92755L191.79076 153.27481L190.72134 153.27481Z" fill-rule="nonzero"/><path fill="#000000" fill-opacity="0.0" clip-path="url(#id_0)" d="M201.48734 148.6994L230.5059 57.6326" fill-rule="evenodd"/><path stroke="#000000" stroke-width="0.6596415648464823" stroke-linejoin="round" stroke-linecap="butt" clip-path="url(#id_0)" d="M201.48734 148.6994L229.30199 61.41082" fill-rule="evenodd"/><path fill="#000000" stroke="#000000" stroke-width="0.6596415648464823" stroke-linecap="butt" clip-path="url(#id_0)" d="M230.33722 61.74381L230.21257 58.553165L228.26672 61.07784Z" fill-rule="evenodd"/><path fill="#000000" fill-opacity="0.0" clip-path="url(#id_0)" d="M201.48734 148.6994L230.5059 148.6994" fill-rule="evenodd"/><path stroke="#000000" stroke-width="0.6596415648464823" stroke-linejoin="round" stroke-linecap="butt" clip-path="url(#id_0)" d="M201.48734 148.6994L226.55731 148.6994" fill-rule="evenodd"/><path fill="#000000" stroke="#000000" stroke-width="0.6596415648464823" stroke-linecap="butt" clip-path="url(#id_0)" d="M226.55731 149.7915L229.54382 148.6994L226.55731 147.6073Z" fill-rule="evenodd"/><path fill="#000000" fill-opacity="0.0" clip-path="url(#id_0)" d="M201.48734 148.6994L230.5059 239.78702" fill-rule="evenodd"/><path stroke="#000000" stroke-width="0.6596415648464823" stroke-linejoin="round" stroke-linecap="butt" clip-path="url(#id_0)" d="M201.48734 148.6994L229.30223 236.00873" fill-rule="evenodd"/><path fill="#000000" stroke="#000000" stroke-width="0.6596415648464823" stroke-linecap="butt" clip-path="url(#id_0)" d="M228.26695 236.34163L230.21263 238.86644L230.3375 235.6758Z" fill-rule="evenodd"/><path fill="#cfe2f3" clip-path="url(#id_0)" d="M356.8576 33.92358L419.24753 33.92358L419.24753 81.32079L356.8576 81.32079Z" fill-rule="evenodd"/><path stroke="#000000" stroke-width="0.6596415648464823" stroke-linejoin="round" stroke-linecap="butt" clip-path="url(#id_0)" d="M356.8576 33.92358L419.24753 33.92358L419.24753 81.32079L356.8576 81.32079Z" fill-rule="evenodd"/><path fill="#000000" clip-path="url(#id_0)" d="M365.81567 62.1976L365.81567 53.364555L369.71286 53.364555Q370.8851 53.364555 371.49176 53.60217Q372.10873 53.839787 372.46863 54.449318Q372.83884 55.04852 372.83884 55.78202Q372.83884 56.711815 372.23215 57.36267Q371.62546 58.003197 370.36066 58.178825Q370.8234 58.40611 371.0702 58.62306Q371.57404 59.087955 372.0265 59.790466L373.55862 62.1976L372.09845 62.1976L370.9365 60.358677Q370.42236 59.563187 370.09332 59.149944Q369.76425 58.72637 369.49692 58.561073Q369.23984 58.385445 368.97247 58.32346Q368.7771 58.271805 368.32468 58.271805L366.97763 58.271805L366.97763 62.1976L365.81567 62.1976ZM366.97763 57.26969L369.47635 57.26969Q370.2784 57.26969 370.72055 57.104397Q371.173 56.92877 371.40952 56.56718Q371.64603 56.205593 371.64603 55.78202Q371.64603 55.15183 371.19357 54.748917Q370.74112 54.346004 369.75397 54.346004L366.97763 54.346004L366.97763 57.26969ZM378.88788 60.141724L379.9984 60.276028Q379.73108 61.257477 379.02155 61.805023Q378.31204 62.342236 377.2015 62.342236Q375.80304 62.342236 374.9804 61.48476Q374.16806 60.61695 374.16806 59.056965Q374.16806 57.43499 374.9907 56.54652Q375.8236 55.65805 377.1398 55.65805Q378.41486 55.65805 379.21692 56.53619Q380.02927 57.403996 380.02927 58.984646Q380.02927 59.087955 380.02927 59.273914L375.2786 59.273914Q375.3403 60.327682 375.875 60.89589Q376.40973 61.453766 377.2015 61.453766Q377.79788 61.453766 378.21948 61.143837Q378.64108 60.823574 378.88788 60.141724ZM375.3403 58.385445L378.89816 58.385445Q378.82617 57.579624 378.48685 57.176712Q377.97272 56.54652 377.1501 56.54652Q376.40973 56.54652 375.89557 57.052742Q375.39172 57.54863 375.3403 58.385445ZM385.4796 62.1976L385.4796 61.39178Q384.8832 62.342236 383.7007 62.342236Q382.93976 62.342236 382.30225 61.918663Q381.6647 61.49509 381.3151 60.740925Q380.96548 59.98676 380.96548 59.00531Q380.96548 58.04452 381.28424 57.26969Q381.603 56.48453 382.23026 56.071293Q382.8678 55.65805 383.65958 55.65805Q384.2354 55.65805 384.67758 55.905994Q385.13 56.14361 385.40765 56.53619L385.40765 53.364555L386.48734 53.364555L386.48734 62.1976L385.4796 62.1976ZM382.07602 59.00531Q382.07602 60.234703 382.59015 60.844234Q383.1043 61.453766 383.80353 61.453766Q384.51303 61.453766 385.00662 60.87523Q385.50018 60.286358 385.50018 59.09829Q385.50018 57.786243 384.99634 57.176712Q384.49246 56.55685 383.7521 56.55685Q383.0426 56.55685 382.5593 57.14572Q382.07602 57.73459 382.07602 59.00531ZM392.34903 62.1976L392.34903 61.257477Q391.60864 62.342236 390.3336 62.342236Q389.76804 62.342236 389.27444 62.125286Q388.79117 61.908333 388.55466 61.57774Q388.31815 61.247147 388.22562 60.77192Q388.15363 60.461987 388.15363 59.759476L388.15363 55.802685L389.23334 55.802685L389.23334 59.346233Q389.23334 60.19338 389.3053 60.49298Q389.40814 60.916553 389.73718 61.164497Q390.06622 61.41244 390.54953 61.41244Q391.0328 61.41244 391.4544 61.164497Q391.8863 60.90622 392.0611 60.482647Q392.2359 60.048744 392.2359 59.23259L392.2359 55.802685L393.3156 55.802685L393.3156 62.1976L392.34903 62.1976ZM399.167 59.852455L400.2261 59.99709Q400.0513 61.09218 399.3315 61.722374Q398.622 62.342236 397.57315 62.342236Q396.26724 62.342236 395.47546 61.48476Q394.6837 60.62728 394.6837 59.02597Q394.6837 57.982536 395.023 57.207706Q395.36234 56.432877 396.06158 56.05063Q396.7608 55.65805 397.58344 55.65805Q398.622 55.65805 399.2801 56.184933Q399.9382 56.711815 400.1233 57.682934L399.07443 57.837902Q398.9202 57.197376 398.53973 56.877113Q398.15927 56.54652 397.62457 56.54652Q396.81223 56.54652 396.2981 57.135387Q395.78394 57.72426 395.78394 58.994976Q395.78394 60.286358 396.27753 60.87523Q396.7711 61.453766 397.56287 61.453766Q398.2004 61.453766 398.622 61.061188Q399.05386 60.668606 399.167 59.852455ZM405.51147 60.141724L406.62204 60.276028Q406.35468 61.257477 405.64517 61.805023Q404.93564 62.342236 403.8251 62.342236Q402.42664 62.342236 401.604 61.48476Q400.7917 60.61695 400.7917 59.056965Q400.7917 57.43499 401.6143 56.54652Q402.4472 55.65805 403.7634 55.65805Q405.03848 55.65805 405.84055 56.53619Q406.65286 57.403996 406.65286 58.984646Q406.65286 59.087955 406.65286 59.273914L401.90222 59.273914Q401.9639 60.327682 402.49863 60.89589Q403.03333 61.453766 403.8251 61.453766Q404.4215 61.453766 404.8431 61.143837Q405.26468 60.823574 405.51147 60.141724ZM401.9639 58.385445L405.52176 58.385445Q405.4498 57.579624 405.11044 57.176712Q404.5963 56.54652 403.77368 56.54652Q403.03333 56.54652 402.5192 57.052742Q402.01532 57.54863 401.9639 58.385445ZM407.96954 62.1976L407.96954 55.802685L408.93613 55.802685L408.93613 56.773804Q409.3063 56.091953 409.6148 55.875Q409.93356 55.65805 410.31403 55.65805Q410.859 55.65805 411.42456 56.009304L411.05438 57.011417Q410.65335 56.773804 410.2626 56.773804Q409.9027 56.773804 409.6251 56.990753Q409.34744 57.207706 409.22406 57.579624Q409.03897 58.15816 409.03897 58.85034L409.03897 62.1976L407.96954 62.1976Z" fill-rule="nonzero"/><path fill="#cfe2f3" clip-path="url(#id_0)" d="M356.8576 125.000786L419.24753 125.000786L419.24753 172.39801L356.8576 172.39801Z" fill-rule="evenodd"/><path stroke="#000000" stroke-width="0.6596415648464823" stroke-linejoin="round" stroke-linecap="butt" clip-path="url(#id_0)" d="M356.8576 125.000786L419.24753 125.000786L419.24753 172.39801L356.8576 172.39801Z" fill-rule="evenodd"/><path fill="#000000" clip-path="url(#id_0)" d="M365.81567 153.27481L365.81567 144.44177L369.71286 144.44177Q370.8851 144.44177 371.49176 144.67938Q372.10873 144.91699 372.46863 145.52652Q372.83884 146.12573 372.83884 146.85924Q372.83884 147.78903 372.23215 148.43988Q371.62546 149.08041 370.36066 149.25603Q370.8234 149.48332 371.0702 149.70027Q371.57404 150.16516 372.0265 150.86768L373.55862 153.27481L372.09845 153.27481L370.9365 151.43588Q370.42236 150.6404 370.09332 150.22716Q369.76425 149.80357 369.49692 149.63829Q369.23984 149.46266 368.97247 149.40067Q368.7771 149.34901 368.32468 149.34901L366.97763 149.34901L366.97763 153.27481L365.81567 153.27481ZM366.97763 148.34691L369.47635 148.34691Q370.2784 148.34691 370.72055 148.18161Q371.173 148.00598 371.40952 147.6444Q371.64603 147.2828 371.64603 146.85924Q371.64603 146.22903 371.19357 145.82613Q370.74112 145.42322 369.75397 145.42322L366.97763 145.42322L366.97763 148.34691ZM378.88788 151.21893L379.9984 151.35324Q379.73108 152.33469 379.02155 152.88223Q378.31204 153.41945 377.2015 153.41945Q375.80304 153.41945 374.9804 152.56197Q374.16806 151.69417 374.16806 150.13417Q374.16806 148.51219 374.9907 147.62373Q375.8236 146.73526 377.1398 146.73526Q378.41486 146.73526 379.21692 147.6134Q380.02927 148.4812 380.02927 150.06186Q380.02927 150.16516 380.02927 150.35112L375.2786 150.35112Q375.3403 151.40489 375.875 151.9731Q376.40973 152.53098 377.2015 152.53098Q377.79788 152.53098 378.21948 152.22104Q378.64108 151.90079 378.88788 151.21893ZM375.3403 149.46266L378.89816 149.46266Q378.82617 148.65683 378.48685 148.25392Q377.97272 147.62373 377.1501 147.62373Q376.40973 147.62373 375.89557 148.12994Q375.39172 148.62584 375.3403 149.46266ZM385.4796 153.27481L385.4796 152.469Q384.8832 153.41945 383.7007 153.41945Q382.93976 153.41945 382.30225 152.99588Q381.6647 152.5723 381.3151 151.81813Q380.96548 151.06396 380.96548 150.08252Q380.96548 149.12173 381.28424 148.34691Q381.603 147.56174 382.23026 147.1485Q382.8678 146.73526 383.65958 146.73526Q384.2354 146.73526 384.67758 146.9832Q385.13 147.22083 385.40765 147.6134L385.40765 144.44177L386.48734 144.44177L386.48734 153.27481L385.4796 153.27481ZM382.07602 150.08252Q382.07602 151.31192 382.59015 151.92145Q383.1043 152.53098 383.80353 152.53098Q384.51303 152.53098 385.00662 151.95244Q385.50018 151.36357 385.50018 150.17549Q385.50018 148.86345 384.99634 148.25392Q384.49246 147.63406 383.7521 147.63406Q383.0426 147.63406 382.5593 148.22293Q382.07602 148.8118 382.07602 150.08252ZM392.34903 153.27481L392.34903 152.33469Q391.60864 153.41945 390.3336 153.41945Q389.76804 153.41945 389.27444 153.2025Q388.79117 152.98553 388.55466 152.65495Q388.31815 152.32436 388.22562 151.84912Q388.15363 151.5392 388.15363 150.83669L388.15363 146.8799L389.23334 146.8799L389.23334 150.42345Q389.23334 151.27058 389.3053 151.57019Q389.40814 151.99376 389.73718 152.24171Q390.06622 152.48965 390.54953 152.48965Q391.0328 152.48965 391.4544 152.24171Q391.8863 151.98343 392.0611 151.55986Q392.2359 151.12596 392.2359 150.3098L392.2359 146.8799L393.3156 146.8799L393.3156 153.27481L392.34903 153.27481ZM399.167 150.92966L400.2261 151.0743Q400.0513 152.16939 399.3315 152.79958Q398.622 153.41945 397.57315 153.41945Q396.26724 153.41945 395.47546 152.56197Q394.6837 151.7045 394.6837 150.10318Q394.6837 149.05974 395.023 148.28491Q395.36234 147.51009 396.06158 147.12784Q396.7608 146.73526 397.58344 146.73526Q398.622 146.73526 399.2801 147.26215Q399.9382 147.78903 400.1233 148.76015L399.07443 148.91512Q398.9202 148.27458 398.53973 147.95432Q398.15927 147.62373 397.62457 147.62373Q396.81223 147.62373 396.2981 148.2126Q395.78394 148.80147 395.78394 150.07219Q395.78394 151.36357 396.27753 151.95244Q396.7711 152.53098 397.56287 152.53098Q398.2004 152.53098 398.622 152.1384Q399.05386 151.74582 399.167 150.92966ZM405.51147 151.21893L406.62204 151.35324Q406.35468 152.33469 405.64517 152.88223Q404.93564 153.41945 403.8251 153.41945Q402.42664 153.41945 401.604 152.56197Q400.7917 151.69417 400.7917 150.13417Q400.7917 148.51219 401.6143 147.62373Q402.4472 146.73526 403.7634 146.73526Q405.03848 146.73526 405.84055 147.6134Q406.65286 148.4812 406.65286 150.06186Q406.65286 150.16516 406.65286 150.35112L401.90222 150.35112Q401.9639 151.40489 402.49863 151.9731Q403.03333 152.53098 403.8251 152.53098Q404.4215 152.53098 404.8431 152.22104Q405.26468 151.90079 405.51147 151.21893ZM401.9639 149.46266L405.52176 149.46266Q405.4498 148.65683 405.11044 148.25392Q404.5963 147.62373 403.77368 147.62373Q403.03333 147.62373 402.5192 148.12994Q402.01532 148.62584 401.9639 149.46266ZM407.96954 153.27481L407.96954 146.8799L408.93613 146.8799L408.93613 147.85101Q409.3063 147.16916 409.6148 146.95221Q409.93356 146.73526 410.31403 146.73526Q410.859 146.73526 411.42456 147.08652L411.05438 148.08862Q410.65335 147.85101 410.2626 147.85101Q409.9027 147.85101 409.6251 148.06796Q409.34744 148.28491 409.22406 148.65683Q409.03897 149.23537 409.03897 149.92755L409.03897 153.27481L407.96954 153.27481Z" fill-rule="nonzero"/><path fill="#cfe2f3" clip-path="url(#id_0)" d="M356.8576 216.078L419.24753 216.078L419.24753 263.47522L356.8576 263.47522Z" fill-rule="evenodd"/><path stroke="#000000" stroke-width="0.6596415648464823" stroke-linejoin="round" stroke-linecap="butt" clip-path="url(#id_0)" d="M356.8576 216.078L419.24753 216.078L419.24753 263.47522L356.8576 263.47522Z" fill-rule="evenodd"/><path fill="#000000" clip-path="url(#id_0)" d="M365.81567 244.35202L365.81567 235.51898L369.71286 235.51898Q370.8851 235.51898 371.49176 235.75659Q372.10873 235.9942 372.46863 236.60373Q372.83884 237.20294 372.83884 237.93645Q372.83884 238.86624 372.23215 239.51709Q371.62546 240.15762 370.36066 240.33324Q370.8234 240.56053 371.0702 240.77748Q371.57404 241.24237 372.0265 241.94489L373.55862 244.35202L372.09845 244.35202L370.9365 242.51309Q370.42236 241.7176 370.09332 241.30437Q369.76425 240.88078 369.49692 240.7155Q369.23984 240.53987 368.97247 240.47787Q368.7771 240.42622 368.32468 240.42622L366.97763 240.42622L366.97763 244.35202L365.81567 244.35202ZM366.97763 239.42412L369.47635 239.42412Q370.2784 239.42412 370.72055 239.25882Q371.173 239.08319 371.40952 238.7216Q371.64603 238.36002 371.64603 237.93645Q371.64603 237.30624 371.19357 236.90334Q370.74112 236.50043 369.75397 236.50043L366.97763 236.50043L366.97763 239.42412ZM378.88788 242.29614L379.9984 242.43045Q379.73108 243.4119 379.02155 243.95944Q378.31204 244.49666 377.2015 244.49666Q375.80304 244.49666 374.9804 243.63918Q374.16806 242.77138 374.16806 241.21138Q374.16806 239.5894 374.9907 238.70094Q375.8236 237.81247 377.1398 237.81247Q378.41486 237.81247 379.21692 238.69061Q380.02927 239.55841 380.02927 241.13907Q380.02927 241.24237 380.02927 241.42833L375.2786 241.42833Q375.3403 242.4821 375.875 243.05031Q376.40973 243.60818 377.2015 243.60818Q377.79788 243.60818 378.21948 243.29825Q378.64108 242.978 378.88788 242.29614ZM375.3403 240.53987L378.89816 240.53987Q378.82617 239.73404 378.48685 239.33113Q377.97272 238.70094 377.1501 238.70094Q376.40973 238.70094 375.89557 239.20715Q375.39172 239.70305 375.3403 240.53987ZM385.4796 244.35202L385.4796 243.5462Q384.8832 244.49666 383.7007 244.49666Q382.93976 244.49666 382.30225 244.07309Q381.6647 243.6495 381.3151 242.89534Q380.96548 242.14117 380.96548 241.15973Q380.96548 240.19894 381.28424 239.42412Q381.603 238.63895 382.23026 238.22571Q382.8678 237.81247 383.65958 237.81247Q384.2354 237.81247 384.67758 238.06041Q385.13 238.29803 385.40765 238.69061L385.40765 235.51898L386.48734 235.51898L386.48734 244.35202L385.4796 244.35202ZM382.07602 241.15973Q382.07602 242.38913 382.59015 242.99866Q383.1043 243.60818 383.80353 243.60818Q384.51303 243.60818 385.00662 243.02965Q385.50018 242.44078 385.50018 241.2527Q385.50018 239.94066 384.99634 239.33113Q384.49246 238.71127 383.7521 238.71127Q383.0426 238.71127 382.5593 239.30014Q382.07602 239.889 382.07602 241.15973ZM392.34903 244.35202L392.34903 243.4119Q391.60864 244.49666 390.3336 244.49666Q389.76804 244.49666 389.27444 244.27971Q388.79117 244.06274 388.55466 243.73216Q388.31815 243.40157 388.22562 242.92633Q388.15363 242.61641 388.15363 241.9139L388.15363 237.9571L389.23334 237.9571L389.23334 241.50066Q389.23334 242.3478 389.3053 242.6474Q389.40814 243.07097 389.73718 243.31892Q390.06622 243.56686 390.54953 243.56686Q391.0328 243.56686 391.4544 243.31892Q391.8863 243.06064 392.0611 242.63707Q392.2359 242.20317 392.2359 241.38701L392.2359 237.9571L393.3156 237.9571L393.3156 244.35202L392.34903 244.35202ZM399.167 242.00687L400.2261 242.1515Q400.0513 243.2466 399.3315 243.87679Q398.622 244.49666 397.57315 244.49666Q396.26724 244.49666 395.47546 243.63918Q394.6837 242.78171 394.6837 241.18039Q394.6837 240.13695 395.023 239.36212Q395.36234 238.5873 396.06158 238.20505Q396.7608 237.81247 397.58344 237.81247Q398.622 237.81247 399.2801 238.33936Q399.9382 238.86624 400.1233 239.83736L399.07443 239.99232Q398.9202 239.35179 398.53973 239.03152Q398.15927 238.70094 397.62457 238.70094Q396.81223 238.70094 396.2981 239.28981Q395.78394 239.87868 395.78394 241.1494Q395.78394 242.44078 396.27753 243.02965Q396.7711 243.60818 397.56287 243.60818Q398.2004 243.60818 398.622 243.2156Q399.05386 242.82303 399.167 242.00687ZM405.51147 242.29614L406.62204 242.43045Q406.35468 243.4119 405.64517 243.95944Q404.93564 244.49666 403.8251 244.49666Q402.42664 244.49666 401.604 243.63918Q400.7917 242.77138 400.7917 241.21138Q400.7917 239.5894 401.6143 238.70094Q402.4472 237.81247 403.7634 237.81247Q405.03848 237.81247 405.84055 238.69061Q406.65286 239.55841 406.65286 241.13907Q406.65286 241.24237 406.65286 241.42833L401.90222 241.42833Q401.9639 242.4821 402.49863 243.05031Q403.03333 243.60818 403.8251 243.60818Q404.4215 243.60818 404.8431 243.29825Q405.26468 242.978 405.51147 242.29614ZM401.9639 240.53987L405.52176 240.53987Q405.4498 239.73404 405.11044 239.33113Q404.5963 238.70094 403.77368 238.70094Q403.03333 238.70094 402.5192 239.20715Q402.01532 239.70305 401.9639 240.53987ZM407.96954 244.35202L407.96954 237.9571L408.93613 237.9571L408.93613 238.92822Q409.3063 238.24637 409.6148 238.02942Q409.93356 237.81247 410.31403 237.81247Q410.859 237.81247 411.42456 238.16373L411.05438 239.16583Q410.65335 238.92822 410.2626 238.92822Q409.9027 238.92822 409.6251 239.14517Q409.34744 239.36212 409.22406 239.73404Q409.03897 240.31258 409.03897 241.00476L409.03897 244.35202L407.96954 244.35202Z" fill-rule="nonzero"/><path fill="#000000" fill-opacity="0.0" clip-path="url(#id_0)" d="M289.1407 57.62219L356.8576 57.62219" fill-rule="evenodd"/><path stroke="#000000" stroke-width="0.6596415648464823" stroke-linejoin="round" stroke-linecap="butt" clip-path="url(#id_0)" d="M289.1407 57.62219L352.909 57.62219" fill-rule="evenodd"/><path fill="#000000" stroke="#000000" stroke-width="0.6596415648464823" stroke-linecap="butt" clip-path="url(#id_0)" d="M352.909 58.71429L355.89554 57.62219L352.909 56.530083Z" fill-rule="evenodd"/><path fill="#000000" fill-opacity="0.0" clip-path="url(#id_0)" d="M289.1407 148.6994L356.8576 148.6994" fill-rule="evenodd"/><path stroke="#000000" stroke-width="0.6596415648464823" stroke-linejoin="round" stroke-linecap="butt" clip-path="url(#id_0)" d="M289.1407 148.6994L352.909 148.6994" fill-rule="evenodd"/><path fill="#000000" stroke="#000000" stroke-width="0.6596415648464823" stroke-linecap="butt" clip-path="url(#id_0)" d="M352.909 149.7915L355.89554 148.6994L352.909 147.6073Z" fill-rule="evenodd"/><path fill="#000000" fill-opacity="0.0" clip-path="url(#id_0)" d="M289.1407 239.77661L356.8576 239.77661" fill-rule="evenodd"/><path stroke="#000000" stroke-width="0.6596415648464823" stroke-linejoin="round" stroke-linecap="butt" clip-path="url(#id_0)" d="M289.1407 239.77661L352.909 239.77661" fill-rule="evenodd"/><path fill="#000000" stroke="#000000" stroke-width="0.6596415648464823" stroke-linecap="butt" clip-path="url(#id_0)" d="M352.909 240.86871L355.89554 239.77661L352.909 238.68451Z" fill-rule="evenodd"/><path fill="#000000" fill-opacity="0.0" clip-path="url(#id_0)" d="M293.68002 33.92358L352.31827 33.92358L352.31827 61.703846L293.68002 61.703846Z" fill-rule="evenodd"/><path fill="#000000" clip-path="url(#id_0)" d="M300.1582 48.881695L301.24817 48.788715Q301.33044 49.4499 301.60806 49.873474Q301.896 50.297047 302.4924 50.565655Q303.0991 50.823933 303.84973 50.823933Q304.5078 50.823933 305.02197 50.62764Q305.5361 50.43135 305.7829 50.090427Q306.0297 49.73917 306.0297 49.325928Q306.0297 48.91269 305.7829 48.602757Q305.5464 48.292824 305.0014 48.075874Q304.6415 47.94157 303.42813 47.6523Q302.22504 47.3527 301.74176 47.094425Q301.10422 46.76383 300.79572 46.27827Q300.48724 45.78238 300.48724 45.172848Q300.48724 44.51166 300.8677 43.933125Q301.24817 43.344254 301.96796 43.044655Q302.69806 42.745052 303.58237 42.745052Q304.55923 42.745052 305.2996 43.065315Q306.05023 43.375248 306.45126 43.99511Q306.8523 44.60464 306.88315 45.37947L305.7726 45.462116Q305.68005 44.6253 305.15564 44.20173Q304.6415 43.767826 303.6338 43.767826Q302.57465 43.767826 302.09137 44.160404Q301.60806 44.552986 301.60806 45.100533Q301.60806 45.57576 301.9577 45.87536Q302.28674 46.18529 303.70578 46.515884Q305.1248 46.836147 305.64923 47.07376Q306.42044 47.42502 306.78033 47.97256Q307.1505 48.520107 307.1505 49.23295Q307.1505 49.935463 306.74948 50.565655Q306.34845 51.185516 305.5978 51.536774Q304.84717 51.877697 303.90112 51.877697Q302.70834 51.877697 301.896 51.526443Q301.09393 51.175186 300.6312 50.472675Q300.17877 49.770164 300.1582 48.881695ZM310.95914 50.751614L311.11337 51.712402Q310.66095 51.80538 310.30106 51.80538Q309.71494 51.80538 309.38586 51.619423Q309.0671 51.433464 308.93344 51.13386Q308.79974 50.823933 308.79974 49.852814L308.79974 46.16463L308.00797 46.16463L308.00797 45.327816L308.79974 45.327816L308.79974 43.747166L309.86917 43.09631L309.86917 45.327816L310.95914 45.327816L310.95914 46.16463L309.86917 46.16463L309.86917 49.9148Q309.86917 50.369366 309.92056 50.50367Q309.98227 50.637974 310.10568 50.72062Q310.23935 50.79294 310.48615 50.79294Q310.66095 50.79294 310.95914 50.751614ZM311.61447 48.520107Q311.61447 46.743168 312.59134 45.896023Q313.41397 45.183178 314.5965 45.183178Q315.9127 45.183178 316.7456 46.050987Q317.57852 46.908466 317.57852 48.437458Q317.57852 49.666855 317.2083 50.379696Q316.83813 51.082207 316.12863 51.47479Q315.4294 51.867367 314.5965 51.867367Q313.25974 51.867367 312.4371 51.00989Q311.61447 50.142082 311.61447 48.520107ZM312.72504 48.520107Q312.72504 49.749504 313.24945 50.369366Q313.78415 50.978897 314.5965 50.978897Q315.39856 50.978897 315.93326 50.369366Q316.46796 49.749504 316.46796 48.489117Q316.46796 47.301044 315.93326 46.691513Q315.39856 46.08198 314.5965 46.08198Q313.78415 46.08198 313.24945 46.691513Q312.72504 47.290714 312.72504 48.520107ZM318.8335 51.722733L318.8335 45.327816L319.80008 45.327816L319.80008 46.29893Q320.17026 45.617085 320.47873 45.40013Q320.7975 45.183178 321.17798 45.183178Q321.72296 45.183178 322.2885 45.534435L321.91833 46.53655Q321.5173 46.29893 321.12656 46.29893Q320.76666 46.29893 320.489 46.515884Q320.21136 46.732838 320.08798 47.104755Q319.9029 47.683292 319.9029 48.375473L319.9029 51.722733L318.8335 51.722733ZM327.08658 50.937572Q326.4799 51.443794 325.92462 51.660748Q325.37964 51.867367 324.7421 51.867367Q323.69327 51.867367 323.1277 51.350815Q322.56213 50.834263 322.56213 50.038773Q322.56213 49.563545 322.77808 49.181293Q322.99402 48.788715 323.33334 48.56143Q323.68298 48.32382 324.11484 48.199844Q324.42334 48.1172 325.07114 48.03455Q326.37708 47.87958 326.99405 47.662632Q327.00433 47.43535 327.00433 47.383694Q327.00433 46.722507 326.69583 46.44357Q326.28452 46.08198 325.46188 46.08198Q324.70096 46.08198 324.34106 46.35059Q323.98117 46.619194 323.80637 47.290714L322.74722 47.14608Q322.8912 46.47456 323.22025 46.061317Q323.5493 45.637745 324.17654 45.41046Q324.8038 45.183178 325.61615 45.183178Q326.43875 45.183178 326.94263 45.37947Q327.45676 45.56543 327.69327 45.86503Q327.94006 46.154297 328.0326 46.598534Q328.084 46.877472 328.084 47.600643L328.084 49.04699Q328.084 50.555325 328.156 50.958237Q328.22797 51.350815 328.42334 51.722733L327.30252 51.722733Q327.12772 51.38181 327.08658 50.937572ZM326.99405 48.509777Q326.40793 48.75772 325.2357 48.92302Q324.5673 49.016 324.28964 49.13997Q324.01202 49.263943 323.8578 49.491226Q323.7138 49.71851 323.7138 50.00778Q323.7138 50.44168 324.04288 50.730953Q324.37192 51.02022 324.99918 51.02022Q325.61615 51.02022 326.09943 50.751614Q326.59302 50.472675 326.8192 49.997448Q326.99405 49.62553 326.99405 48.91269L326.99405 48.509777ZM329.55493 52.249615L330.60376 52.404583Q330.67575 52.90047 330.97397 53.117424Q331.37497 53.417023 332.07422 53.417023Q332.82486 53.417023 333.2259 53.117424Q333.6372 52.817825 333.78116 52.28061Q333.86343 51.950016 333.85315 50.885918Q333.1539 51.722733 332.0948 51.722733Q330.7786 51.722733 330.05878 50.772278Q329.339 49.82182 329.339 48.489117Q329.339 47.569653 329.66803 46.794823Q330.0074 46.019993 330.62433 45.606754Q331.2516 45.183178 332.10507 45.183178Q333.2259 45.183178 333.95596 46.09231L333.95596 45.327816L334.9534 45.327816L334.9534 50.854923Q334.9534 52.35293 334.64493 52.97279Q334.3467 53.59265 333.68863 53.95424Q333.0408 54.315826 332.07422 54.315826Q330.9431 54.315826 330.23358 53.799274Q329.53436 53.293053 329.55493 52.249615ZM330.44952 48.406467Q330.44952 49.666855 330.9431 50.24539Q331.44696 50.823933 332.1976 50.823933Q332.93796 50.823933 333.44183 50.255722Q333.94568 49.677185 333.94568 48.447792Q333.94568 47.27005 333.42126 46.681183Q332.90714 46.08198 332.17703 46.08198Q331.45724 46.08198 330.9534 46.67085Q330.44952 47.24939 330.44952 48.406467ZM340.94876 49.666855L342.0593 49.80116Q341.79193 50.782608 341.08243 51.330154Q340.37292 51.867367 339.26236 51.867367Q337.86392 51.867367 337.0413 51.00989Q336.22894 50.142082 336.22894 48.582096Q336.22894 46.96012 337.05157 46.07165Q337.88446 45.183178 339.20068 45.183178Q340.47574 45.183178 341.2778 46.061317Q342.09015 46.929127 342.09015 48.509777Q342.09015 48.613087 342.09015 48.799046L337.33948 48.799046Q337.40118 49.852814 337.93588 50.42102Q338.47058 50.978897 339.26236 50.978897Q339.85876 50.978897 340.28036 50.668964Q340.70197 50.3487 340.94876 49.666855ZM337.40118 47.910576L340.95905 47.910576Q340.88705 47.104755 340.54773 46.701843Q340.03357 46.07165 339.21097 46.07165Q338.47058 46.07165 337.95645 46.57787Q337.4526 47.07376 337.40118 47.910576Z" fill-rule="nonzero"/><path fill="#000000" fill-opacity="0.0" clip-path="url(#id_0)" d="M293.68002 125.000786L352.31827 125.000786L352.31827 152.78105L293.68002 152.78105Z" fill-rule="evenodd"/><path fill="#000000" clip-path="url(#id_0)" d="M300.1582 139.95891L301.24817 139.86592Q301.33044 140.52711 301.60806 140.95068Q301.896 141.37425 302.4924 141.64287Q303.0991 141.90114 303.84973 141.90114Q304.5078 141.90114 305.02197 141.70485Q305.5361 141.50856 305.7829 141.16763Q306.0297 140.81638 306.0297 140.40314Q306.0297 139.9899 305.7829 139.67996Q305.5464 139.37004 305.0014 139.15308Q304.6415 139.01878 303.42813 138.7295Q302.22504 138.42992 301.74176 138.17163Q301.10422 137.84103 300.79572 137.35548Q300.48724 136.85959 300.48724 136.25006Q300.48724 135.58887 300.8677 135.01033Q301.24817 134.42146 301.96796 134.12186Q302.69806 133.82227 303.58237 133.82227Q304.55923 133.82227 305.2996 134.14252Q306.05023 134.45245 306.45126 135.07231Q306.8523 135.68185 306.88315 136.45668L305.7726 136.53932Q305.68005 135.70251 305.15564 135.27895Q304.6415 134.84503 303.6338 134.84503Q302.57465 134.84503 302.09137 135.23761Q301.60806 135.63019 301.60806 136.17773Q301.60806 136.65297 301.9577 136.95258Q302.28674 137.2625 303.70578 137.5931Q305.1248 137.91336 305.64923 138.15097Q306.42044 138.50223 306.78033 139.04977Q307.1505 139.59732 307.1505 140.31017Q307.1505 141.01266 306.74948 141.64287Q306.34845 142.26273 305.5978 142.61398Q304.84717 142.95491 303.90112 142.95491Q302.70834 142.95491 301.896 142.60365Q301.09393 142.2524 300.6312 141.54988Q300.17877 140.84738 300.1582 139.95891ZM310.95914 141.82883L311.11337 142.78961Q310.66095 142.88258 310.30106 142.88258Q309.71494 142.88258 309.38586 142.69662Q309.0671 142.51067 308.93344 142.21107Q308.79974 141.90114 308.79974 140.93002L308.79974 137.24184L308.00797 137.24184L308.00797 136.40503L308.79974 136.40503L308.79974 134.82437L309.86917 134.17352L309.86917 136.40503L310.95914 136.40503L310.95914 137.24184L309.86917 137.24184L309.86917 140.992Q309.86917 141.44658 309.92056 141.58087Q309.98227 141.71518 310.10568 141.79784Q310.23935 141.87015 310.48615 141.87015Q310.66095 141.87015 310.95914 141.82883ZM311.61447 139.59732Q311.61447 137.82037 312.59134 136.97324Q313.41397 136.26039 314.5965 136.26039Q315.9127 136.26039 316.7456 137.1282Q317.57852 137.98567 317.57852 139.51466Q317.57852 140.74406 317.2083 141.45691Q316.83813 142.15942 316.12863 142.552Q315.4294 142.94458 314.5965 142.94458Q313.25974 142.94458 312.4371 142.0871Q311.61447 141.2193 311.61447 139.59732ZM312.72504 139.59732Q312.72504 140.8267 313.24945 141.44658Q313.78415 142.0561 314.5965 142.0561Q315.39856 142.0561 315.93326 141.44658Q316.46796 140.8267 316.46796 139.56633Q316.46796 138.37825 315.93326 137.76872Q315.39856 137.1592 314.5965 137.1592Q313.78415 137.1592 313.24945 137.76872Q312.72504 138.36792 312.72504 139.59732ZM318.8335 142.79994L318.8335 136.40503L319.80008 136.40503L319.80008 137.37614Q320.17026 136.69429 320.47873 136.47734Q320.7975 136.26039 321.17798 136.26039Q321.72296 136.26039 322.2885 136.61165L321.91833 137.61375Q321.5173 137.37614 321.12656 137.37614Q320.76666 137.37614 320.489 137.5931Q320.21136 137.81004 320.08798 138.18196Q319.9029 138.7605 319.9029 139.45268L319.9029 142.79994L318.8335 142.79994ZM327.08658 142.01479Q326.4799 142.52101 325.92462 142.73796Q325.37964 142.94458 324.7421 142.94458Q323.69327 142.94458 323.1277 142.42802Q322.56213 141.91147 322.56213 141.11598Q322.56213 140.64075 322.77808 140.2585Q322.99402 139.86592 323.33334 139.63864Q323.68298 139.40103 324.11484 139.27705Q324.42334 139.19441 325.07114 139.11176Q326.37708 138.95679 326.99405 138.73984Q327.00433 138.51256 327.00433 138.4609Q327.00433 137.79971 326.69583 137.52078Q326.28452 137.1592 325.46188 137.1592Q324.70096 137.1592 324.34106 137.4278Q323.98117 137.69641 323.80637 138.36792L322.74722 138.22328Q322.8912 137.55177 323.22025 137.13853Q323.5493 136.71495 324.17654 136.48767Q324.8038 136.26039 325.61615 136.26039Q326.43875 136.26039 326.94263 136.45668Q327.45676 136.64264 327.69327 136.94225Q327.94006 137.2315 328.0326 137.67574Q328.084 137.95468 328.084 138.67786L328.084 140.1242Q328.084 141.63254 328.156 142.03545Q328.22797 142.42802 328.42334 142.79994L327.30252 142.79994Q327.12772 142.45901 327.08658 142.01479ZM326.99405 139.58699Q326.40793 139.83493 325.2357 140.00023Q324.5673 140.0932 324.28964 140.21718Q324.01202 140.34116 323.8578 140.56844Q323.7138 140.79572 323.7138 141.08499Q323.7138 141.51889 324.04288 141.80817Q324.37192 142.09743 324.99918 142.09743Q325.61615 142.09743 326.09943 141.82883Q326.59302 141.54988 326.8192 141.07466Q326.99405 140.70274 326.99405 139.9899L326.99405 139.58699ZM329.55493 143.32683L330.60376 143.4818Q330.67575 143.97768 330.97397 144.19463Q331.37497 144.49423 332.07422 144.49423Q332.82486 144.49423 333.2259 144.19463Q333.6372 143.89503 333.78116 143.35782Q333.86343 143.02722 333.85315 141.96313Q333.1539 142.79994 332.0948 142.79994Q330.7786 142.79994 330.05878 141.84949Q329.339 140.89903 329.339 139.56633Q329.339 138.64687 329.66803 137.87204Q330.0074 137.0972 330.62433 136.68396Q331.2516 136.26039 332.10507 136.26039Q333.2259 136.26039 333.95596 137.16953L333.95596 136.40503L334.9534 136.40503L334.9534 141.93213Q334.9534 143.43013 334.64493 144.05Q334.3467 144.66986 333.68863 145.03145Q333.0408 145.39304 332.07422 145.39304Q330.9431 145.39304 330.23358 144.87648Q329.53436 144.37025 329.55493 143.32683ZM330.44952 139.48367Q330.44952 140.74406 330.9431 141.3226Q331.44696 141.90114 332.1976 141.90114Q332.93796 141.90114 333.44183 141.33293Q333.94568 140.7544 333.94568 139.525Q333.94568 138.34726 333.42126 137.75839Q332.90714 137.1592 332.17703 137.1592Q331.45724 137.1592 330.9534 137.74806Q330.44952 138.3266 330.44952 139.48367ZM340.94876 140.74406L342.0593 140.87837Q341.79193 141.85982 341.08243 142.40736Q340.37292 142.94458 339.26236 142.94458Q337.86392 142.94458 337.0413 142.0871Q336.22894 141.2193 336.22894 139.6593Q336.22894 138.03732 337.05157 137.14886Q337.88446 136.26039 339.20068 136.26039Q340.47574 136.26039 341.2778 137.13853Q342.09015 138.00633 342.09015 139.58699Q342.09015 139.69029 342.09015 139.87625L337.33948 139.87625Q337.40118 140.93002 337.93588 141.49823Q338.47058 142.0561 339.26236 142.0561Q339.85876 142.0561 340.28036 141.74617Q340.70197 141.42592 340.94876 140.74406ZM337.40118 138.9878L340.95905 138.9878Q340.88705 138.18196 340.54773 137.77905Q340.03357 137.14886 339.21097 137.14886Q338.47058 137.14886 337.95645 137.65508Q337.4526 138.15097 337.40118 138.9878Z" fill-rule="nonzero"/><path fill="#000000" fill-opacity="0.0" clip-path="url(#id_0)" d="M293.68002 214.87016L352.31827 214.87016L352.31827 242.65042L293.68002 242.65042Z" fill-rule="evenodd"/><path fill="#000000" clip-path="url(#id_0)" d="M300.1582 229.82828L301.24817 229.73529Q301.33044 230.39648 301.60806 230.82005Q301.896 231.24362 302.4924 231.51224Q303.0991 231.77051 303.84973 231.77051Q304.5078 231.77051 305.02197 231.57422Q305.5361 231.37793 305.7829 231.037Q306.0297 230.68575 306.0297 230.2725Q306.0297 229.85927 305.7829 229.54933Q305.5464 229.23941 305.0014 229.02246Q304.6415 228.88815 303.42813 228.59888Q302.22504 228.29929 301.74176 228.041Q301.10422 227.71042 300.79572 227.22485Q300.48724 226.72896 300.48724 226.11943Q300.48724 225.45824 300.8677 224.8797Q301.24817 224.29083 301.96796 223.99124Q302.69806 223.69164 303.58237 223.69164Q304.55923 223.69164 305.2996 224.0119Q306.05023 224.32182 306.45126 224.9417Q306.8523 225.55122 306.88315 226.32605L305.7726 226.4087Q305.68005 225.57188 305.15564 225.14832Q304.6415 224.7144 303.6338 224.7144Q302.57465 224.7144 302.09137 225.107Q301.60806 225.49957 301.60806 226.04712Q301.60806 226.52234 301.9577 226.82195Q302.28674 227.13187 303.70578 227.46246Q305.1248 227.78273 305.64923 228.02034Q306.42044 228.3716 306.78033 228.91914Q307.1505 229.46669 307.1505 230.17953Q307.1505 230.88205 306.74948 231.51224Q306.34845 232.1321 305.5978 232.48335Q304.84717 232.82428 303.90112 232.82428Q302.70834 232.82428 301.896 232.47302Q301.09393 232.12177 300.6312 231.41925Q300.17877 230.71675 300.1582 229.82828ZM310.95914 231.6982L311.11337 232.65898Q310.66095 232.75197 310.30106 232.75197Q309.71494 232.75197 309.38586 232.56601Q309.0671 232.38005 308.93344 232.08044Q308.79974 231.77051 308.79974 230.7994L308.79974 227.1112L308.00797 227.1112L308.00797 226.2744L308.79974 226.2744L308.79974 224.69374L309.86917 224.0429L309.86917 226.2744L310.95914 226.2744L310.95914 227.1112L309.86917 227.1112L309.86917 230.86137Q309.86917 231.31595 309.92056 231.45026Q309.98227 231.58455 310.10568 231.6672Q310.23935 231.73952 310.48615 231.73952Q310.66095 231.73952 310.95914 231.6982ZM311.61447 229.46669Q311.61447 227.68974 312.59134 226.8426Q313.41397 226.12976 314.5965 226.12976Q315.9127 226.12976 316.7456 226.99757Q317.57852 227.85504 317.57852 229.38403Q317.57852 230.61343 317.2083 231.32628Q316.83813 232.0288 316.12863 232.42137Q315.4294 232.81395 314.5965 232.81395Q313.25974 232.81395 312.4371 231.95647Q311.61447 231.08867 311.61447 229.46669ZM312.72504 229.46669Q312.72504 230.69609 313.24945 231.31595Q313.78415 231.92548 314.5965 231.92548Q315.39856 231.92548 315.93326 231.31595Q316.46796 230.69609 316.46796 229.4357Q316.46796 228.24762 315.93326 227.63809Q315.39856 227.02856 314.5965 227.02856Q313.78415 227.02856 313.24945 227.63809Q312.72504 228.23729 312.72504 229.46669ZM318.8335 232.66931L318.8335 226.2744L319.80008 226.2744L319.80008 227.24551Q320.17026 226.56366 320.47873 226.34671Q320.7975 226.12976 321.17798 226.12976Q321.72296 226.12976 322.2885 226.48102L321.91833 227.48312Q321.5173 227.24551 321.12656 227.24551Q320.76666 227.24551 320.489 227.46246Q320.21136 227.67941 320.08798 228.05133Q319.9029 228.62987 319.9029 229.32205L319.9029 232.66931L318.8335 232.66931ZM327.08658 231.88416Q326.4799 232.39038 325.92462 232.60733Q325.37964 232.81395 324.7421 232.81395Q323.69327 232.81395 323.1277 232.2974Q322.56213 231.78084 322.56213 230.98535Q322.56213 230.51013 322.77808 230.12787Q322.99402 229.73529 323.33334 229.50801Q323.68298 229.2704 324.11484 229.14642Q324.42334 229.06378 325.07114 228.98112Q326.37708 228.82617 326.99405 228.6092Q327.00433 228.38193 327.00433 228.33028Q327.00433 227.66908 326.69583 227.39015Q326.28452 227.02856 325.46188 227.02856Q324.70096 227.02856 324.34106 227.29716Q323.98117 227.56578 323.80637 228.23729L322.74722 228.09267Q322.8912 227.42114 323.22025 227.0079Q323.5493 226.58432 324.17654 226.35704Q324.8038 226.12976 325.61615 226.12976Q326.43875 226.12976 326.94263 226.32605Q327.45676 226.51201 327.69327 226.81161Q327.94006 227.10088 328.0326 227.54512Q328.084 227.82405 328.084 228.54723L328.084 229.99358Q328.084 231.5019 328.156 231.90482Q328.22797 232.2974 328.42334 232.66931L327.30252 232.66931Q327.12772 232.32838 327.08658 231.88416ZM326.99405 229.45636Q326.40793 229.7043 325.2357 229.8696Q324.5673 229.96259 324.28964 230.08655Q324.01202 230.21053 323.8578 230.4378Q323.7138 230.66508 323.7138 230.95436Q323.7138 231.38826 324.04288 231.67754Q324.37192 231.9668 324.99918 231.9668Q325.61615 231.9668 326.09943 231.6982Q326.59302 231.41925 326.8192 230.94403Q326.99405 230.57211 326.99405 229.85927L326.99405 229.45636ZM329.55493 233.1962L330.60376 233.35117Q330.67575 233.84705 330.97397 234.06401Q331.37497 234.3636 332.07422 234.3636Q332.82486 234.3636 333.2259 234.06401Q333.6372 233.7644 333.78116 233.22719Q333.86343 232.89659 333.85315 231.8325Q333.1539 232.66931 332.0948 232.66931Q330.7786 232.66931 330.05878 231.71886Q329.339 230.7684 329.339 229.4357Q329.339 228.51624 329.66803 227.74141Q330.0074 226.96658 330.62433 226.55333Q331.2516 226.12976 332.10507 226.12976Q333.2259 226.12976 333.95596 227.0389L333.95596 226.2744L334.9534 226.2744L334.9534 231.8015Q334.9534 233.29951 334.64493 233.91937Q334.3467 234.53923 333.68863 234.90082Q333.0408 235.2624 332.07422 235.2624Q330.9431 235.2624 330.23358 234.74585Q329.53436 234.23964 329.55493 233.1962ZM330.44952 229.35304Q330.44952 230.61343 330.9431 231.19197Q331.44696 231.77051 332.1976 231.77051Q332.93796 231.77051 333.44183 231.2023Q333.94568 230.62376 333.94568 229.39438Q333.94568 228.21663 333.42126 227.62776Q332.90714 227.02856 332.17703 227.02856Q331.45724 227.02856 330.9534 227.61743Q330.44952 228.19597 330.44952 229.35304ZM340.94876 230.61343L342.0593 230.74774Q341.79193 231.72919 341.08243 232.27673Q340.37292 232.81395 339.26236 232.81395Q337.86392 232.81395 337.0413 231.95647Q336.22894 231.08867 336.22894 229.52867Q336.22894 227.90671 337.05157 227.01823Q337.88446 226.12976 339.20068 226.12976Q340.47574 226.12976 341.2778 227.0079Q342.09015 227.8757 342.09015 229.45636Q342.09015 229.55966 342.09015 229.74562L337.33948 229.74562Q337.40118 230.7994 337.93588 231.3676Q338.47058 231.92548 339.26236 231.92548Q339.85876 231.92548 340.28036 231.61554Q340.70197 231.29529 340.94876 230.61343ZM337.40118 228.85716L340.95905 228.85716Q340.88705 228.05133 340.54773 227.64842Q340.03357 227.01823 339.21097 227.01823Q338.47058 227.01823 337.95645 227.52446Q337.4526 228.02034 337.40118 228.85716Z" fill-rule="nonzero"/><path fill="#000000" fill-opacity="0.0" clip-path="url(#id_0)" d="M419.24753 57.62219L454.83673 148.70981" fill-rule="evenodd"/><path stroke="#000000" stroke-width="0.6596415648464823" stroke-linejoin="round" stroke-linecap="butt" clip-path="url(#id_0)" d="M419.24753 57.62219L453.3939 145.01701" fill-rule="evenodd"/><path fill="#000000" stroke="#000000" stroke-width="0.6596415648464823" stroke-linecap="butt" clip-path="url(#id_0)" d="M452.38208 145.41608L454.4852 147.81006L454.40573 144.61797Z" fill-rule="evenodd"/><path fill="#000000" fill-opacity="0.0" clip-path="url(#id_0)" d="M419.24753 148.6994L454.83673 148.6994" fill-rule="evenodd"/><path stroke="#000000" stroke-width="0.6596415648464823" stroke-linejoin="round" stroke-linecap="butt" clip-path="url(#id_0)" d="M419.24753 148.6994L450.88812 148.6994" fill-rule="evenodd"/><path fill="#000000" stroke="#000000" stroke-width="0.6596415648464823" stroke-linecap="butt" clip-path="url(#id_0)" d="M450.88812 149.7915L453.87466 148.6994L450.88812 147.6073Z" fill-rule="evenodd"/><path fill="#000000" fill-opacity="0.0" clip-path="url(#id_0)" d="M419.24753 239.77661L454.83673 148.70981" fill-rule="evenodd"/><path stroke="#000000" stroke-width="0.6596415648464823" stroke-linejoin="round" stroke-linecap="butt" clip-path="url(#id_0)" d="M419.24753 239.77661L453.39362 152.4025" fill-rule="evenodd"/><path fill="#000000" stroke="#000000" stroke-width="0.6596415648464823" stroke-linecap="butt" clip-path="url(#id_0)" d="M454.40543 152.80162L454.4851 149.60953L452.3818 152.00336Z" fill-rule="evenodd"/></svg>